<svg width="64" height="64" viewBox="0 0 64 64" fill="none" xmlns="http://www.w3.org/2000/svg">
<g clip-path="url(#clip0_354_2328)">
<path fill-rule="evenodd" clip-rule="evenodd" d="M24.0823 46.1857H39.9173C39.9173 37.8721 51.7935 38.1358 51.7935 21.1136C51.7935 10.1819 42.9316 1.31982 31.9998 1.31982C21.068 1.31982 12.2061 10.1819 12.2061 21.1136C12.2061 38.1356 24.0823 37.8721 24.0823 46.1857Z" fill="#F5890A"/>
<path fill-rule="evenodd" clip-rule="evenodd" d="M39.9173 46.1855H24.0823C22.4494 46.1855 21.1133 47.5216 21.1133 49.1546C21.1133 50.7876 22.4495 52.1237 24.0823 52.1237H39.9173C41.5502 52.1237 42.8864 50.7876 42.8864 49.1546C42.8864 47.5216 41.5503 46.1855 39.9173 46.1855Z" fill="#6D91AC"/>
<path fill-rule="evenodd" clip-rule="evenodd" d="M24.0825 52.124H39.9175V57.4025H24.0825V52.124Z" fill="#A7BDCD"/>
<path fill-rule="evenodd" clip-rule="evenodd" d="M39.9175 57.4023H24.0825V60.0414C24.0825 61.4929 25.2701 62.6805 26.7217 62.6805H37.2783C38.7299 62.6805 39.9175 61.4929 39.9175 60.0414V57.4023Z" fill="#A7BDCD"/>
<path fill-rule="evenodd" clip-rule="evenodd" d="M31.9996 32.1213C33.4573 32.1213 34.6388 30.9397 34.6388 29.4821C34.6388 29.0195 34.8292 28.5364 35.2205 27.9482C35.7806 27.1063 36.7268 26.0846 38.0392 24.7721C38.827 23.9843 39.4701 23.0349 39.915 21.9696C40.3405 20.9513 40.5769 19.8415 40.5769 18.6823C40.5769 16.314 39.6168 14.1697 38.0644 12.6175C36.5121 11.0651 34.3678 10.105 31.9996 10.105C29.6314 10.105 27.4871 11.0651 25.9348 12.6175C24.3825 14.1697 23.4224 16.314 23.4224 18.6823C23.4224 20.1399 24.6039 21.3214 26.0615 21.3214C27.5191 21.3214 28.7007 20.1399 28.7007 18.6823C28.7007 17.7711 29.0699 16.9462 29.6668 16.3494C30.2636 15.7525 31.0885 15.3833 31.9996 15.3833C32.911 15.3833 33.7357 15.7525 34.3325 16.3494C34.9294 16.9462 35.2986 17.7711 35.2986 18.6823C35.2986 19.138 35.2094 19.5653 35.0492 19.9491C34.8815 20.3506 34.6269 20.7208 34.3075 21.0402C32.7885 22.5592 31.6476 23.8104 30.8289 25.0411C29.8412 26.5255 29.3605 27.9147 29.3605 29.4821C29.3605 30.9396 30.542 32.1213 31.9996 32.1213Z" fill="white"/>
<path fill-rule="evenodd" clip-rule="evenodd" d="M34.6387 34.7607C34.6387 33.3031 33.4571 32.1216 31.9995 32.1216C30.5419 32.1216 29.3604 33.3031 29.3604 34.7607V34.7617C29.3604 36.2193 30.5419 37.4008 31.9995 37.4008C33.4571 37.4008 34.6387 36.2193 34.6387 34.7617V34.7607Z" fill="white"/>
<path d="M32 0C30.1151 0 28.2419 0.250193 26.4323 0.743849C25.7291 0.935584 25.3146 1.66109 25.5064 2.36416C25.6981 3.06737 26.4243 3.48198 27.1266 3.28998C28.7099 2.85808 30.3496 2.63916 32 2.63916C42.1867 2.63916 50.4742 10.9267 50.4742 21.1133C50.4742 30.5785 46.6998 34.2754 43.3699 37.537C41.2012 39.661 39.1402 41.6819 38.6898 44.8659H25.3103C24.8599 41.6819 22.7989 39.661 20.6301 37.537C17.3003 34.2754 13.5259 30.5785 13.5259 21.1133C13.5259 16.7504 15.0759 12.5158 17.8904 9.18957C18.3611 8.63323 18.2918 7.80058 17.7354 7.32988C17.1791 6.85906 16.3464 6.92847 15.8757 7.4848C12.6585 11.2869 10.8867 16.127 10.8867 21.1133C10.8867 31.6878 15.2652 35.9764 18.7835 39.4225C20.7866 41.3845 22.3069 42.8749 22.676 45.1041C21.0003 45.6878 19.7939 47.2825 19.7939 49.1547C19.7939 51.0591 21.042 52.6767 22.763 53.2347V56.0826H22.4332C21.7045 56.0826 21.1136 56.6734 21.1136 57.4022C21.1136 58.131 21.7045 58.7218 22.4332 58.7218H22.763V60.0414C22.763 62.2242 24.5389 64.0001 26.7217 64.0001H37.2784C39.4612 64.0001 41.2371 62.2242 41.2371 60.0414V58.7218H41.567C42.2957 58.7218 42.8866 58.131 42.8866 57.4022C42.8866 56.6734 42.2957 56.0826 41.567 56.0826H41.2371V53.2347C42.9581 52.6768 44.2062 51.0591 44.2062 49.1547C44.2062 47.2826 42.9998 45.6878 41.3241 45.1041C41.6932 42.8749 43.2134 41.3845 45.2166 39.4225C48.7348 35.9766 53.1133 31.6879 53.1133 21.1133C53.1133 9.47143 43.642 0 32 0ZM38.5979 60.0413C38.5979 60.7689 38.006 61.3608 37.2784 61.3608H26.7217C25.9941 61.3608 25.4021 60.7689 25.4021 60.0413V58.7217H38.5979V60.0413ZM25.4021 56.0826V53.4433H38.5979V56.0826H25.4021ZM39.9175 50.804H24.0825C23.173 50.804 22.4331 50.0642 22.4331 49.1546C22.4331 48.245 23.173 47.5051 24.0825 47.5051H39.9175C40.8271 47.5051 41.567 48.2451 41.567 49.1546C41.567 50.0642 40.8271 50.804 39.9175 50.804Z" fill="black"/>
<path d="M5.60791 22.4331C6.33658 22.4331 6.92749 21.8423 6.92749 21.1135C6.92749 20.3847 6.33658 19.7939 5.60791 19.7939H2.573C1.84433 19.7939 1.25342 20.3847 1.25342 21.1135C1.25342 21.8423 1.84433 22.4331 2.573 22.4331H5.60791Z" fill="black"/>
<path d="M8.48409 33.1663L3.22741 36.2013C2.59625 36.5657 2.37997 37.3727 2.74444 38.0039C2.98896 38.4272 3.43234 38.6639 3.88852 38.6639C4.11232 38.6639 4.33929 38.6068 4.54699 38.4868L9.80367 35.4518C10.4348 35.0875 10.6511 34.2804 10.2866 33.6493C9.92231 33.0182 9.11538 32.8018 8.48409 33.1663Z" fill="black"/>
<path d="M60.7724 36.2013L55.5157 33.1663C54.8844 32.8018 54.0774 33.0182 53.7132 33.6493C53.3487 34.2804 53.565 35.0875 54.1962 35.4518L59.4528 38.4868C59.6607 38.6069 59.8875 38.6639 60.1113 38.6639C60.5674 38.6639 61.011 38.4272 61.2554 38.0039C61.6199 37.3728 61.4036 36.5658 60.7724 36.2013Z" fill="black"/>
<path d="M61.4268 19.7939H58.3918C57.6632 19.7939 57.0723 20.3847 57.0723 21.1135C57.0723 21.8423 57.6632 22.4331 58.3918 22.4331H61.4268C62.1554 22.4331 62.7463 21.8423 62.7463 21.1135C62.7463 20.3847 62.1554 19.7939 61.4268 19.7939Z" fill="black"/>
<path d="M54.8573 9.23711C55.0811 9.23711 55.308 9.17997 55.5157 9.06002L60.7724 6.02498C61.4036 5.66065 61.6199 4.85359 61.2554 4.22243C60.8909 3.59141 60.0841 3.37513 59.4528 3.73947L54.1962 6.77451C53.565 7.13884 53.3487 7.9459 53.7132 8.57706C53.9576 9.00051 54.4011 9.23711 54.8573 9.23711Z" fill="black"/>
<path d="M9.80367 6.77465L4.54699 3.73961C3.91557 3.37501 3.10877 3.59142 2.74444 4.22258C2.37997 4.85374 2.59625 5.66079 3.22741 6.02513L8.48409 9.06017C8.69193 9.18012 8.91876 9.23726 9.14256 9.23726C9.59861 9.23726 10.0423 9.00052 10.2866 8.5772C10.6511 7.94605 10.4348 7.13899 9.80367 6.77465Z" fill="black"/>
<path d="M36.3194 28.679C36.8817 27.8341 37.9761 26.7015 38.9727 25.705C39.8985 24.7792 40.6252 23.6935 41.133 22.4781C41.6398 21.2647 41.8968 19.9875 41.8968 18.682C41.8968 16.0388 40.8672 13.5535 38.9978 11.684C37.1283 9.81456 34.6431 8.78516 31.9999 8.78516C29.3566 8.78516 26.8715 9.81469 25.002 11.684C23.1326 13.5535 22.103 16.0388 22.103 18.682C22.103 20.8649 23.8789 22.6408 26.0618 22.6408C28.2446 22.6408 30.0205 20.8649 30.0205 18.682C30.0205 18.153 30.2264 17.6559 30.6002 17.2822C30.9739 16.9085 31.471 16.7026 31.9999 16.7026C32.5288 16.7026 33.0259 16.9085 33.3997 17.2822C33.7734 17.6559 33.9793 18.153 33.9793 18.682C33.9793 18.9507 33.9296 19.2058 33.8317 19.4401C33.732 19.6788 33.5781 19.9032 33.3745 20.1069C31.5753 21.9062 30.5195 23.1239 29.7306 24.3098C28.5781 26.0419 28.0411 27.6854 28.0411 29.4819C28.0411 30.4951 28.4242 31.4202 29.0525 32.1212C28.4241 32.8223 28.0411 33.7477 28.0411 34.7614C28.0411 36.9442 29.817 38.7201 31.9999 38.7201C34.1827 38.7201 35.9586 36.9442 35.9586 34.7614V34.7605C35.9586 33.7473 35.5756 32.8221 34.9473 32.1212C35.5756 31.4202 35.9586 30.4951 35.9586 29.4819C35.9588 29.3631 36.0215 29.1272 36.3194 28.679ZM31.928 25.7719C32.6136 24.741 33.5735 23.6406 35.2409 21.9731C35.6889 21.5249 36.0343 21.015 36.267 20.4575C36.5002 19.8993 36.6184 19.302 36.6184 18.6822C36.6184 17.4482 36.138 16.2883 35.2659 15.4162C34.3937 14.5439 33.234 14.0636 31.9999 14.0636C30.7658 14.0636 29.606 14.5439 28.7341 15.4162C27.8618 16.2883 27.3814 17.4482 27.3814 18.6822C27.3814 19.4098 26.7894 20.0017 26.0618 20.0017C25.3342 20.0017 24.7422 19.4098 24.7422 18.6822C24.7422 16.7438 25.4973 14.9213 26.8682 13.5504C28.2391 12.1795 30.0616 11.4245 31.9999 11.4245C33.9382 11.4245 35.7607 12.1795 37.1316 13.5504C38.5027 14.9213 39.2576 16.7438 39.2576 18.6822C39.2576 19.6366 39.0692 20.5715 38.6977 21.4609C38.3232 22.3575 37.7877 23.1575 37.1065 23.839C35.5431 25.4021 34.6786 26.3809 34.122 27.2172C33.5746 28.0402 33.3195 28.7599 33.3195 29.482C33.3195 30.2096 32.7275 30.8016 31.9999 30.8016C31.2723 30.8016 30.6803 30.2096 30.6803 29.482C30.6804 28.2126 31.0652 27.0684 31.928 25.7719ZM33.3196 34.7614C33.3196 35.489 32.7276 36.081 32 36.081C31.2724 36.081 30.6804 35.489 30.6804 34.7605C30.6804 34.0329 31.2724 33.4409 32 33.4409C32.7276 33.4409 33.3196 34.0329 33.3196 34.7605V34.7614Z" fill="black"/>
<path d="M21.3509 5.74512C22.0795 5.74512 22.6705 5.15434 22.6705 4.42554C22.6705 3.69673 22.0795 3.10596 21.3509 3.10596H21.3498C20.6211 3.10596 20.0308 3.69673 20.0308 4.42554C20.0308 5.15434 20.6221 5.74512 21.3509 5.74512Z" fill="black"/>
</g>
<defs>
<clipPath id="clip0_354_2328">
<rect width="64" height="64" fill="white"/>
</clipPath>
</defs>
</svg>
