<svg width="16" height="20" viewBox="0 0 16 20" fill="none" xmlns="http://www.w3.org/2000/svg">
<path d="M4.70711 7.29289C4.31658 6.90237 3.68342 6.90237 3.29289 7.29289C2.90237 7.68342 2.90237 8.31658 3.29289 8.70711L4.70711 7.29289ZM8 12L7.29289 12.7071C7.48043 12.8946 7.73478 13 8 13C8.26522 13 8.51957 12.8946 8.70711 12.7071L8 12ZM12.7071 8.70711C13.0976 8.31658 13.0976 7.68342 12.7071 7.29289C12.3166 6.90237 11.6834 6.90237 11.2929 7.29289L12.7071 8.70711ZM3.29289 8.70711L7.29289 12.7071L8.70711 11.2929L4.70711 7.29289L3.29289 8.70711ZM8.70711 12.7071L12.7071 8.70711L11.2929 7.29289L7.29289 11.2929L8.70711 12.7071Z" fill="#F5890A"/>
</svg>
