<svg width="40" height="40" viewBox="0 0 40 40" fill="none" xmlns="http://www.w3.org/2000/svg">
<g clip-path="url(#clip0_372_6920)">
<path d="M36.6659 17.66C36.6707 22.5069 33.3091 26.7072 28.5789 27.7645C23.8487 28.8218 19.0187 26.4526 16.9593 22.0649C14.9 17.6773 16.1636 12.4479 19.9993 9.48486C23.835 6.52179 29.2139 6.61952 32.9394 9.72016C35.2988 11.6822 36.6643 14.5914 36.6659 17.66Z" fill="#CFD8DC"/>
<path d="M35.3331 16.3269C35.3349 20.3352 33.0176 23.9826 29.3882 25.6837C25.7588 27.3849 21.4729 26.8325 18.3934 24.2667C14.9742 20.163 15.2481 14.1291 19.0252 10.3521C22.8022 6.57504 28.8361 6.30106 32.9398 9.72029C34.4893 11.5727 35.3367 13.9118 35.3331 16.3269Z" fill="#F5F5F5"/>
<path d="M26.3329 23.6599C29.6465 23.6599 32.3328 20.9737 32.3328 17.66C32.3328 14.3464 29.6465 11.6602 26.3329 11.6602C23.0192 11.6602 20.333 14.3464 20.333 17.66C20.333 20.9737 23.0192 23.6599 26.3329 23.6599Z" fill="#CFD8DC"/>
<path d="M35.4926 27.4399C32.686 28.0004 30.6656 30.4645 30.666 33.3265H39.3325V28.6599C39.334 28.3342 39.2126 28.02 38.9925 27.7799L35.4926 27.4399Z" fill="#607D8B"/>
<path d="M34.3788 27.4399C32.2608 27.9866 30.666 30.4132 30.666 33.3265H37.3325V28.6599C37.3375 28.3467 37.2463 28.0395 37.071 27.7799L34.3788 27.4399Z" fill="#CFD8DC"/>
<path d="M2 35.3267H4.66659V38.66C4.66659 39.0282 4.36808 39.3266 3.99996 39.3266H2.66663C2.29843 39.3266 2 39.0281 2 38.66V35.3267Z" fill="#607D8B"/>
<path d="M35.333 35.3267H37.9996V38.66C37.9996 39.0282 37.7012 39.3266 37.333 39.3266H35.9996C35.6314 39.3266 35.333 39.0281 35.333 38.66V35.3267Z" fill="#607D8B"/>
<path d="M3.33333 29.3267H15.9997C16.7361 29.3267 17.3331 29.9236 17.3331 30.66V34.6599H2V30.66C2 29.9236 2.59694 29.3267 3.33333 29.3267Z" fill="#607D8B"/>
<path d="M3.33333 29.3267H13.9998C14.7362 29.3267 15.3331 29.9236 15.3331 30.66V34.6599H2V30.66C2 29.9236 2.59694 29.3267 3.33333 29.3267Z" fill="#CFD8DC"/>
<path d="M1.33362 33.3267H39.3329V35.3266C39.3329 35.6948 39.0344 35.9932 38.6662 35.9932H1.33362C0.965424 35.9932 0.666992 35.6948 0.666992 35.3266V33.9933C0.666914 33.6251 0.965424 33.3267 1.33362 33.3267Z" fill="#CFD8DC"/>
<path d="M1.33362 33.3264H37.3329V35.3264C37.3329 35.6946 37.0344 35.993 36.6663 35.993H1.33362C0.965424 35.993 0.666992 35.6946 0.666992 35.3264V33.993C0.666914 33.6248 0.965424 33.3264 1.33362 33.3264Z" fill="#F5F5F5"/>
<path d="M35.3325 26.6599L35.3125 26.6399L35.3325 26.6599Z" fill="#F3D55B"/>
<path d="M17.3139 3.30872L12.4243 0.733223C12.1654 0.612912 11.8583 0.673146 11.664 0.882438L11.0812 1.46516C10.8223 1.69492 10.7969 2.09046 11.0246 2.35132L15.1719 6.49858L17.383 4.28737C17.5314 4.16245 17.6112 3.97402 17.5975 3.78051C17.5839 3.58692 17.4785 3.41161 17.3139 3.30872Z" fill="#FF5722"/>
<path d="M37.2867 24.6599L35.3134 26.6399L18.0004 9.32696L17.1404 8.46697L15.1738 6.50037L17.0604 4.61377L17.9004 5.45375L19.2204 6.77373C24.0615 3.61606 30.4056 4.03159 34.7934 7.79371C35.0468 8.00698 35.2868 8.22706 35.5268 8.46697C39.8373 12.7844 40.569 19.5172 37.2867 24.6599Z" fill="#C26C08"/>
<path d="M35.9601 23.3466L33.9935 25.32L18.0004 9.32691L17.1404 8.46693L15.1738 6.50032L17.0538 4.62036L17.8938 5.46034C17.8956 5.46042 17.8973 5.45972 17.8985 5.45847C17.8998 5.45722 17.9005 5.4555 17.9004 5.4537L19.2204 6.77368C24.0615 3.61601 30.4056 4.03154 34.7934 7.79366C38.5915 12.1443 39.0666 18.4781 35.9601 23.3466Z" fill="#F5890A"/>
<path d="M37.333 28.6598C38.4375 28.6598 39.3329 27.7644 39.3329 26.6599C39.3329 25.5553 38.4375 24.6599 37.333 24.6599C36.2284 24.6599 35.333 25.5553 35.333 26.6599C35.333 27.7644 36.2284 28.6598 37.333 28.6598Z" fill="#607D8B"/>
<path d="M38.6659 36.6598H1.33333C0.597254 36.6591 0.000703111 36.0626 0 35.3266V33.9932C0.000703111 33.2572 0.597254 32.6607 1.33333 32.6599H39.3326C39.7008 32.6599 39.9992 32.9583 39.9992 33.3265V35.3265C39.9985 36.0626 39.402 36.6591 38.6659 36.6598ZM1.33333 33.9932V35.3266H38.6669L38.6662 33.9932H1.33333Z" fill="black"/>
<path d="M3.99967 39.9932H2.66634C1.93026 39.9925 1.33379 39.396 1.33301 38.6599V35.9933C1.33301 35.6251 1.63152 35.3267 1.99964 35.3267H4.66622C5.03442 35.3267 5.33285 35.6251 5.33285 35.9933V38.6599C5.33223 39.396 4.73575 39.9925 3.99967 39.9932ZM2.66634 36.6599V38.6599H4.00061L3.99991 36.6599H2.66634Z" fill="black"/>
<path d="M37.3327 39.9932H35.9993C35.2633 39.9925 34.6668 39.396 34.666 38.6599V35.9933C34.666 35.6251 34.9644 35.3267 35.3326 35.3267H37.9993C38.3675 35.3267 38.6659 35.6251 38.6659 35.9933V38.6599C38.6652 39.396 38.0687 39.9925 37.3327 39.9932ZM35.9993 36.6599V38.6599H37.3336L37.3329 36.6599H35.9993Z" fill="black"/>
<path d="M39.3322 33.9933H30.6657C30.2975 33.9933 29.999 33.6949 29.999 33.3267C29.999 32.9585 30.2975 32.66 30.6657 32.66H38.6655V28.6601C38.6671 28.5011 38.6081 28.3473 38.5005 28.2301C38.3391 28.0545 38.2839 27.8061 38.3557 27.5786C38.4275 27.3511 38.6152 27.1794 38.8481 27.1281C39.0811 27.0769 39.3236 27.1541 39.4842 27.3304C39.8163 27.6935 40 28.168 39.9989 28.6601V33.3267C39.9988 33.6949 39.7004 33.9933 39.3322 33.9933Z" fill="black"/>
<path d="M30.6657 33.9931C30.2975 33.9931 29.999 33.6947 29.999 33.3265C30.0038 30.1482 32.2467 27.4131 35.3625 26.7859C35.5965 26.7387 35.8379 26.8201 35.9955 26.9994C36.153 27.1788 36.2027 27.4286 36.1256 27.6546C36.0486 27.8806 35.8566 28.0481 35.6224 28.0939C33.1298 28.5957 31.3359 30.784 31.3324 33.3265C31.3324 33.6947 31.0338 33.9931 30.6657 33.9931Z" fill="black"/>
<path d="M35.3323 27.3266C35.1554 27.3269 34.9858 27.2565 34.861 27.1313L16.668 8.93831C16.5429 8.81323 16.4726 8.64362 16.4727 8.46675C16.4727 8.28988 16.5431 8.12027 16.6683 7.99528C21.6009 3.06217 29.4572 2.63609 34.8946 7.0067C40.3319 11.3773 41.6046 19.1416 37.8472 25.0194C37.7188 25.22 37.4931 25.3369 37.2552 25.326C37.0173 25.3152 36.8033 25.1781 36.6937 24.9667C36.5841 24.7552 36.5958 24.5013 36.7241 24.3007C40.0464 19.1033 39.0178 12.2507 34.3161 8.25769C29.6143 4.26472 22.6855 4.35972 18.0949 8.47995L35.8036 26.1886C35.9942 26.3792 36.0512 26.6659 35.9481 26.915C35.8449 27.1641 35.6019 27.3265 35.3323 27.3266Z" fill="black"/>
<path d="M26.3331 28.6599C21.8843 28.6599 17.8736 25.9803 16.1709 21.8702C14.4682 17.7601 15.4088 13.0292 18.5543 9.88319C18.7222 9.71374 18.9679 9.64694 19.1985 9.70804C19.429 9.76913 19.6094 9.94873 19.6714 10.179C19.7334 10.4094 19.6677 10.6553 19.4989 10.8239C17.0555 13.2655 16.1008 16.8255 16.9944 20.1621C17.8881 23.4988 20.4943 26.105 23.8309 26.9986C27.1676 27.8923 30.7275 26.9375 33.1692 24.4942C33.3378 24.3254 33.5837 24.2596 33.814 24.3217C34.0443 24.3837 34.2239 24.5641 34.285 24.7946C34.3461 25.0252 34.2793 25.2709 34.1099 25.4387C32.0502 27.5057 29.2509 28.6651 26.3331 28.6599Z" fill="black"/>
<path d="M26.3328 24.3268C23.6363 24.3284 21.2047 22.7045 20.1731 20.2131C19.1414 17.7218 19.7133 14.8543 21.6215 12.9491C21.79 12.7808 22.0354 12.715 22.2654 12.7766C22.4955 12.8383 22.6751 13.018 22.7368 13.248C22.7984 13.4779 22.7326 13.7234 22.5643 13.8918C21.2141 15.2374 20.6856 17.2016 21.1778 19.0432C21.6701 20.8846 23.1085 22.3229 24.9499 22.8153C26.7914 23.3076 28.7556 22.7789 30.1012 21.4288C30.3615 21.1685 30.7836 21.1685 31.0439 21.4288C31.3043 21.6891 31.3043 22.1112 31.0439 22.3715C29.7979 23.6264 28.1013 24.3306 26.3328 24.3268Z" fill="black"/>
<path d="M15.1717 7.16531C14.9949 7.16555 14.8253 7.09523 14.7004 6.97L10.553 2.82266C10.0654 2.30158 10.0905 1.48433 10.6093 0.994261L11.1927 0.410913C11.5948 -0.00314128 12.2178 -0.110874 12.7356 0.143965L17.6245 2.71907C17.9623 2.8961 18.1945 3.22469 18.2485 3.60218C18.3074 4.02834 18.1612 4.45724 17.8543 4.75872L15.6431 6.96992C15.5181 7.09524 15.3485 7.16547 15.1717 7.16531ZM11.5524 1.93659L15.1717 5.55597L16.8891 3.83858L12.1138 1.32332L11.5524 1.93659Z" fill="black"/>
<path d="M17.9993 9.99363C17.8224 9.99387 17.6528 9.92355 17.528 9.79832L14.7012 6.97158C14.5761 6.84658 14.5059 6.67706 14.5059 6.50026C14.5059 6.32347 14.5761 6.15394 14.7012 6.02894L16.5878 4.14257C16.7128 4.0175 16.8824 3.94727 17.0592 3.94727C17.236 3.94727 17.4055 4.0175 17.5305 4.14257L19.6906 6.30238C19.859 6.47081 19.9247 6.7162 19.8631 6.94627C19.8015 7.17634 19.6218 7.35603 19.3918 7.41767C19.1617 7.47931 18.9163 7.41353 18.7479 7.24517L17.0591 5.55677L16.1151 6.50042L18.4705 8.85584C18.6612 9.04646 18.7181 9.33318 18.615 9.58223C18.512 9.83113 18.2689 9.99355 17.9993 9.99363Z" fill="black"/>
<path d="M17.3327 33.9933H1.99964C1.63144 33.9933 1.33301 33.6949 1.33301 33.3267V30.6601C1.33418 29.5561 2.22893 28.6613 3.33297 28.6602H15.9994C17.1034 28.6613 17.9982 29.5561 17.9993 30.6601V33.3267C17.9993 33.5035 17.9291 33.6731 17.8041 33.7981C17.679 33.9231 17.5095 33.9933 17.3327 33.9933ZM2.66626 32.66H16.666V30.66C16.6655 30.2921 16.3673 29.9939 15.9994 29.9934H3.33297C2.96501 29.9939 2.66681 30.2921 2.66634 30.66V32.66H2.66626Z" fill="black"/>
<path d="M37.3326 29.3266C35.8599 29.3266 34.666 28.1327 34.666 26.66C34.666 25.1873 35.8599 23.9934 37.3326 23.9934C38.8053 23.9934 39.9992 25.1873 39.9992 26.66C39.9975 28.132 38.8046 29.3249 37.3326 29.3266ZM37.3326 25.3267C36.5962 25.3267 35.9993 25.9236 35.9993 26.66C35.9993 27.3964 36.5962 27.9933 37.3326 27.9933C38.069 27.9933 38.6659 27.3964 38.6659 26.66C38.6652 25.9239 38.0686 25.3274 37.3326 25.3267Z" fill="black"/>
</g>
<defs>
<clipPath id="clip0_372_6920">
<rect width="40" height="40" fill="white"/>
</clipPath>
</defs>
</svg>
