<svg width="64" height="64" viewBox="0 0 64 64" fill="none" xmlns="http://www.w3.org/2000/svg">
<path d="M18.5962 46.5318V47.8169C18.5962 48.2829 18.9766 48.6606 19.4462 48.6606C19.9157 48.6606 20.2961 48.2829 20.2961 47.8169V46.5318C20.2961 46.0658 19.9157 45.688 19.4462 45.688C18.9766 45.688 18.5962 46.0658 18.5962 46.5318ZM53.3618 35.6118H31.9804C31.5109 35.6118 31.1305 35.9895 31.1305 36.4555C31.1305 36.9215 31.5109 37.2993 31.9804 37.2993H53.3618C53.8313 37.2993 54.2118 36.9215 54.2118 36.4555C54.2118 35.9895 53.8313 35.6118 53.3618 35.6118ZM17.0956 50.8416C16.9022 50.9469 16.5875 51.0709 16.1904 51.0672C15.8096 51.0633 15.509 50.9424 15.3241 50.8417C14.9125 50.6175 14.396 50.767 14.1701 51.1756C13.9444 51.5842 14.0949 52.0971 14.5064 52.3212C15.0162 52.5987 15.5923 52.7487 16.1725 52.7546C16.9133 52.7623 17.5477 52.5201 17.9129 52.3212C18.3245 52.0971 18.4751 51.5843 18.2494 51.1756C18.0238 50.7671 17.5073 50.6176 17.0956 50.8416ZM12.9735 45.688C12.504 45.688 12.1236 46.0658 12.1236 46.5318V47.8169C12.1236 48.2829 12.504 48.6606 12.9735 48.6606C13.443 48.6606 13.8234 48.2829 13.8234 47.8169V46.5318C13.8234 46.0658 13.443 45.688 12.9735 45.688ZM60.3337 48.7862C60.3053 48.3211 59.9043 47.9656 59.4341 47.9948C58.9655 48.0229 58.6086 48.4227 58.637 48.8878L59.0955 56.4286C59.1383 57.1326 58.8938 57.8029 58.4068 58.3163C57.92 58.8296 57.2606 59.1124 56.5503 59.1124H7.45006C6.73974 59.1124 6.08042 58.8297 5.59358 58.3163C5.10662 57.8029 4.86207 57.1326 4.9049 56.4286L6.33903 32.8437H16.56C17.0295 32.8437 17.4099 32.4659 17.4099 32C17.4099 31.534 17.0295 31.1562 16.56 31.1562H6.33903L4.9049 7.57125C4.86207 6.86734 5.10662 6.19695 5.59358 5.68361C6.08042 5.17016 6.73986 4.88745 7.45006 4.88745H56.5502C57.2605 4.88745 57.9199 5.17016 58.4067 5.68361C58.8937 6.19695 59.1382 6.86734 59.0954 7.57125L57.6613 31.1562H20.5264C20.0569 31.1562 19.6764 31.534 19.6764 32C19.6764 32.4659 20.0569 32.8437 20.5264 32.8437H57.6614L58.3968 44.9404C58.424 45.3882 58.7985 45.7334 59.2444 45.7334C59.2615 45.7334 59.279 45.7328 59.2964 45.7318C59.765 45.7037 60.1219 45.3039 60.0935 44.8388L59.313 32L60.7922 7.67284C60.8636 6.4998 60.4558 5.38245 59.6444 4.52678C58.8328 3.67121 57.734 3.19995 56.5502 3.19995H7.45006C6.26627 3.19995 5.16748 3.67121 4.35596 4.52678C3.54444 5.38245 3.13681 6.4998 3.20821 7.67284L4.68732 32L3.20821 56.3271C3.13681 57.5001 3.54455 58.6175 4.35596 59.4731C5.16748 60.3287 6.26627 60.7999 7.45006 60.7999H56.5502C57.734 60.7999 58.8329 60.3287 59.6444 59.4731C60.4558 58.6175 60.8636 57.5001 60.7922 56.3271L60.3337 48.7862ZM53.3618 40.6743H31.9804C31.5109 40.6743 31.1305 41.052 31.1305 41.518C31.1305 41.984 31.5109 42.3618 31.9804 42.3618H53.3618C53.8313 42.3618 54.2118 41.984 54.2118 41.518C54.2118 41.052 53.8313 40.6743 53.3618 40.6743ZM54.2118 46.5805C54.2118 46.1145 53.8313 45.7368 53.3618 45.7368H31.9804C31.5109 45.7368 31.1305 46.1145 31.1305 46.5805C31.1305 47.0465 31.5109 47.4243 31.9804 47.4243H53.3618C53.8313 47.4243 54.2118 47.0465 54.2118 46.5805ZM8.65221 39.3335V48.8419C8.65221 52.9788 12.0425 56.3445 16.2098 56.3445C20.377 56.3445 23.7673 52.9788 23.7673 48.8419V39.3335C23.7673 37.2814 22.0856 35.6118 20.0184 35.6118H12.4012C10.3339 35.6118 8.65221 37.2813 8.65221 39.3335ZM22.0676 48.8418C22.0676 52.0482 19.4398 54.6569 16.2099 54.6569C12.9801 54.6569 10.3522 52.0482 10.3522 48.8418V44.8183L16.9263 43.3016C17.7218 43.118 18.5723 43.1948 19.3215 43.5178L22.0677 44.7016L22.0676 48.8418ZM22.0676 39.3335V42.8619L19.9984 41.9699C18.9173 41.5038 17.6894 41.3929 16.5413 41.658L10.3521 43.0859V39.3335C10.3521 38.2119 11.2713 37.2993 12.4012 37.2993H20.0186C21.1483 37.2993 22.0676 38.2118 22.0676 39.3335Z" fill="black"/>
<path fill-rule="evenodd" clip-rule="evenodd" d="M33.9201 55.5183C33.93 55.9843 34.3224 56.3531 34.7877 56.344C35.9703 56.3193 37.5388 56.0917 38.9601 55.2552C39.5462 55.5461 40.1743 55.7777 40.7799 55.9464C41.8018 56.2312 42.6946 56.3505 43.4593 56.3505C44.9935 56.3505 46.0115 55.8701 46.5188 55.2807C46.8489 54.897 47.0054 54.4587 47.105 54.0801C47.2455 54.2786 47.4223 54.5576 47.6369 54.9477C47.862 55.3566 48.3783 55.5071 48.7903 55.2836C49.2023 55.0602 49.3538 54.5476 49.1287 54.1387C48.4667 52.9358 47.647 51.7386 46.5806 51.9796C45.8061 52.1547 45.6371 52.8938 45.5252 53.3828C45.4558 53.6871 45.3837 54.0017 45.2264 54.1845C44.8005 54.6792 43.1928 54.866 41.2393 54.3217C40.9808 54.2496 40.7169 54.1625 40.4574 54.0635C41.0357 53.4824 41.7593 52.5856 41.5261 51.4677C41.3837 50.7853 40.9236 50.1611 40.2636 49.7556C39.638 49.371 38.9206 49.2447 38.2943 49.4084C37.2021 49.6943 36.1517 51.0384 36.3906 52.5105C36.4918 53.1341 36.8454 53.6882 37.3478 54.1667C36.4409 54.5286 35.5021 54.6411 34.7519 54.6569C34.2826 54.6668 33.9103 55.0524 33.9201 55.5183ZM39.3686 51.1905C39.1615 51.0632 38.9359 50.9859 38.7277 51.0403C38.3526 51.1384 37.9954 51.7899 38.0687 52.2422C38.1233 52.5781 38.4279 52.9228 38.8681 53.2399C39.2753 52.8751 39.9557 52.2608 39.8616 51.8103C39.8148 51.5861 39.6259 51.3486 39.3686 51.1905Z" fill="#F5890A"/>
<path d="M21.1161 19.2834C21.3978 19.5921 21.8442 19.7764 22.3101 19.7764C22.7495 19.7764 23.0005 19.5195 23.0318 19.346C23.0674 19.1483 22.7517 18.958 22.4705 18.8551C21.4318 18.4748 21.0763 18.3504 20.7779 18.1572C20.1615 17.7583 19.8439 17.0589 19.9491 16.332C20.0602 15.5624 20.6241 14.9363 21.4204 14.6982C22.6418 14.3329 23.7795 14.9124 24.2591 15.3127C24.6184 15.6125 24.6648 16.1447 24.3628 16.5014C24.0624 16.8563 23.5303 16.9039 23.1712 16.6093C23.1486 16.5917 22.5426 16.1248 21.9106 16.3139C21.7204 16.3707 21.5286 16.5598 21.6732 16.7168C21.8826 16.8074 22.4509 17.0491 23.0588 17.2717C24.4926 17.7968 24.8493 18.8406 24.7052 19.6424C24.5154 20.6979 23.508 21.464 22.3101 21.464C21.3584 21.464 20.464 21.0823 19.8565 20.4167C19.5412 20.0713 19.5677 19.5377 19.9155 19.2248C20.2634 18.9119 20.8008 18.9382 21.1161 19.2834Z" fill="#F5890A"/>
<path d="M27.3649 19.2833C27.6469 19.592 28.0932 19.7764 28.5591 19.7764C28.9986 19.7764 29.2495 19.5195 29.2808 19.3459C29.3164 19.1482 29.0005 18.9579 28.7195 18.8549C27.6804 18.4743 27.3255 18.3505 27.0267 18.1571C26.4104 17.7582 26.0927 17.0588 26.1979 16.3319C26.3091 15.5623 26.873 14.9362 27.6692 14.6981C28.8906 14.3326 30.0284 14.9124 30.508 15.3125C30.8673 15.6124 30.9137 16.1446 30.6117 16.5013C30.3112 16.8562 29.7793 16.9037 29.4199 16.6091C29.3961 16.5904 28.7909 16.1249 28.1594 16.3138C27.9693 16.3706 27.7773 16.5597 27.922 16.7166C28.1314 16.8073 28.6998 17.049 29.3077 17.2716C30.7415 17.7967 31.0983 18.8405 30.9541 19.6424C30.7642 20.6978 29.757 21.4639 28.559 21.4639C27.6074 21.4639 26.7131 21.0822 26.1054 20.4166C25.7901 20.0713 25.8167 19.5377 26.1643 19.2247C26.5123 18.912 27.0499 18.9381 27.3649 19.2833Z" fill="#F5890A"/>
<path d="M54.6188 20.6202C54.6188 21.0861 54.2384 21.4639 53.7689 21.4639C53.2994 21.4639 52.9189 21.0861 52.9189 20.6202V16.268H52.3294C51.8599 16.268 51.4795 15.8902 51.4795 15.4242C51.4795 14.9583 51.8599 14.5805 52.3294 14.5805H55.22C55.6895 14.5805 56.0699 14.9583 56.0699 15.4242C56.0699 15.8902 55.6895 16.268 55.22 16.268H54.6188V20.6202Z" fill="#F5890A"/>
<path fill-rule="evenodd" clip-rule="evenodd" d="M44.8359 18.0222C44.8359 16.1245 43.2807 14.5805 41.369 14.5805C39.4573 14.5805 37.9021 16.1245 37.9021 18.0222C37.9021 19.92 39.4573 21.4639 41.369 21.4639C43.2807 21.4639 44.8359 19.92 44.8359 18.0222ZM41.369 16.268C40.3946 16.268 39.6019 17.0549 39.6019 18.0222C39.6019 18.9895 40.3946 19.7764 41.369 19.7764C42.3434 19.7764 43.1361 18.9895 43.1361 18.0222C43.1361 17.0549 42.3434 16.268 41.369 16.268Z" fill="#F5890A"/>
<path fill-rule="evenodd" clip-rule="evenodd" d="M33.7857 20.6202V19.2026C34.0184 19.2014 34.2473 19.2006 34.3931 19.2006C35.6921 19.2006 36.7489 18.1644 36.7489 16.8906C36.7489 15.6167 35.6921 14.5805 34.3931 14.5805H32.9357C32.5175 14.5718 32.0688 14.9475 32.0858 15.4242V20.6202C32.0858 21.0861 32.4662 21.4639 32.9357 21.4639C33.4052 21.4639 33.7857 21.0861 33.7857 20.6202ZM35.049 16.8906C35.049 16.5531 34.7487 16.268 34.3931 16.268L33.788 16.2681C33.7882 16.3481 33.7885 16.4787 33.7889 16.6274C33.7896 16.9475 33.7904 17.3515 33.7912 17.5151C34.0223 17.5139 34.2484 17.5131 34.3931 17.5131C34.7487 17.5131 35.049 17.2281 35.049 16.8906Z" fill="#F5890A"/>
<path fill-rule="evenodd" clip-rule="evenodd" d="M50.6039 16.7746C50.6039 15.5648 49.5779 14.5805 48.3168 14.5805H46.926H46.9252H46.9244C46.4549 14.5805 46.0745 14.9583 46.0745 15.4242V20.6202C46.0745 21.0861 46.4549 21.4639 46.9244 21.4639C47.3939 21.4639 47.7743 21.0861 47.7743 20.6202V19.6641L49.1161 21.1776C49.284 21.3672 49.5187 21.4639 49.7545 21.4639C49.9539 21.4639 50.1541 21.3946 50.3156 21.2536C50.668 20.9458 50.7022 20.4125 50.3921 20.0627L49.2508 18.7755C50.0472 18.4319 50.6039 17.6651 50.6039 16.7746ZM47.7809 17.2829C47.9878 17.282 48.1868 17.2813 48.3168 17.2813C48.6297 17.2813 48.9042 17.0446 48.9042 16.7747C48.9042 16.5048 48.6298 16.2681 48.3169 16.2681H47.7785C47.7789 16.4756 47.78 17.0859 47.7809 17.2829Z" fill="#F5890A"/>
<path fill-rule="evenodd" clip-rule="evenodd" d="M18.6763 20.3223L16.7287 15.1994C16.7259 15.1917 16.7228 15.1842 16.7198 15.1766C16.5699 14.8145 16.2183 14.5806 15.8239 14.5806H15.8231C15.4285 14.5809 15.0769 14.8155 14.9275 15.1782C14.9271 15.1791 14.9268 15.1801 14.9264 15.181C14.9242 15.1865 14.922 15.1919 14.9199 15.1973L12.9545 20.32C12.7874 20.7555 13.0077 21.243 13.4463 21.4088C13.8745 21.5707 14.3746 21.3618 14.5431 20.9207L14.8242 20.1883H16.8086L17.0861 20.9183C17.2518 21.3543 17.7423 21.5745 18.1814 21.4098C18.6204 21.245 18.8421 20.7582 18.6763 20.3223ZM15.8208 17.5901L15.4715 18.5006H16.1668L15.8208 17.5901Z" fill="#F5890A"/>
<path fill-rule="evenodd" clip-rule="evenodd" d="M8.78012 14.5805C8.36229 14.5709 7.91262 14.9493 7.93019 15.4242V20.6202C7.93019 21.0861 8.31062 21.4639 8.78012 21.4639C9.24962 21.4639 9.63006 21.0861 9.63006 20.6202V19.2026C9.86283 19.2014 10.0917 19.2006 10.2375 19.2006C11.5365 19.2006 12.5934 18.1644 12.5934 16.8906C12.5934 15.6167 11.5365 14.5805 10.2375 14.5805H8.78012ZM10.2375 17.5131C10.5931 17.5131 10.8935 17.2281 10.8935 16.8906C10.8935 16.5531 10.5931 16.268 10.2375 16.2681H9.63244C9.63265 16.3479 9.63293 16.4783 9.63326 16.6267C9.63395 16.9469 9.63483 17.3513 9.63561 17.5151C9.86668 17.5139 10.0928 17.5131 10.2375 17.5131Z" fill="#F5890A"/>
</svg>
