<svg width="64" height="64" viewBox="0 0 64 64" fill="none" xmlns="http://www.w3.org/2000/svg">
<path d="M33 10.7638C33.531 10.2888 34.232 9.99976 35 9.99976H51C55.971 9.99976 60 14.0288 60 18.9998V21.9998C60 22.5518 59.552 22.9998 59 22.9998C58.448 22.9998 58 22.5518 58 21.9998V18.9998C58 16.2078 56.365 13.7968 54 12.6738V15.9998C54 18.2088 52.209 19.9998 50 19.9998H42C39.791 19.9998 38 18.2088 38 15.9998V11.9998H35C34.448 11.9998 34 12.4478 34 12.9998V24.9998C34 25.5518 34.448 25.9998 35 25.9998H35.343C36.669 25.9998 37.941 26.5268 38.879 27.4638C39.935 28.5208 41.479 30.0648 42.536 31.1208C43.098 31.6838 43.861 31.9998 44.657 31.9998H55C56.657 31.9998 58 30.6568 58 28.9998V25.9998C58 25.4478 58.448 24.9998 59 24.9998C59.552 24.9998 60 25.4478 60 25.9998V28.9998C60 31.3508 58.378 33.3228 56.191 33.8568L59.024 48.0188C59.317 49.4878 58.937 51.0118 57.987 52.1698C57.038 53.3278 55.619 53.9998 54.121 53.9998H52.279C49.896 53.9998 47.844 52.3178 47.376 49.9808L45.38 39.9998H42C40.343 39.9998 39 38.6568 39 36.9998V34.9998C39 33.7598 39.752 32.6958 40.825 32.2388L37.464 28.8788C36.902 28.3158 36.139 27.9998 35.343 27.9998H35C33.343 27.9998 32 26.6568 32 24.9998V24.8288C31.687 24.9398 31.351 24.9998 31 24.9998H27C25.343 24.9998 24 23.6568 24 21.9998V19.9998H22C22 20.2558 21.902 20.5118 21.707 20.7068C21.317 21.0968 20.683 21.0968 20.293 20.7068L19.586 19.9998H16C16 20.2558 15.902 20.5118 15.707 20.7068C15.317 21.0968 14.683 21.0968 14.293 20.7068L13.586 19.9998H7C6.204 19.9998 5.441 19.6838 4.879 19.1208C4.316 18.5588 4 17.7958 4 16.9998C4 16.2038 4.316 15.4408 4.879 14.8788C5.441 14.3158 6.204 13.9998 7 13.9998H8C8 13.7438 8.098 13.4878 8.293 13.2928C8.683 12.9028 9.317 12.9028 9.707 13.2928L10.414 13.9998H14C14 13.7438 14.098 13.4878 14.293 13.2928C14.683 12.9028 15.317 12.9028 15.707 13.2928L16.414 13.9998H24V12.9998C24 11.3428 25.343 9.99976 27 9.99976H31C31.768 9.99976 32.469 10.2888 33 10.7638ZM46.22 33.9998L49.337 49.5878C49.618 50.9908 50.849 51.9998 52.279 51.9998H54.121C55.02 51.9998 55.871 51.5968 56.441 50.9018C57.011 50.2068 57.239 49.2928 57.063 48.4118L54.18 33.9998H46.22ZM44.18 33.9998H42C41.448 33.9998 41 34.4478 41 34.9998V36.9998C41 37.5518 41.448 37.9998 42 37.9998H44.98L44.18 33.9998ZM30 11.9998V22.9998H31C31.552 22.9998 32 22.5518 32 21.9998V12.9998C32 12.4478 31.552 11.9998 31 11.9998H30ZM28 11.9998H27C26.448 11.9998 26 12.4478 26 12.9998V21.9998C26 22.5518 26.448 22.9998 27 22.9998H28V11.9998ZM40 11.9998V15.9998C40 17.1048 40.895 17.9998 42 17.9998H50C51.105 17.9998 52 17.1048 52 15.9998V12.0708C51.673 12.0238 51.339 11.9998 51 11.9998H40ZM20.414 17.9998H24V15.9998H18.414L20.414 17.9998ZM14.414 17.9998H17.586L15.586 15.9998H12.414L14.414 17.9998ZM9.586 15.9998H7C6.735 15.9998 6.48 16.1048 6.293 16.2928C6.105 16.4798 6 16.7348 6 16.9998C6 17.2648 6.105 17.5198 6.293 17.7068C6.48 17.8948 6.735 17.9998 7 17.9998H11.586L9.586 15.9998Z" fill="black"/>
<path d="M55 23.9998H51C50.4481 23.9998 50 24.4478 50 24.9998C50 25.5518 50.4481 25.9998 51 25.9998H55C55.5519 25.9998 56 25.5518 56 24.9998C56 24.4478 55.5519 23.9998 55 23.9998Z" fill="#F5890A"/>
<path d="M47 25.9998C47.5523 25.9998 48 25.552 48 24.9998C48 24.4475 47.5523 23.9998 47 23.9998C46.4477 23.9998 46 24.4475 46 24.9998C46 25.552 46.4477 25.9998 47 25.9998Z" fill="#F5890A"/>
</svg>
