<svg width="18" height="20" viewBox="0 0 18 20" fill="none" xmlns="http://www.w3.org/2000/svg">
<path d="M11 0H7C3.14 0 0 3.14003 0 7.00007V10.0001C0 12.7126 1.5625 15.1702 4 16.3277V19.6702C4 19.9602 4.3625 20.1102 4.5675 19.9052L7.4725 17.0027H11C14.86 17.0027 18 13.8626 18 10.0001V7.00007C18 3.14003 14.86 0 11 0ZM13.62 13.1204L12.6075 14.1104C11.5425 15.1529 8.7625 13.9629 6.3125 11.4604C3.8625 8.95534 2.7875 6.15031 3.8 5.1078L4.8125 4.11779C5.185 3.75279 5.8175 3.76029 6.235 4.13279L7.695 5.62531C8.215 6.15781 7.995 7.05032 7.3075 7.25533C6.8325 7.40783 6.51 7.93033 6.6625 8.40534C6.915 9.51535 8.3225 10.9029 9.3725 11.1779C9.845 11.2879 10.375 11.0304 10.54 10.5579C10.7575 9.87535 11.655 9.67285 12.1775 10.2079L13.635 11.6979C14 12.0701 13.995 12.7029 13.62 13.1204ZM9.91 4.75005C9.81 4.75005 9.71 4.75505 9.6125 4.76755C9.43 4.78755 9.265 4.65505 9.245 4.47255C9.225 4.29004 9.3575 4.12504 9.54 4.10504C9.6625 4.09004 9.7875 4.08504 9.91 4.08504C11.7475 4.08504 13.2425 5.58006 13.2425 7.41758C13.2425 7.54008 13.2375 7.66508 13.2225 7.78758C13.2025 7.96758 13.035 8.10259 12.855 8.08259C12.675 8.06259 12.54 7.89508 12.56 7.71508C12.57 7.61758 12.5775 7.51758 12.5775 7.41758C12.5775 5.94756 11.38 4.75005 9.91 4.75005ZM11.91 7.41758C11.91 7.60008 11.7575 7.75008 11.575 7.75008C11.395 7.75008 11.2425 7.60008 11.2425 7.41758C11.2425 6.68257 10.645 6.08506 9.91 6.08506C9.725 6.08506 9.575 5.93506 9.575 5.75006C9.575 5.56756 9.725 5.41756 9.91 5.41756C11.0125 5.41756 11.91 6.31507 11.91 7.41758ZM14.4525 8.49509C14.41 8.67509 14.2175 8.78759 14.04 8.74009C13.8675 8.69259 13.7625 8.51259 13.8025 8.34009C13.875 8.04008 13.91 7.73008 13.91 7.41758C13.91 5.21255 12.115 3.41754 9.91 3.41754C9.8075 3.41754 9.7025 3.42004 9.6 3.43004C9.4175 3.44254 9.2575 3.30503 9.2425 3.12253C9.23 2.93753 9.3675 2.77753 9.55 2.76503C9.67 2.75503 9.79 2.75003 9.91 2.75003C12.4825 2.75003 14.5775 4.84505 14.5775 7.41758C14.5775 7.78008 14.535 8.14259 14.4525 8.49509Z" fill="#665CAC"/>
</svg>
