<svg width="18" height="18" viewBox="0 0 18 18" fill="none" xmlns="http://www.w3.org/2000/svg">
<g clip-path="url(#clip0_373_7326)">
<path d="M17.9046 13.14C17.8828 13.093 17.8625 13.0541 17.8436 13.0228C17.5313 12.4604 16.9345 11.77 16.0536 10.9515L16.035 10.9328L16.0256 10.9236L16.0162 10.9142H16.0068C15.6069 10.533 15.3538 10.2768 15.2477 10.1455C15.0537 9.89562 15.0103 9.64263 15.1163 9.3863C15.1912 9.19263 15.4726 8.78363 15.9598 8.15873C16.216 7.82756 16.419 7.56214 16.5689 7.36216C17.6499 5.92507 18.1185 5.00675 17.9747 4.60684L17.9189 4.51339C17.8814 4.45713 17.7845 4.40566 17.6285 4.35872C17.4721 4.31188 17.2723 4.30413 17.0285 4.33535L14.3295 4.35399C14.2858 4.3385 14.2234 4.33994 14.142 4.35872C14.0608 4.37749 14.0201 4.38691 14.0201 4.38691L13.9732 4.41038L13.9359 4.43858C13.9046 4.45723 13.8703 4.49002 13.8327 4.53689C13.7954 4.5836 13.7642 4.63842 13.7392 4.70089C13.4454 5.45689 13.1113 6.15977 12.7363 6.80952C12.5051 7.19695 12.2928 7.53272 12.0989 7.81702C11.9053 8.10122 11.7428 8.31062 11.6117 8.44484C11.4804 8.57919 11.3619 8.68683 11.2555 8.76814C11.1493 8.84948 11.0682 8.88384 11.012 8.87127C10.9557 8.8587 10.9027 8.84623 10.8525 8.83375C10.7651 8.77749 10.6948 8.70097 10.6418 8.60414C10.5885 8.50731 10.5527 8.38543 10.5339 8.2386C10.5153 8.09167 10.5043 7.9653 10.5011 7.85904C10.4982 7.75292 10.4995 7.60281 10.5059 7.40914C10.5124 7.21537 10.5153 7.08426 10.5153 7.01553C10.5153 6.77807 10.5199 6.52036 10.5292 6.24233C10.5387 5.9643 10.5463 5.74401 10.5527 5.58172C10.5591 5.41927 10.562 5.2474 10.562 5.0662C10.562 4.885 10.551 4.7429 10.5292 4.63977C10.5077 4.53676 10.4746 4.43678 10.4311 4.33984C10.3872 4.24301 10.3231 4.1681 10.2389 4.11492C10.1546 4.06181 10.0498 4.01966 9.92498 3.98835C9.59381 3.91341 9.1721 3.87287 8.65967 3.86657C7.49762 3.85409 6.75094 3.92913 6.4198 4.09158C6.2886 4.16022 6.16987 4.254 6.06371 4.37263C5.95122 4.51014 5.93553 4.58518 6.01674 4.59752C6.39167 4.65369 6.6571 4.78804 6.81331 5.00045L6.86961 5.11301C6.9134 5.19422 6.95712 5.33799 7.00088 5.54414C7.04457 5.75028 7.07276 5.97832 7.08517 6.22812C7.11636 6.68429 7.11636 7.07478 7.08517 7.39962C7.05389 7.72459 7.02435 7.97757 6.99615 8.15877C6.96795 8.33996 6.92581 8.48679 6.86961 8.59922C6.81331 8.71168 6.77586 8.78041 6.75708 8.80536C6.73834 8.83031 6.72272 8.84603 6.71031 8.8522C6.6291 8.88332 6.54464 8.89917 6.45722 8.89917C6.36968 8.89917 6.26352 8.85538 6.13859 8.76787C6.01369 8.68036 5.88406 8.56015 5.74971 8.40706C5.61535 8.25393 5.46383 8.03994 5.29508 7.76506C5.12645 7.49018 4.9515 7.16531 4.7703 6.79045L4.62039 6.51859C4.52667 6.34369 4.39865 6.08904 4.2362 5.75484C4.07365 5.42052 3.92997 5.09712 3.80507 4.78472C3.75515 4.65352 3.68014 4.55363 3.58019 4.4849L3.53328 4.4567C3.5021 4.43175 3.45204 4.40526 3.38337 4.37703C3.3146 4.34884 3.24284 4.32862 3.1678 4.31618L0.599915 4.33482C0.337509 4.33482 0.159465 4.39427 0.0657162 4.513L0.0281969 4.56916C0.00945368 4.60044 0 4.6504 0 4.71917C0 4.78791 0.0187432 4.87227 0.0562625 4.97216C0.431127 5.85319 0.838784 6.70287 1.27923 7.52133C1.71968 8.3398 2.10243 8.99909 2.42723 9.49863C2.7521 9.99852 3.08325 10.4703 3.42066 10.9138C3.75807 11.3574 3.98141 11.6417 4.09069 11.7666C4.20009 11.8918 4.28603 11.9853 4.3485 12.0478L4.58284 12.2727C4.73278 12.4226 4.95297 12.6023 5.24351 12.8115C5.53411 13.0209 5.85583 13.2271 6.20884 13.4303C6.5619 13.6332 6.97265 13.7987 7.44129 13.9268C7.90987 14.055 8.36595 14.1064 8.80958 14.0816H9.88737C10.106 14.0627 10.2716 13.994 10.3841 13.8754L10.4214 13.8284C10.4465 13.7911 10.4699 13.7332 10.4916 13.6552C10.5135 13.5771 10.5244 13.4911 10.5244 13.3975C10.518 13.1289 10.5385 12.8868 10.5852 12.6713C10.6319 12.4558 10.6852 12.2933 10.7447 12.1839C10.8042 12.0746 10.8714 11.9824 10.9461 11.9076C11.0211 11.8327 11.0744 11.7873 11.1057 11.7716C11.1369 11.7559 11.1617 11.7453 11.1805 11.7389C11.3304 11.6889 11.5069 11.7373 11.7101 11.8842C11.9132 12.0311 12.1037 12.2124 12.2819 12.4278C12.4599 12.6435 12.6739 12.8854 12.9238 13.1541C13.1738 13.4228 13.3924 13.6225 13.5798 13.7539L13.7672 13.8664C13.8923 13.9414 14.0547 14.0101 14.2547 14.0726C14.4543 14.135 14.6292 14.1507 14.7794 14.1194L17.1785 14.082C17.4158 14.082 17.6004 14.0427 17.7314 13.9648C17.8626 13.8867 17.9406 13.8006 17.9657 13.7071C17.9908 13.6134 17.9922 13.5071 17.9705 13.3883C17.9483 13.2697 17.9264 13.1868 17.9046 13.14Z" fill="white"/>
</g>
<defs>
<clipPath id="clip0_373_7326">
<rect width="18" height="18" fill="white"/>
</clipPath>
</defs>
</svg>
