<svg width="18" height="18" viewBox="0 0 18 18" fill="none" xmlns="http://www.w3.org/2000/svg">
<g clip-path="url(#clip0_373_7335)">
<path d="M17.6291 4.67223C17.4216 3.90113 16.8137 3.29332 16.0427 3.08568C14.6341 2.7002 8.99983 2.7002 8.99983 2.7002C8.99983 2.7002 3.36565 2.7002 1.95707 3.07098C1.20094 3.27849 0.578153 3.90127 0.37065 4.67223C0 6.08067 0 9.00165 0 9.00165C0 9.00165 0 11.9373 0.37065 13.3311C0.57829 14.102 1.18611 14.71 1.95721 14.9176C3.38048 15.3031 8.99996 15.3031 8.99996 15.3031C8.99996 15.3031 14.6341 15.3031 16.0427 14.9323C16.8138 14.7248 17.4216 14.1169 17.6293 13.3459C17.9999 11.9373 17.9999 9.01648 17.9999 9.01648C17.9999 9.01648 18.0148 6.08067 17.6291 4.67223Z" fill="white"/>
<path d="M7.20605 11.7003L11.8913 9.00174L7.20605 6.30322V11.7003Z" fill="#F5890A"/>
</g>
<defs>
<clipPath id="clip0_373_7335">
<rect width="18" height="18" fill="white"/>
</clipPath>
</defs>
</svg>
