<svg width="64" height="64" viewBox="0 0 64 64" fill="none" xmlns="http://www.w3.org/2000/svg">
<path d="M34.588 23.8288L26.291 15.5318L23.2437 18.5791L31.5407 26.8761L34.588 23.8288Z" fill="#CFD8DC"/>
<path d="M60.8045 19.4199C60.811 26.3826 55.7358 32.3081 48.8549 33.3718C41.974 34.4354 35.3465 30.3189 33.2502 23.6793C31.154 17.0398 34.2164 9.86401 40.4605 6.78375C46.7047 3.70349 54.2624 5.6407 58.2551 11.3448C59.913 13.7114 60.803 16.5304 60.8045 19.4199Z" fill="#CFD8DC"/>
<path d="M59.1208 16.2198C59.1226 22.3709 55.1332 27.812 49.2663 29.6602C43.3995 31.5084 37.0118 29.3363 33.4877 24.2949C31.0367 17.648 33.9017 10.2146 40.1798 6.93226C46.458 3.64987 54.197 5.53907 58.2567 11.3449C58.8289 12.9065 59.1214 14.5567 59.1208 16.2198Z" fill="#F4F4F4"/>
<path d="M53.6694 36.4126C49.3861 38.1634 44.598 38.2244 40.2715 36.5833L48.8479 28.0069H48.8585L49.1359 27.7189L54.3307 32.9137C54.8402 33.415 55.0662 34.1373 54.9335 34.8396C54.8007 35.542 54.3267 36.1319 53.6694 36.4126Z" fill="#C26C08"/>
<path d="M50.9699 34.2899C47.9461 35.5287 44.6436 35.9269 41.4121 35.442L48.8471 28.007H48.8577L50.5751 29.7245L51.6312 30.7911C52.1407 31.2924 52.3667 32.0147 52.2339 32.717C52.1013 33.4193 51.6273 34.0092 50.9699 34.2899Z" fill="#F5890A"/>
<path d="M49.1881 27.6656L37.337 39.5275L26.6699 28.8604L38.5211 17.0093C39.9199 15.606 41.8198 14.8172 43.8013 14.8172C45.7827 14.8172 47.6827 15.606 49.0815 17.0093L49.1881 17.1053C49.5153 17.4331 49.8115 17.7901 50.0736 18.172C52.106 21.136 51.7336 25.1284 49.1881 27.6656Z" fill="#37474F"/>
<path d="M47.9511 24.4121L36.1 36.2633L27.6836 27.8469L38.5214 17.0091C39.9202 15.6057 41.8202 14.817 43.8017 14.817C45.7831 14.817 47.6831 15.6057 49.0819 17.0091L49.1885 17.1051C49.5157 17.4328 49.8119 17.7898 50.0739 18.1717C50.3703 20.4684 49.5864 22.7727 47.9511 24.4121Z" fill="#607D8B"/>
<path d="M38.1806 42.9409L13.5715 62.2271C12.2807 63.2504 10.4283 63.1449 9.26198 61.9818L4.21639 56.9256C3.99375 56.7005 3.8035 56.4457 3.65099 56.1681C3.04109 55.0296 3.16684 53.6374 3.971 52.6266L23.2465 28.0176C23.8371 27.3474 24.6786 26.9511 25.5716 26.9229C26.4645 26.8946 27.3294 27.2368 27.9613 27.8682L36.6977 36.6046C36.6977 36.6152 36.7083 36.6152 36.7083 36.6259L38.3297 38.2366C38.9588 38.8676 39.2995 39.7304 39.2713 40.621C39.243 41.5116 38.8484 42.351 38.1806 42.9409Z" fill="#C26C08"/>
<path d="M35.983 40.5515L11.3739 59.8377C10.0871 60.8613 8.23706 60.7557 7.07514 59.5923L3.65099 56.1681C3.04109 55.0296 3.16684 53.6374 3.971 52.6266L23.2465 28.0176C23.8371 27.3474 24.6786 26.9511 25.5716 26.9229C26.4645 26.8946 27.3294 27.2368 27.9613 27.8682L36.6977 36.6046C36.6977 36.6152 36.7083 36.6152 36.7083 36.6259C37.3969 37.9457 37.0977 39.5649 35.983 40.5515Z" fill="#F5890A"/>
<path d="M35.4289 35.3352L30.8633 39.9114L26.2871 35.3352L30.8633 30.7698L35.4289 35.3352Z" fill="#CFD8DC"/>
<path d="M30.8631 39.9114L27.023 43.7409C25.7737 44.989 23.7495 44.989 22.5001 43.7409L22.4575 43.6983C21.2095 42.4448 21.2095 40.4183 22.4575 39.1647L26.2871 35.3352L30.8631 39.9114Z" fill="#CFD8DC"/>
<path d="M43.0453 25.3063C44.2354 25.3063 45.2001 24.3416 45.2001 23.1515C45.2001 21.9615 44.2354 20.9968 43.0453 20.9968C41.8553 20.9968 40.8906 21.9615 40.8906 23.1515C40.8906 24.3416 41.8553 25.3063 43.0453 25.3063Z" fill="#F4F4F4"/>
<path d="M28.5701 13.2436L20.9538 20.8706L18.7991 18.4279L17.391 16.8278L15.9403 15.1851L14.5323 13.5957L13.0922 11.953L11.6734 10.3529L9.5293 7.92079L15.6203 1.81915L28.5701 13.2436Z" fill="#607D8B"/>
<path d="M10.3073 55.9161L10.2772 55.886C9.44405 55.0528 9.44405 53.702 10.2772 52.8688L16.402 46.7441C17.2351 45.9109 18.5859 45.9109 19.4191 46.7441L19.4492 46.7742C20.2824 47.6074 20.2824 48.9582 19.4492 49.7913L13.3245 55.9161C12.4913 56.7492 11.1405 56.7492 10.3073 55.9161Z" fill="#CFD8DC"/>
<path d="M53.2683 32.9163C52.7773 32.917 52.3492 32.5823 52.2314 32.1056C52.1137 31.6289 52.3366 31.1333 52.7715 30.9053C58.6998 27.7852 61.2663 20.6561 58.6871 14.4732C56.1078 8.29035 49.2359 5.09847 42.8478 7.1163C36.4596 9.13414 32.6678 15.6942 34.1082 22.2368C34.1905 22.6092 34.0678 22.9974 33.7861 23.2546C33.5045 23.5119 33.107 23.5991 32.7435 23.4835C32.38 23.3679 32.1059 23.0669 32.0248 22.6942C30.3576 15.0808 34.7743 7.45319 42.2072 5.10897C49.6402 2.76474 57.6337 6.47865 60.6358 13.6711C63.6379 20.8635 60.6569 29.1581 53.7632 32.7942C53.6106 32.8744 53.4407 32.9164 53.2683 32.9163Z" fill="black"/>
<path d="M38.4749 39.4516C38.1919 39.4519 37.9205 39.3394 37.7207 39.139L27.0567 28.4756C26.8565 28.2756 26.7441 28.0043 26.7441 27.7214C26.7441 27.4385 26.8565 27.1673 27.0567 26.9673L37.7727 16.2517C39.3731 14.6512 41.5435 13.7521 43.8069 13.7521C46.0701 13.7521 48.2407 14.6512 49.841 16.2517L49.9463 16.3574C51.5461 17.9578 52.4446 20.1281 52.4442 22.3909C52.4439 24.6538 51.5445 26.8238 49.9441 28.4236L39.2292 39.1392C39.0293 39.3394 38.7579 39.4518 38.4749 39.4516ZM29.3194 27.7213L38.475 36.8764L48.4358 26.915C49.6364 25.7148 50.3109 24.0869 50.3109 22.3893C50.3109 20.6917 49.6364 19.0638 48.4358 17.8636L48.3306 17.7579C45.8307 15.2604 41.7799 15.2614 39.2812 17.76L29.3194 27.7213Z" fill="black"/>
<path d="M11.5545 63.9999C10.4133 64.0004 9.31873 63.5467 8.5127 62.739L3.45723 57.6835C1.90842 56.137 1.77066 53.673 3.13747 51.9636L22.4112 27.3577C23.2001 26.4446 24.3335 25.9009 25.5394 25.8572C26.7252 25.8203 27.8735 26.2751 28.7124 27.114L39.0816 37.4832C39.921 38.3221 40.3761 39.4708 40.3389 40.6569C40.3018 41.8431 39.7759 42.961 38.8857 43.746L14.2243 63.065C13.4665 63.6712 12.5249 64.0009 11.5545 63.9999ZM4.96567 56.1751L10.0211 61.2306C10.7999 62.0104 12.0406 62.0796 12.9015 61.3916L37.5232 42.1063C37.9511 41.7044 38.1978 41.1463 38.2072 40.5594C38.2166 39.9725 37.9878 39.4069 37.5732 38.9915L27.204 28.6223C26.7815 28.1998 26.2032 27.9708 25.6059 27.9895C25.0088 28.0083 24.4459 28.2732 24.0507 28.7213L4.81041 53.287C4.11726 54.1481 4.18426 55.3932 4.96567 56.1751Z" fill="black"/>
<path d="M24.7635 45.7408C23.632 45.7428 22.5464 45.2939 21.7468 44.4934L21.702 44.4486C20.0394 42.7808 20.0394 40.0823 21.702 38.4145L30.1035 30.0136C30.3035 29.8135 30.5748 29.7011 30.8576 29.7011C31.1405 29.7011 31.4119 29.8135 31.6118 30.0136L36.1819 34.5842C36.382 34.7842 36.4944 35.0555 36.4944 35.3384C36.4944 35.6212 36.382 35.8925 36.1819 36.0925L27.7815 44.4934C26.9814 45.2939 25.8953 45.7428 24.7635 45.7408ZM23.2103 42.9402L23.2551 42.9849C24.0892 43.8162 25.4387 43.8162 26.273 42.9849L33.9192 35.3382L30.8575 32.2761L23.2103 39.9228C22.379 40.7568 22.379 42.1061 23.2103 42.9402Z" fill="black"/>
<path d="M30.8592 40.975C30.5761 40.9754 30.3048 40.8629 30.105 40.6625L25.5351 36.0925C25.2655 35.8232 25.1604 35.4304 25.259 35.0623C25.3577 34.6942 25.6452 34.4067 26.0132 34.3081C26.3812 34.2095 26.774 34.3147 27.0435 34.5841L31.6134 39.1542C31.9185 39.4593 32.0096 39.918 31.8446 40.3165C31.6794 40.715 31.2905 40.9749 30.8592 40.975Z" fill="black"/>
<path d="M46.7492 38.8431C44.4068 38.8424 42.0838 38.416 39.8937 37.5847C39.5373 37.4496 39.2802 37.1347 39.2189 36.7585C39.1578 36.3824 39.3019 36.0021 39.5971 35.7611C39.8922 35.5201 40.2936 35.4547 40.65 35.5899C44.7235 37.1382 49.2335 37.0792 53.2651 35.4247C53.5834 35.2942 53.8134 35.0108 53.8755 34.6726C53.9504 34.3079 53.8373 33.9299 53.5745 33.6663L48.3847 28.4754C47.9682 28.0589 47.9682 27.3835 48.3847 26.967C48.8012 26.5505 49.4766 26.5505 49.8931 26.967L55.083 32.1573C55.852 32.9255 56.1841 34.0283 55.9674 35.0933C55.7626 36.1313 55.051 36.9974 54.0726 37.3997C51.7482 38.3517 49.2608 38.8419 46.7492 38.8431Z" fill="black"/>
<path d="M43.0453 26.3717C41.7427 26.3719 40.5683 25.5873 40.0697 24.3839C39.571 23.1806 39.8463 21.7953 40.7671 20.874L40.7682 20.8735V20.873C42.043 19.6561 44.0493 19.6566 45.3236 20.8741C46.2445 21.7954 46.5198 23.1807 46.0212 24.384C45.5223 25.5875 44.3478 26.372 43.0453 26.3717ZM43.0453 22.0633C42.757 22.0623 42.4805 22.1769 42.2775 22.3816L42.2764 22.3827C42.0722 22.5863 41.9576 22.8628 41.9576 23.1512C41.9576 23.4396 42.0722 23.716 42.2764 23.9198C42.7064 24.3309 43.3837 24.3311 43.8139 23.9203C44.1247 23.6091 44.2175 23.1415 44.0493 22.7352C43.8812 22.3289 43.4849 22.0638 43.0453 22.0633Z" fill="black"/>
<path d="M30.096 26.503C29.8132 26.503 29.5418 26.3906 29.3419 26.1905L22.4863 19.3349C22.2862 19.1349 22.1738 18.8637 22.1738 18.5808C22.1738 18.2979 22.2862 18.0266 22.4863 17.8266L25.5333 14.7796C25.7334 14.5795 26.0046 14.4671 26.2875 14.4671C26.5704 14.4671 26.8418 14.5795 27.0417 14.7796L33.8961 21.6352C34.0962 21.8352 34.2086 22.1064 34.2086 22.3893C34.2086 22.6722 34.0962 22.9435 33.8961 23.1435L30.8501 26.1905C30.6503 26.3906 30.3789 26.503 30.096 26.503ZM24.7489 18.5808L30.096 23.9274L31.6336 22.3893L26.2875 17.0422L24.7489 18.5808Z" fill="black"/>
<path d="M20.9551 21.9325L20.9217 21.932C20.6275 21.9227 20.3499 21.7923 20.1551 21.5716L8.72957 8.62322C8.35705 8.20083 8.37705 7.56142 8.77545 7.16328L14.8695 1.06927C15.2679 0.670878 15.9073 0.650878 16.3299 1.02339L29.2783 12.4489C29.4986 12.644 29.6286 12.9215 29.6377 13.2157C29.6468 13.5098 29.5341 13.7947 29.3262 14.0031L21.7093 21.62C21.5094 21.8202 21.2381 21.9325 20.9551 21.9325ZM10.9922 7.96319L21.0041 19.3084L27.0147 13.2973L15.6695 3.28637L10.9922 7.96319Z" fill="black"/>
<path d="M19.4337 23.456C19.0023 23.4559 18.6134 23.196 18.4484 22.7975C18.2834 22.399 18.3745 21.9402 18.6795 21.6352L29.3435 10.9712C29.613 10.7017 30.0056 10.5966 30.3738 10.6952C30.7418 10.7938 31.0293 11.0813 31.1279 11.4494C31.2266 11.8174 31.1213 12.2101 30.8519 12.4797L20.188 23.1436C19.9881 23.3439 19.7167 23.4564 19.4337 23.456Z" fill="black"/>
<path d="M8.76961 9.74552C8.33822 9.74539 7.94933 9.4855 7.78432 9.08699C7.61931 8.68847 7.71044 8.2297 8.01546 7.92469L15.6324 0.307736C16.0497 -0.104282 16.7213 -0.102282 17.1361 0.312486C17.5507 0.727129 17.5529 1.39878 17.1408 1.81618L9.52377 9.433C9.32401 9.63339 9.0525 9.74589 8.76961 9.74552Z" fill="black"/>
<path d="M18.0997 18.6954C17.6683 18.6953 17.2794 18.4354 17.1144 18.0369C16.9494 17.6384 17.0405 17.1796 17.3455 16.8746L21.726 12.4946C22.1425 12.0781 22.8179 12.0781 23.2344 12.4946C23.6509 12.9112 23.6509 13.5866 23.2344 14.0031L18.854 18.383C18.6541 18.5833 18.3827 18.6958 18.0997 18.6954Z" fill="black"/>
<path d="M15.2423 15.4583C14.8109 15.4581 14.422 15.1983 14.257 14.7997C14.092 14.4012 14.1831 13.9425 14.4881 13.6374L18.6779 9.44814C18.9474 9.17863 19.3401 9.0735 19.7082 9.17213C20.0762 9.27076 20.3637 9.55827 20.4624 9.92628C20.561 10.2943 20.4557 10.6871 20.1864 10.9566L15.9966 15.1459C15.7967 15.3461 15.5253 15.4586 15.2423 15.4583Z" fill="black"/>
<path d="M12.3868 12.2211C11.9554 12.221 11.5665 11.9611 11.4015 11.5626C11.2365 11.1641 11.3276 10.7053 11.6326 10.4003L15.6317 6.40126C16.0482 5.98474 16.7236 5.98474 17.1401 6.40126C17.5566 6.81777 17.5566 7.49318 17.1401 7.9097L13.1411 11.9087C12.9412 12.109 12.6698 12.2215 12.3868 12.2211Z" fill="black"/>
<path d="M11.8162 57.6086C10.9676 57.6099 10.1536 57.2736 9.55359 56.6737L9.52234 56.6429C8.27641 55.392 8.27641 53.3691 9.52234 52.1182L15.6465 45.9944C16.9068 44.7504 18.935 44.7569 20.1872 46.0092C21.4393 47.2614 21.446 49.2896 20.2019 50.5499L14.0788 56.673C13.4789 57.2732 12.6647 57.6098 11.8162 57.6086ZM11.0297 55.1328L11.0557 55.1578C11.2554 55.36 11.5274 55.4742 11.8117 55.4755C12.0959 55.4766 12.3688 55.3646 12.5703 55.1641L18.6935 49.0415C19.1044 48.6143 19.0977 47.9368 18.6786 47.5176C18.2595 47.0985 17.5821 47.0919 17.1548 47.5028L11.0318 53.626C10.617 54.0424 10.6161 54.7153 11.0297 55.1328Z" fill="black"/>
</svg>
