<svg width="184" height="38" viewBox="0 0 184 38" fill="none" xmlns="http://www.w3.org/2000/svg">
<path d="M88.3334 18.3315V37.6685H84.2116V21.9779H76.1217V37.6685H72V18.3315H88.3334Z" fill="black"/>
<path d="M100.533 18.3315C102.12 18.3315 103.494 18.6169 104.655 19.1878C105.832 19.7587 106.737 20.5691 107.368 21.6188C108 22.6685 108.315 23.9116 108.315 25.3481C108.315 26.7661 108 28.0092 107.368 29.0773C106.737 30.1271 105.832 30.9374 104.655 31.5083C103.494 32.0608 102.12 32.337 100.533 32.337H96.9231V37.6685H92.7757V18.3315H100.533ZM100.302 28.6906C101.548 28.6906 102.496 28.4052 103.144 27.8343C103.793 27.2449 104.117 26.4162 104.117 25.3481C104.117 24.2615 103.793 23.4328 103.144 22.8619C102.496 22.2726 101.548 21.9779 100.302 21.9779H96.9231V28.6906H100.302Z" fill="black"/>
<path d="M119.852 38C117.992 38 116.311 37.5672 114.809 36.7017C113.324 35.8361 112.155 34.6483 111.301 33.1381C110.465 31.6096 110.047 29.8969 110.047 28C110.047 26.1031 110.465 24.3996 111.301 22.8895C112.155 21.361 113.324 20.1639 114.809 19.2983C116.311 18.4328 117.992 18 119.852 18C121.712 18 123.385 18.4328 124.87 19.2983C126.355 20.1639 127.524 21.361 128.377 22.8895C129.231 24.3996 129.657 26.1031 129.657 28C129.657 29.8969 129.231 31.6096 128.377 33.1381C127.524 34.6483 126.355 35.8361 124.87 36.7017C123.385 37.5672 121.712 38 119.852 38ZM119.852 34.1878C120.91 34.1878 121.866 33.93 122.719 33.4144C123.573 32.8803 124.238 32.1436 124.716 31.2044C125.211 30.2652 125.459 29.1971 125.459 28C125.459 26.8029 125.211 25.7348 124.716 24.7956C124.238 23.8564 123.573 23.1289 122.719 22.6133C121.866 22.0792 120.91 21.8122 119.852 21.8122C118.794 21.8122 117.838 22.0792 116.985 22.6133C116.131 23.1289 115.457 23.8564 114.962 24.7956C114.484 25.7348 114.246 26.8029 114.246 28C114.246 29.1971 114.484 30.2652 114.962 31.2044C115.457 32.1436 116.131 32.8803 116.985 33.4144C117.838 33.93 118.794 34.1878 119.852 34.1878Z" fill="black"/>
<path d="M139.79 29.8785H136.923V37.6685H132.801V18.3315H136.923V26.1492H139.892L144.603 18.3315H148.981L143.118 27.6685L149.16 37.6685H144.449L139.79 29.8785Z" fill="black"/>
<path d="M162.888 33.5249H154.567L152.98 37.6685H148.73L156.718 18.3315H160.814L168.827 37.6685H164.475L162.888 33.5249ZM161.582 30.1271L158.74 22.7238L155.899 30.1271H161.582Z" fill="black"/>
<path d="M184 21.9779H178.265V37.6685H174.169V21.9779H168.46V18.3315H184V21.9779Z" fill="black"/>
<path d="M0 14.5139V38H18.0279V13H22V23H38V13.1944L20 0L0 14.5139Z" fill="black"/>
<path d="M22 27V38H60V14.5139L40 0L33.4266 4.83796L42 11.2121V34H38V27H22Z" fill="#F5890A"/>
<path d="M83.1203 0V12H80.3143V7.08H74.8061V12H72V0H74.8061V4.73143H80.3143V0H83.1203Z" fill="black"/>
<path d="M94.3686 9.42857H88.7391L87.6652 12H84.7898L90.1941 0H92.9655L98.3871 12H95.4425L94.3686 9.42857ZM93.4852 7.32L91.5625 2.72571L89.6398 7.32H93.4852Z" fill="black"/>
<path d="M116 0V12H99.995V0H102.784V9.73714H106.612V0H109.401V9.73714H113.211V0H116Z" fill="black"/>
</svg>
