<svg width="40" height="40" viewBox="0 0 40 40" fill="none" xmlns="http://www.w3.org/2000/svg">
<g clip-path="url(#clip0_372_7043)">
<path d="M15.9999 17.3334V18.0134C15.9992 18.3739 15.7071 18.6661 15.3465 18.6667C14.1548 18.6646 13.1067 19.4541 12.7799 20.6001L12.7532 20.6935C12.7532 20.6935 11.4599 21.4268 11.3332 20.6668C11.2202 19.9883 10.5565 15.1668 10.6666 14.6668C11.2266 12.0935 16.6666 12.0002 16.6666 12.0002V13.3335C14.6665 14.6667 15.9999 17.3334 15.9999 17.3334Z" fill="#9CA0A2"/>
<path d="M35.333 6.6667V8.00006C35.3319 8.3678 35.0341 8.66561 34.6664 8.6667H31.333V6.00006H34.6664C35.034 6.00115 35.3319 6.29897 35.333 6.6667Z" fill="#E6E6E6"/>
<path d="M32.6666 6.05341V8.61341C32.6812 8.9552 32.4613 9.26301 32.1333 9.36005L29.3334 10H28V4.66669H29.3334L32.1334 5.30669C32.4613 5.4038 32.6812 5.71161 32.6666 6.05341Z" fill="#E6E6E6"/>
<path d="M29.3337 4.66672V10.0001C29.3315 10.7355 28.7358 11.3312 28.0004 11.3334H22.667V3.33344H28.0004C28.7358 3.33554 29.3315 3.93125 29.3337 4.66672Z" fill="#9CA0A2"/>
<path d="M24.0004 4.00005V10.6667C23.9982 11.4022 23.4025 11.9979 22.667 12H20.667C20.2993 11.999 20.0014 11.7011 20.0004 11.3334L18.667 12V2.66669L20.0004 3.33348V3.33341C19.9986 3.15606 20.0682 2.98544 20.1936 2.86005C20.319 2.73466 20.4896 2.66497 20.667 2.66677H22.667C23.4025 2.66887 23.9982 3.26458 24.0004 4.00005Z" fill="#9CA0A2"/>
<path d="M20.1936 2.86003C20.0696 2.98644 20.0003 3.15636 20.0002 3.33339V12C19.998 12.7355 19.4023 13.3312 18.6668 13.3334H15.3335C15.3335 13.3334 12.3135 13.6667 11.7535 16.24C11.5201 17.3 11.7001 18.7267 12.6668 20.6667L12.7535 20.6933L10.7335 27.7667C10.6876 27.9225 10.6651 28.0842 10.6668 28.2467C10.668 29.2146 11.4523 29.9989 12.4202 30L15.3336 30.6667L3.33356 31.3333V30L4.27356 29.06C4.5252 28.8092 4.66676 28.4686 4.66692 28.1134V25.3334C4.73676 22.2761 5.22801 19.2431 6.12691 16.32C6.15324 16.2282 6.17332 16.1346 6.18692 16.04C6.3141 15.1557 5.83731 14.2948 5.02027 13.9334L1.85363 12.5267C1.1316 12.2061 0.666447 11.4901 0.666994 10.7001V4.00003C0.666291 3.4694 0.87676 2.96026 1.25199 2.58503C1.62723 2.20979 2.13637 1.99933 2.66699 2.00003H7.17363C7.70371 1.99847 8.21168 1.78761 8.58699 1.41339L8.74699 1.25339C9.1223 0.879092 9.63027 0.668232 10.1604 0.666748H16.1137C16.4757 0.667061 16.8307 0.766123 17.1404 0.953389L20.0002 2.66667L20.1936 2.86003Z" fill="#DB7A09"/>
<path d="M22.667 35.0934V37.2867C22.6685 37.732 22.4454 38.1482 22.0736 38.3934L21.0003 39.1067C20.7821 39.2551 20.5241 39.3341 20.2603 39.3334H5.33371C4.62645 39.3335 3.94801 39.0527 3.44785 38.5525C2.9477 38.0523 2.66684 37.374 2.66699 36.6666V31.22C2.66715 30.8647 2.80871 30.5241 3.06035 30.2734L3.33371 30H16.9337C18.4397 29.9991 19.8531 30.7269 20.7271 31.9534L22.4204 34.32C22.5809 34.5459 22.6671 34.8162 22.667 35.0934Z" fill="black"/>
<path d="M22.667 35.0934V36H2.66699V31.22C2.66715 30.8647 2.80871 30.5241 3.06035 30.2734L3.33371 30H16.9337C18.4397 29.9991 19.8531 30.7269 20.7271 31.9534L22.4204 34.32C22.5809 34.5459 22.6671 34.8162 22.667 35.0934Z" fill="#DB7A09"/>
<path d="M18.1936 2.86003C18.0697 2.98644 18.0003 3.15636 18.0002 3.33339V12C17.998 12.7355 17.4023 13.3312 16.6668 13.3334H13.3335C13.3335 13.3334 10.3135 13.6667 9.75348 16.24C9.52012 17.3 9.70012 18.7267 10.6668 20.6667L10.7535 20.6933L8.73348 27.7667C8.68762 27.9225 8.66512 28.0842 8.66684 28.2467C8.66801 29.2146 9.45231 29.9989 10.4202 30L13.3336 30.6667L3.33356 31.22V30L4.27356 29.06C4.5252 28.8092 4.66676 28.4686 4.66692 28.1134V25.3334C4.73676 22.2761 5.22801 19.2431 6.12692 16.32C6.15324 16.2282 6.17332 16.1346 6.18692 16.04C6.3141 15.1557 5.83731 14.2948 5.02028 13.9334L1.85363 12.5267C1.1316 12.2061 0.666447 11.4901 0.666994 10.7001V4.00003C0.666291 3.4694 0.87676 2.96026 1.25199 2.58503C1.62723 2.20979 2.13637 1.99933 2.66699 2.00003H7.17364C7.70371 1.99847 8.21168 1.78761 8.58699 1.41339L8.74699 1.25339C9.12231 0.879092 9.63028 0.668232 10.1604 0.666748H14.1137C14.4757 0.667061 14.8307 0.766123 15.1404 0.953389L18.0002 2.66667L18.1936 2.86003Z" fill="#F5890A"/>
<path d="M20.6673 35.9997V37.2866C20.6749 37.7194 20.4768 38.13 20.1333 38.3933L19.1673 39.1066C18.9762 39.2532 18.7422 39.3328 18.5013 39.3333H5.06731C3.66981 39.2563 2.59723 38.0645 2.66731 36.6666V36.0002L20.6673 35.9997Z" fill="black"/>
<path d="M2.66703 36.0002V31.22C2.6646 30.8716 2.79062 30.5346 3.02101 30.2734L3.26703 30H15.507C16.9046 30.0229 18.193 30.7601 18.921 31.9534L20.445 34.32C20.5911 34.5514 20.6681 34.8197 20.667 35.0934V35.9997L2.66703 36.0002Z" fill="#F5890A"/>
<path d="M6.00063 4.66669H4.00063C3.63242 4.66669 3.33398 4.9652 3.33398 5.33333V8.882C3.33398 9.15458 3.49992 9.39973 3.75305 9.50098L5.75305 10.301C5.95844 10.3832 6.19125 10.3581 6.37437 10.234C6.55758 10.11 6.66727 9.90317 6.66727 9.682V5.33341C6.66727 4.9652 6.36883 4.66669 6.00063 4.66669Z" fill="#8F5006"/>
<path d="M27.9996 12H23.9997C23.6314 12 23.333 11.7015 23.333 11.3334V3.33339C23.333 2.96519 23.6315 2.66675 23.9997 2.66675H27.9996C29.1037 2.66792 29.9985 3.56269 29.9996 4.66675V10C29.9985 11.1041 29.1037 11.9989 27.9996 12ZM24.6663 10.6667H27.9996C28.3676 10.6662 28.6658 10.368 28.6663 10V4.66667C28.6658 4.2987 28.3676 4.0005 27.9996 4.00003H24.6663V10.6667Z" fill="black"/>
<path d="M29.3336 10.6666C28.9654 10.6666 28.667 10.3681 28.667 9.99999V4.66663C28.6671 4.46374 28.7594 4.27187 28.9181 4.14538C29.0767 4.0189 29.2843 3.97148 29.4822 4.01655L32.2796 4.65585C32.9111 4.8228 33.3465 5.39991 33.3337 6.05296V8.61351C33.3467 9.2664 32.9114 9.84343 32.28 10.0103L29.4821 10.6499C29.4333 10.6611 29.3836 10.6666 29.3336 10.6666ZM30.0003 5.50194V9.16374L31.9827 8.71062C31.9925 8.67913 31.9983 8.64655 32.0003 8.61358V6.05304C32.0029 6.01523 31.9904 5.97796 31.9657 5.94921L30.0003 5.50194Z" fill="black"/>
<path d="M34.6666 9.33337H32.6666C32.2984 9.33337 32 9.03486 32 8.66673V6.00002C32 5.63181 32.2984 5.33337 32.6666 5.33337H34.6666C35.4027 5.33408 35.9992 5.93064 36 6.66673V8.00001C35.9993 8.73611 35.4027 9.33259 34.6666 9.33337ZM33.3334 8.00001H34.6677L34.6667 6.66666H33.3334V8.00001Z" fill="black"/>
<path d="M22.6664 12.6667H20.6664C19.9303 12.666 19.3338 12.0694 19.333 11.3333V3.3333C19.3337 2.5972 19.9303 2.00072 20.6664 1.99994H22.6664C23.7704 2.00111 24.6652 2.89588 24.6664 3.99994V10.6666C24.6652 11.7708 23.7705 12.6655 22.6664 12.6667ZM20.6664 3.33338V11.3334H22.6664C23.0343 11.3329 23.3325 11.0347 23.333 10.6667V4.00002C23.3325 3.63205 23.0343 3.33385 22.6664 3.33338H20.6664Z" fill="black"/>
<path d="M21.333 6.00003H19.9996C19.6314 6.00003 19.333 5.70159 19.333 5.33339C19.333 4.96519 19.6315 4.66675 19.9996 4.66675H21.333C21.7012 4.66675 21.9996 4.96526 21.9996 5.33339C21.9996 5.70159 21.7012 6.00003 21.333 6.00003Z" fill="black"/>
<path d="M21.333 10H19.9996C19.6314 10 19.333 9.70151 19.333 9.33339C19.333 8.96519 19.6315 8.66675 19.9996 8.66675H21.333C21.7012 8.66675 21.9996 8.96526 21.9996 9.33339C21.9996 9.70159 21.7012 10 21.333 10Z" fill="black"/>
<path d="M20.263 39.9999H5.33336C3.49328 39.9977 2.00219 38.5066 2 36.6665V31.219C1.99852 30.6882 2.20953 30.1788 2.58594 29.8046L3.80469 28.5858C3.93016 28.461 4.00047 28.2911 4 28.1141V25.3332C4.07344 22.213 4.57352 19.1175 5.48633 16.133C5.67297 15.4929 5.35734 14.8134 4.74773 14.5432L1.58367 13.1369C0.621016 12.7086 0.000546875 11.7538 0 10.7001V3.99989C0.00171875 2.52786 1.19461 1.33489 2.66664 1.33325H7.17148C7.52539 1.33418 7.86492 1.19356 8.11453 0.942622L8.27602 0.781138C8.775 0.279263 9.45406 -0.00206509 10.1618 -0.000111968H16.1127C16.596 4.42819e-05 17.0702 0.131451 17.4848 0.380122L20.3432 2.09497C20.5474 2.21754 20.6707 2.43973 20.6667 2.67793C20.6627 2.91606 20.5319 3.13395 20.3236 3.24958C20.1153 3.36512 19.8612 3.36083 19.657 3.23825L16.7985 1.52333C16.5913 1.39903 16.3543 1.33325 16.1127 1.33325H10.1618C9.80789 1.33231 9.46836 1.47293 9.21875 1.72387L9.05727 1.88536C8.55828 2.38723 7.87922 2.66856 7.17148 2.66661H2.66664C1.93055 2.66731 1.33406 3.26387 1.33328 3.99997V10.7001C1.33352 11.227 1.64383 11.7044 2.12531 11.9186L5.28938 13.3251C6.51016 13.8684 7.14062 15.2311 6.7643 16.5132C5.88781 19.3743 5.40633 22.3418 5.33328 25.3332V28.1142C5.33477 28.645 5.12375 29.1543 4.74734 29.5286L3.52859 30.7473C3.40313 30.8722 3.33281 31.042 3.33328 31.219V36.6666C3.33445 37.7707 4.22922 38.6654 5.33328 38.6666H20.263C20.3945 38.6668 20.5231 38.6278 20.6324 38.5546L21.7031 37.8411C21.8887 37.7175 22.0002 37.5093 22 37.2864V35.094C22.0002 34.9549 21.9567 34.8193 21.8756 34.7063L20.1865 32.3414C19.4347 31.2914 18.223 30.6679 16.9316 30.6665H12.4198C11.6605 30.6661 10.9454 30.3094 10.4882 29.7032C10.0309 29.0971 9.88453 28.3114 10.0927 27.5813L12.1396 20.4172C12.5528 18.9893 13.8581 18.0047 15.3447 17.9999L15.3359 17.4888C14.8128 16.3286 14.4085 14.0373 16.2969 12.7785C16.4064 12.7055 16.5351 12.6665 16.6666 12.6665H18.6666C19.0346 12.6661 19.3328 12.3679 19.3333 11.9999V9.99989C19.3333 9.63168 19.6318 9.33325 19.9999 9.33325C20.368 9.33325 20.6666 9.63176 20.6666 9.99989V11.9999C20.6654 13.104 19.7706 13.9987 18.6666 13.9999H16.8847C15.6171 15.0341 16.5859 17.0146 16.5963 17.035C16.6425 17.1276 16.6666 17.2297 16.6666 17.3332V18.0132C16.6658 18.7419 16.0752 19.3325 15.3466 19.3332C14.4538 19.3354 13.6696 19.9262 13.4214 20.7838L11.375 27.9472C11.2816 28.2751 11.3473 28.6279 11.5525 28.9002C11.7578 29.1725 12.0789 29.3328 12.4199 29.3332H16.9316C18.6536 29.3349 20.2693 30.1663 21.2715 31.5666L22.9609 33.9315C23.2037 34.2705 23.3339 34.6771 23.3334 35.094V37.2863C23.3341 37.9552 22.9997 38.58 22.4427 38.9504L21.3724 39.6639C21.0441 39.8834 20.658 40.0004 20.263 39.9999Z" fill="black"/>
<path d="M6.00036 11.0156C5.83075 11.0155 5.6627 10.9832 5.5052 10.9202L3.50489 10.1198C2.99755 9.91867 2.66513 9.4275 2.667 8.8818V5.33336C2.66778 4.59727 3.26427 4.00078 4.00036 4H6.00036C6.73645 4.0007 7.33294 4.59727 7.33372 5.33336V9.68203C7.3338 10.4184 6.73684 11.0155 6.00036 11.0156ZM4.00036 5.33336V8.88188L6.00036 9.68234V5.33336H4.00036Z" fill="black"/>
<path d="M39.3336 8.00003H35.3336C34.9654 8.00003 34.667 7.70151 34.667 7.33339C34.667 6.96519 34.9654 6.66675 35.3336 6.66675H39.3336C39.7018 6.66675 40.0003 6.96526 40.0003 7.33339C40.0003 7.70159 39.7018 8.00003 39.3336 8.00003Z" fill="black"/>
<path d="M12.6677 21.3333C12.4149 21.3338 12.1836 21.1911 12.0707 20.9648C10.8623 18.5478 10.6673 16.5544 11.4912 15.04C12.6078 12.9876 15.1524 12.6826 15.2602 12.6708C15.2845 12.668 15.3091 12.6666 15.3337 12.6666H16.667C17.0352 12.6666 17.3337 12.9651 17.3337 13.3333C17.3337 13.7014 17.0352 13.9999 16.667 13.9999H15.378C15.1302 14.0367 13.3835 14.3411 12.6586 15.6845C12.0599 16.793 12.2634 18.3687 13.2634 20.3684C13.3668 20.575 13.3558 20.8203 13.2345 21.0169C13.1131 21.2134 12.8987 21.3332 12.6677 21.3333Z" fill="black"/>
<path d="M13.3336 30.6667H3.33363C2.96543 30.6667 2.66699 30.3682 2.66699 30C2.66699 29.6318 2.96551 29.3334 3.33363 29.3334H13.3336C13.7018 29.3334 14.0003 29.6318 14.0003 30C14.0003 30.3682 13.7018 30.6667 13.3336 30.6667Z" fill="black"/>
<path d="M22.6666 36.6667H2.66664C2.29844 36.6667 2 36.3681 2 36C2 35.6318 2.29852 35.3334 2.66664 35.3334H22.6666C23.0348 35.3334 23.3333 35.6319 23.3333 36C23.3334 36.3682 23.0348 36.6667 22.6666 36.6667Z" fill="black"/>
<path d="M26.6663 6.66666H23.9997C23.6314 6.66666 23.333 6.36814 23.333 6.00002C23.333 5.63181 23.6315 5.33337 23.9997 5.33337H26.6663C27.0345 5.33337 27.3329 5.63189 27.3329 6.00002C27.333 6.36822 27.0345 6.66666 26.6663 6.66666Z" fill="black"/>
<path d="M16.6663 5.33336H9.99965C9.63145 5.33336 9.33301 5.03484 9.33301 4.66672C9.33301 4.29859 9.63145 4 9.99965 4H16.6663C17.0345 4 17.3329 4.29852 17.3329 4.66664C17.3329 5.03477 17.0345 5.33336 16.6663 5.33336Z" fill="black"/>
<path d="M16.6663 8.00003H9.99965C9.63145 8.00003 9.33301 7.70151 9.33301 7.33339C9.33301 6.96519 9.63152 6.66675 9.99965 6.66675H16.6663C17.0345 6.66675 17.3329 6.96526 17.3329 7.33339C17.333 7.70159 17.0345 8.00003 16.6663 8.00003Z" fill="black"/>
<path d="M16.6663 10.6667H9.99965C9.63145 10.6667 9.33301 10.3681 9.33301 10C9.33301 9.63181 9.63152 9.33337 9.99965 9.33337H16.6663C17.0345 9.33337 17.3329 9.63189 17.3329 10C17.333 10.3682 17.0345 10.6667 16.6663 10.6667Z" fill="black"/>
</g>
<defs>
<clipPath id="clip0_372_7043">
<rect width="40" height="40" fill="white"/>
</clipPath>
</defs>
</svg>
