<svg width="40" height="40" viewBox="0 0 40 40" fill="none" xmlns="http://www.w3.org/2000/svg">
<g clip-path="url(#clip0_372_6984)">
<path d="M32.6759 3.44772L21.7959 14.3278L23.6862 16.2181L34.5663 5.33807L32.6759 3.44772Z" fill="#CFD8DC"/>
<path d="M4.85262 30.209L3.4202 31.6414C3.14051 31.9211 2.9834 32.3003 2.9834 32.6959C2.9834 33.0914 3.14051 33.4706 3.4202 33.7503L3.42113 33.7513C3.70082 34.0309 4.08004 34.188 4.47559 34.188H12.8074L4.85262 30.209Z" fill="#CFD8DC"/>
<path d="M33.8471 6.0599L35.7374 5.11466L37.1548 3.69724C37.2802 3.57193 37.3505 3.40193 37.3505 3.22474C37.3505 3.04748 37.2802 2.87755 37.1548 2.75224L35.2647 0.862085C35.1394 0.736772 34.9694 0.666382 34.7922 0.666382C34.6149 0.666382 34.445 0.736772 34.3197 0.862085L32.9023 2.27951L31.957 4.16982L33.8471 6.0599Z" fill="#CFD8DC"/>
<path d="M24.8657 15.0397L22.9791 18.8198L18.115 23.6838L14.335 19.9038L19.1991 15.0397L22.9791 13.1464L24.8657 15.0397Z" fill="#607D8B"/>
<path d="M20.6227 21.1807L22.9844 18.819L19.2037 15.0383L16.842 17.4L20.6227 21.1807Z" fill="#CFD8DC"/>
<path d="M27.2288 27.7961L29.1191 25.9058L24.3957 21.1823L22.5054 23.0727L27.2288 27.7961Z" fill="#607D8B"/>
<path d="M21.9665 33.8066L18.4198 37.6133L17.7798 37.2466L17.5864 37.1466L4.90634 30.5599C4.71736 30.4633 4.58595 30.2821 4.55298 30.0724C4.52001 29.8627 4.58939 29.6499 4.73962 29.4999L13.633 20.6132L14.9464 19.2932L18.7264 23.0732L21.5598 33.4667L21.9665 33.8066Z" fill="#C26C08"/>
<path d="M20.0465 34.5199L17.5864 37.1466L4.90634 30.5599C4.71736 30.4632 4.58595 30.2821 4.55298 30.0723C4.52001 29.8626 4.58939 29.6498 4.73962 29.4999L13.633 20.6132L16.7997 23.7798L19.6397 34.1733L20.0465 34.5199Z" fill="#F5890A"/>
<path d="M18.2541 32.9945L18.4486 32.8C18.6203 32.6283 18.6853 32.3772 18.6186 32.1439L17.1486 26.9986C17.0835 26.7709 16.9029 26.5947 16.6736 26.5353C16.4444 26.4759 16.2009 26.5422 16.0335 26.7097L14.0014 28.7418C13.8761 28.8671 13.8057 29.0371 13.8057 29.2143C13.8057 29.3915 13.8761 29.5615 14.0014 29.6868L17.3091 32.9945C17.4344 33.1198 17.6044 33.1902 17.7816 33.1902C17.9588 33.1903 18.1288 33.1199 18.2541 32.9945Z" fill="#F5D50A"/>
<path d="M25.8155 33.9392L20.6153 39.1394C20.355 39.3997 19.9328 39.3997 19.6725 39.1394L17.7812 37.2481L23.4528 31.5766C23.7132 31.3163 24.1353 31.3163 24.3956 31.5766L25.8155 32.9964C26.0759 33.2568 26.0759 33.6789 25.8155 33.9392Z" fill="#CFD8DC"/>
<path d="M24.4236 35.2243L20.4093 39.2386C20.1489 39.4989 19.7268 39.4989 19.4664 39.2386L17.5752 37.3473L22.0609 32.8616C22.3212 32.6013 22.7434 32.6013 23.0037 32.8616L24.4236 34.2815C24.6839 34.5419 24.6839 34.964 24.4236 35.2243Z" fill="#F4F4F4"/>
<path d="M33.848 6.72689C33.6711 6.72713 33.5013 6.65682 33.3764 6.53158L31.4864 4.64096C31.2834 4.43807 31.233 4.12807 31.3614 3.87143L32.3064 1.98143C32.3386 1.91744 32.3808 1.859 32.4314 1.80822L33.8491 0.390879C34.3704 -0.130293 35.2155 -0.130293 35.7367 0.390879L37.627 2.28088C38.1471 2.80268 38.1473 3.64689 37.6273 4.16885L36.2094 5.58619C36.1588 5.63697 36.1003 5.67916 36.0362 5.71119L34.1459 6.6565C34.0534 6.70291 33.9514 6.72697 33.848 6.72689ZM32.7689 4.03807L33.9795 5.249L35.3431 4.56674L36.6843 3.22627L34.794 1.33369L33.4505 2.67486L32.7689 4.03807Z" fill="black"/>
<path d="M24.8692 15.7049C24.6923 15.7051 24.5227 15.6348 24.3978 15.5096L22.5078 13.6196C22.3827 13.4946 22.3125 13.325 22.3125 13.1482C22.3125 12.9714 22.3827 12.8019 22.5078 12.6769L31.4861 3.69824C31.6111 3.57324 31.7806 3.50293 31.9574 3.50293C32.1342 3.50301 32.3038 3.57324 32.4288 3.69824L34.3188 5.58888C34.4438 5.71388 34.5141 5.88342 34.5141 6.06022C34.5141 6.23701 34.4438 6.40655 34.3188 6.53155L25.3406 15.5096C25.2156 15.6348 25.046 15.7051 24.8692 15.7049ZM23.9219 13.1482L24.8692 14.0954L32.9047 6.06022L31.9575 5.11232L23.9219 13.1482Z" fill="black"/>
<path d="M30.0671 11.4522C29.8903 11.4523 29.7207 11.382 29.5956 11.257C29.4706 11.132 29.4004 10.9623 29.4004 10.7855V5.115C29.4004 4.7468 29.6988 4.44836 30.067 4.44836C30.4352 4.44836 30.7337 4.74688 30.7337 5.115V10.7856C30.7337 10.9623 30.6635 11.132 30.5384 11.257C30.4135 11.382 30.2439 11.4523 30.0671 11.4522Z" fill="black"/>
<path d="M27.2321 14.2875C27.0554 14.2876 26.8857 14.2173 26.7607 14.0922C26.6357 13.9672 26.5654 13.7976 26.5654 13.6208V7.95021C26.5654 7.58201 26.8639 7.28357 27.2321 7.28357C27.6002 7.28357 27.8987 7.58209 27.8987 7.95021V13.6208C27.8988 13.7976 27.8286 13.9672 27.7035 14.0922C27.5786 14.2173 27.409 14.2876 27.2321 14.2875Z" fill="black"/>
<path d="M22.9792 19.4848C22.8024 19.485 22.6328 19.4147 22.5079 19.2895L18.7277 15.5096C18.576 15.3581 18.5065 15.143 18.5409 14.9314C18.5752 14.7198 18.7091 14.5376 18.9009 14.4419L22.6811 12.5519C22.9377 12.4231 23.248 12.4735 23.4506 12.6769L25.3406 14.5669C25.5434 14.7698 25.5938 15.0797 25.4656 15.3364L23.5756 19.1163C23.4796 19.3079 23.2975 19.4417 23.086 19.4763C23.0507 19.4821 23.015 19.4849 22.9792 19.4848ZM20.3246 15.2212L22.7966 17.6925L24.058 15.1697L22.8477 13.9594L20.3246 15.2212Z" fill="black"/>
<path d="M18.7262 23.7381C18.5495 23.738 18.3799 23.6678 18.2549 23.5428L14.4746 19.7621C14.3495 19.6371 14.2793 19.4676 14.2793 19.2908C14.2793 19.114 14.3495 18.9445 14.4746 18.8195L18.7275 14.5669C18.8525 14.4418 19.022 14.3716 19.1988 14.3716C19.3756 14.3716 19.5452 14.4418 19.6702 14.5669L23.4504 18.3468C23.5755 18.4718 23.6457 18.6413 23.6457 18.8181C23.6457 18.9949 23.5755 19.1645 23.4504 19.2895L19.1975 23.5428C19.0727 23.6678 18.9031 23.738 18.7262 23.7381ZM15.8887 19.2908L18.7262 22.1287L22.0365 18.8181L19.1989 15.9809L15.8887 19.2908Z" fill="black"/>
<path d="M27.2317 28.4634C27.0548 28.4637 26.8852 28.3933 26.7604 28.2681L22.5078 24.0155C22.3827 23.8905 22.3125 23.721 22.3125 23.5442C22.3125 23.3674 22.3827 23.1979 22.5078 23.0729L24.3978 21.1823C24.6623 20.9323 25.076 20.9323 25.3405 21.1823L29.5934 25.4355C29.7185 25.5605 29.7887 25.7301 29.7887 25.9069C29.7887 26.0837 29.7185 26.2532 29.5934 26.3782L27.7031 28.2682C27.5783 28.3933 27.4086 28.4637 27.2317 28.4634ZM23.9219 23.5441L27.2318 26.854L28.1794 25.9068L24.8691 22.5962L23.9219 23.5441Z" fill="black"/>
<path d="M22.0337 24.2108C21.7641 24.2107 21.5211 24.0483 21.4179 23.7992C21.3148 23.5501 21.3718 23.2634 21.5624 23.0728L24.3974 20.2375C24.6577 19.9772 25.0798 19.9772 25.3401 20.2375C25.6004 20.4978 25.6004 20.9199 25.3401 21.1802L22.5051 24.0154C22.3802 24.1407 22.2106 24.2109 22.0337 24.2108Z" fill="black"/>
<path d="M26.7593 28.9361C26.4897 28.936 26.2466 28.7736 26.1435 28.5245C26.0404 28.2755 26.0973 27.9887 26.288 27.7981L29.1233 24.9628C29.3836 24.7025 29.8056 24.7025 30.066 24.9628C30.3263 25.2231 30.3263 25.6452 30.066 25.9055L27.2307 28.7408C27.1057 28.866 26.9361 28.9363 26.7593 28.9361Z" fill="black"/>
<path d="M17.7812 37.9141C17.6744 37.914 17.5691 37.8883 17.4742 37.8392L4.59594 31.1535C4.21867 30.9577 3.95742 30.5937 3.89257 30.1736C3.82773 29.7535 3.9671 29.3277 4.26781 29.0272L14.4749 18.8195C14.5999 18.6945 14.7695 18.6241 14.9463 18.6241C15.123 18.6242 15.2926 18.6945 15.4176 18.8195L19.1978 22.6001C19.2799 22.6822 19.3392 22.7843 19.3697 22.8964L22.2051 33.2923C22.2679 33.523 22.2023 33.7697 22.0332 33.9388L18.2529 37.7187C18.1278 37.8439 17.9582 37.9142 17.7812 37.9141ZM14.9463 20.2335L5.21016 29.9699L17.6553 36.4309L20.8168 33.2694L18.1299 23.4178L14.9463 20.2335Z" fill="black"/>
<path d="M23.4511 22.7929C23.2742 22.7931 23.1046 22.7228 22.9798 22.5975L21.0898 20.7075C20.9213 20.5392 20.8556 20.2937 20.9173 20.0636C20.9789 19.8336 21.1586 19.6539 21.3886 19.5923C21.6186 19.5307 21.8641 19.5964 22.0325 19.7648L23.9225 21.6548C24.1131 21.8454 24.1701 22.1322 24.067 22.3812C23.9638 22.6303 23.7208 22.7927 23.4511 22.7929Z" fill="black"/>
<path d="M17.7812 33.8573C17.427 33.858 17.0871 33.7171 16.8373 33.4661L13.5296 30.1581C13.2792 29.9077 13.1385 29.5681 13.1387 29.2139C13.1388 28.8598 13.2797 28.5203 13.5302 28.2701L15.5618 26.2382C15.8962 25.9036 16.3827 25.7711 16.8406 25.8898C17.2985 26.0086 17.6594 26.3608 17.7891 26.8157L19.2591 31.9609C19.392 32.4267 19.2623 32.9279 18.9203 33.2708L18.7256 33.4655L18.7253 33.4662C18.4754 33.7172 18.1355 33.8581 17.7812 33.8573ZM16.5071 27.1815L14.4723 29.2134L18.2538 32.9946L17.7822 32.5239L17.9765 32.3293L16.5071 27.1815Z" fill="black"/>
<path d="M13.5281 26.1008C13.3511 26.101 13.1814 26.0307 13.0564 25.9055L12.5841 25.4328C12.3263 25.1719 12.3276 24.7517 12.5871 24.4925C12.8465 24.2332 13.2667 24.2322 13.5274 24.4902L13.9997 24.9628C14.1902 25.1536 14.2471 25.4402 14.1439 25.6893C14.0407 25.9383 13.7976 26.1007 13.5281 26.1008Z" fill="black"/>
<path d="M15.4185 24.2108C15.2416 24.2111 15.072 24.1408 14.9472 24.0155L14.4745 23.5429C14.2142 23.2826 14.2142 22.8605 14.4745 22.6001C14.7348 22.3398 15.157 22.3398 15.4173 22.6001L15.8899 23.0728C16.0805 23.2634 16.1375 23.5501 16.0344 23.7992C15.9312 24.0483 15.6881 24.2108 15.4185 24.2108Z" fill="black"/>
<path d="M11.6382 27.9907C11.4614 27.991 11.2918 27.9207 11.1669 27.7954L10.6943 27.3228C10.5258 27.1543 10.4601 26.9089 10.5218 26.6789C10.5834 26.4488 10.7631 26.2692 10.9931 26.2075C11.2231 26.1459 11.4686 26.2117 11.637 26.38L12.1097 26.8527C12.3003 27.0433 12.3572 27.33 12.2541 27.5791C12.1509 27.8282 11.9079 27.9907 11.6382 27.9907Z" fill="black"/>
<path d="M20.6167 21.8482C20.4398 21.8484 20.2702 21.7781 20.1454 21.6528L16.3652 17.8722C16.1048 17.6119 16.1048 17.1898 16.3652 16.9295C16.6255 16.6692 17.0476 16.6692 17.3079 16.9295L21.0881 20.7101C21.2787 20.9007 21.3357 21.1875 21.2326 21.4365C21.1294 21.6857 20.8864 21.8481 20.6167 21.8482Z" fill="black"/>
<path d="M12.4742 35.1881H4.14239C3.26934 35.188 2.4823 34.6622 2.148 33.8557C1.8137 33.0492 1.99808 32.1208 2.61504 31.5031L4.04802 30.0708C4.30833 29.8105 4.73044 29.8105 4.99076 30.0708C5.25107 30.3312 5.25107 30.7533 4.99076 31.0136L3.55809 32.4459C3.32238 32.6821 3.25207 33.037 3.37996 33.3453C3.50785 33.6536 3.80872 33.8546 4.14247 33.8547H12.4743C12.8425 33.8547 13.1409 34.1531 13.1409 34.5214C13.1409 34.8896 12.8424 35.1881 12.4742 35.1881Z" fill="black"/>
<path d="M20.1436 39.9999C19.79 40.0005 19.4507 39.8602 19.2008 39.6099L17.3096 37.7187C17.1845 37.5937 17.1143 37.4242 17.1143 37.2474C17.1143 37.0706 17.1845 36.901 17.3096 36.776L22.9811 31.1049C23.5022 30.5853 24.3454 30.5853 24.8665 31.1049L26.2864 32.5248C26.5365 32.7748 26.6771 33.1138 26.6771 33.4675C26.6771 33.8212 26.5365 34.1602 26.2864 34.4102L21.0862 39.6101C20.8364 39.8601 20.4971 40.0005 20.1436 39.9999ZM18.7236 37.2474L20.1436 38.6673L25.3438 33.4674L23.9239 32.0475L18.7236 37.2474Z" fill="black"/>
</g>
<defs>
<clipPath id="clip0_372_6984">
<rect width="40" height="40" fill="white"/>
</clipPath>
</defs>
</svg>
