<svg width="64" height="64" viewBox="0 0 64 64" fill="none" xmlns="http://www.w3.org/2000/svg">
<path d="M63.9195 30.6637C63.792 30.0175 63.502 29.4063 63.0795 28.8951C56.1573 20.5338 57.7679 22.4795 55.1588 19.327C54.3988 18.4083 53.2789 17.8821 52.0865 17.8821H50.1504C49.6329 17.8821 49.213 18.3021 49.213 18.8195C49.213 19.337 49.633 19.7568 50.1504 19.7568H52.0865C52.7178 19.7568 53.3114 20.0356 53.7139 20.5218L54.4614 21.4243H49.9279C48.5943 21.4243 47.5093 22.558 47.5093 23.953V29.2538C47.5093 30.6487 48.5941 31.7825 49.9279 31.7825H62.1208V45.6878C62.1208 46.4128 61.5308 47.0027 60.8059 47.0027H60.1284C59.7948 44.8853 58.4701 43.0702 56.6261 42.0868C52.5206 39.8978 47.4654 42.4261 46.748 47.0027C45.538 47.0027 45.3743 47.0027 43.9383 47.0027V36.3647V36.3572V20.2668C43.9383 19.9856 44.167 19.7568 44.4483 19.7568H46.4006C46.9194 19.7568 47.3381 19.3368 47.3381 18.8195C47.3381 18.302 46.9194 17.8821 46.4006 17.8821H44.4483C44.2733 17.8821 44.102 17.9008 43.9383 17.9371V11.7875C43.9383 10.5813 42.957 9.6001 41.7509 9.6001H11.1918C10.673 9.6001 10.2544 10.0188 10.2544 10.5375C10.2544 11.055 10.6731 11.4748 11.1918 11.4748H41.751C41.9235 11.4748 42.0635 11.6148 42.0635 11.7873V35.4195H1.87488V11.7875C1.87488 11.615 2.01488 11.475 2.18738 11.475H7.442C7.9595 11.475 8.37938 11.055 8.37938 10.5376C8.37938 10.0188 7.95938 9.60022 7.442 9.60022H2.18738C0.981125 9.6001 0 10.5813 0 11.7875V44.2178C0 46.7877 2.08988 48.8776 4.65975 48.8776H9.37188C9.78675 52.3108 12.7049 54.836 16.0839 54.836C19.538 54.836 22.411 52.2601 22.8209 48.8776H30.1304C30.6491 48.8776 31.0678 48.4588 31.0678 47.9401C31.0678 47.4226 30.649 47.0027 30.1304 47.0027H22.7846C21.5956 39.4581 10.5966 39.3973 9.40425 47.0027H4.65975C3.12488 47.0027 1.87488 45.7541 1.87488 44.2178V44.1378H4.20475C4.8935 44.1378 5.54088 43.8691 6.02838 43.3828C7.64388 41.7632 6.49588 38.9806 4.20475 38.9806H1.87488V37.302H42.0634V47.0026H33.8801C33.3626 47.0026 32.9426 47.4226 32.9426 47.94C32.9426 48.4587 33.3626 48.8775 33.8801 48.8775H46.7155C46.9793 51.0598 48.2841 52.991 50.2515 54.0396C51.264 54.5796 52.3539 54.8358 53.4275 54.8358C56.8879 54.8358 59.756 52.2531 60.1645 48.8775H60.8058C62.5644 48.8775 63.9955 47.4463 63.9955 45.6877C63.9958 30.1567 64.0273 31.2083 63.9195 30.6637ZM49.9279 29.9075C49.6279 29.9075 49.3841 29.615 49.3841 29.2537V23.9528C49.3841 23.5916 49.6279 23.2991 49.9279 23.2991H56.0125L61.4834 29.9073H49.9279V29.9075ZM20.8761 47.0026C21.0091 47.5865 20.9961 48.0637 20.9961 48.0637C20.9961 50.1862 19.6183 52.1111 17.5226 52.7496C14.3741 53.7048 11.1968 51.3505 11.1968 48.0612C11.1759 42.1101 19.7439 41.4462 20.8761 47.0026ZM4.20475 40.8555C4.8295 40.8555 5.14375 41.6152 4.70225 42.0566C4.43275 42.3261 4.39263 42.2628 1.875 42.2628V40.8555H4.20475ZM58.3399 48.0637C58.3399 50.128 57.0148 52.0951 54.8664 52.7496C50.6773 54.0205 47.0798 49.5745 49.1168 45.7588C51.4874 41.3071 58.3399 42.9466 58.3399 48.0625V48.0637Z" fill="black"/>
<path d="M16.0954 51.8223C18.633 51.8223 20.4039 49.3647 19.7014 47.0027C18.6459 43.4162 13.5458 43.4173 12.4906 47.0027C11.783 49.3822 13.5753 51.8223 16.0954 51.8223ZM14.5393 47.0027C15.2865 45.9052 16.9024 45.9047 17.6528 47.0027C18.5109 48.2612 17.5934 49.9474 16.0954 49.9474C14.5908 49.9474 13.6868 48.2531 14.5393 47.0027Z" fill="#F5890A"/>
<path d="M49.8346 47.0025C49.1321 49.3647 50.9031 51.8221 53.4406 51.8221C55.521 51.8221 57.1991 50.1264 57.1991 48.0636C57.1991 43.704 51.0434 42.8955 49.8346 47.0025ZM55.138 48.8774C54.8342 49.5099 54.1881 49.9472 53.4406 49.9472C51.9345 49.9472 51.0307 48.2526 51.8832 47.0025C52.2232 46.505 52.7944 46.1787 53.4406 46.1787C54.8341 46.1787 55.7381 47.646 55.138 48.8774Z" fill="#F5890A"/>
<path d="M51.6589 35.2218C52.1766 35.2218 52.5963 34.802 52.5963 34.2843C52.5963 33.7665 52.1765 33.3469 51.6589 33.3469H48.5516C48.0339 33.3469 47.6143 33.7667 47.6143 34.2843C47.6143 34.802 48.034 35.2218 48.5516 35.2218H51.6589Z" fill="#F5890A"/>
</svg>
