<svg width="64" height="64" viewBox="0 0 64 64" fill="none" xmlns="http://www.w3.org/2000/svg">
<path d="M61.3054 52.3646C60.8851 52.1337 60.3585 52.2903 60.1296 52.7141C59.8132 53.2997 59.2061 53.6634 58.5452 53.6634C57.9655 53.6634 57.4174 53.3792 57.0792 52.9034C56.8653 52.6021 56.5183 52.4222 56.151 52.4222C55.7838 52.4222 55.4368 52.6021 55.2231 52.9032C54.8845 53.3792 54.3365 53.6634 53.7569 53.6634C53.1771 53.6634 52.6291 53.3792 52.2908 52.9032C52.0768 52.6021 51.7298 52.4223 51.3627 52.4223C50.9956 52.4223 50.6486 52.6021 50.4347 52.9032C50.0962 53.3792 49.5481 53.6634 48.9685 53.6634C48.5107 53.6634 48.0861 53.4929 47.7576 53.1901L51.3416 49.579C52.0893 48.8257 52.4778 47.7838 52.4076 46.7208C52.3374 45.6577 51.8153 44.6772 50.975 44.0303C50.5782 43.6243 49.9107 43.5329 49.5437 44.0278C49.253 44.411 49.3258 44.9592 49.7064 45.252C50.2459 45.61 50.6444 46.1734 50.6777 46.8368C50.771 47.6574 50.198 48.322 49.6318 48.8312L38.7756 40.4724L39.6943 39.5468C40.3369 38.8993 41.366 38.8302 42.0884 39.3863L46.6972 42.9348C47.0777 43.2278 47.6218 43.1543 47.9122 42.7711C48.203 42.3879 48.1301 41.8396 47.7498 41.5469L43.141 37.9984C41.7315 36.9131 39.7225 37.0478 38.4682 38.3116L35.1919 41.6127C34.647 42.1619 33.7976 42.2312 33.1719 41.7773L30.869 40.1068C26.2749 36.7744 22.2688 32.7378 18.9617 28.1094L17.3037 25.789C16.8534 25.1588 16.9221 24.303 17.4671 23.7538L20.7434 20.4527C21.9978 19.1888 22.1315 17.1647 21.0543 15.7446L15.0675 7.85125C14.4255 7.00474 13.4523 6.47866 12.3972 6.40794C11.3406 6.33783 10.3082 6.72872 9.5604 7.48202L4.12806 12.9554C2.05018 15.0491 1.17724 18.0275 1.79344 20.9227C2.60165 24.7209 3.94827 28.3753 5.79602 31.7845C6.02533 32.2079 6.5521 32.3637 6.97224 32.1326C7.39238 31.9014 7.54699 31.3706 7.31757 30.9473C5.54997 27.6859 4.26177 24.1899 3.48847 20.5565C2.99626 18.2433 3.69356 15.8637 5.35392 14.1906L9.06533 10.4511L17.3616 21.3893L16.2407 22.5187C15.0918 23.6764 14.9468 25.481 15.8962 26.8097L17.5542 29.1301C20.9707 33.9117 25.1095 38.0819 29.8557 41.5246L32.1587 43.1951C33.4709 44.1482 35.2644 44.0097 36.4176 42.848L37.5385 41.7187L48.3947 50.0775L44.6831 53.817C43.0228 55.4901 40.6604 56.192 38.365 55.6966C33.2458 54.5907 28.4864 52.48 24.2192 49.4231L22.4536 48.1582C18.0002 44.9679 14.1367 41.0752 10.9703 36.5882C10.6547 36.1377 9.58688 34.6369 9.29808 34.2064C9.0278 33.8081 8.48844 33.7058 8.09324 33.978C7.69792 34.2502 7.59651 34.7936 7.86655 35.1919C8.16152 35.6317 9.23621 37.1422 9.55731 37.6003C12.8362 42.2469 16.8372 46.2782 21.4489 49.5818L23.2146 50.8467C27.6752 54.0421 32.6503 56.2485 38.0016 57.4044C38.6084 57.5356 39.2187 57.5997 39.8237 57.5997C42.084 57.5997 44.2698 56.7038 45.909 55.0522L46.5299 54.4266C47.182 55.0507 48.0566 55.4101 48.9682 55.4101C49.861 55.4101 50.7153 55.0669 51.3624 54.468C52.0092 55.0669 52.8637 55.4101 53.7566 55.4101C54.6494 55.4101 55.5038 55.0669 56.1509 54.468C56.7977 55.0669 57.6522 55.4101 58.5451 55.4101C59.8414 55.4101 61.0318 54.697 61.6521 53.5493C61.8811 53.1257 61.7259 52.5952 61.3054 52.3646V52.3646ZM10.3023 9.20482L10.7861 8.71737C11.5696 7.89037 13.0214 7.98633 13.6898 8.91192L19.6766 16.8053C20.2284 17.5329 20.1599 18.5698 19.5172 19.2175L18.5986 20.1431L10.3023 9.20482Z" fill="black"/>
<path d="M54.2511 10.1086H38.9356C38.4569 10.1086 38.0688 10.4996 38.0688 10.9821C38.0688 11.4645 38.4569 11.8555 38.9356 11.8555H54.2511C57.7883 11.8555 60.6659 14.755 60.6659 18.3188V25.3936C60.6659 28.9575 57.7882 31.8569 54.2511 31.8569H38.7904C38.0957 31.8569 37.4427 32.1295 36.9515 32.6243L32.8723 36.7344V33.6548C32.8723 32.713 32.2297 31.9021 31.3095 31.6833C28.4043 30.9921 26.3753 28.4057 26.3753 25.3936V18.3188C26.3753 14.7549 29.2531 11.8555 32.7902 11.8555H34.8397C35.3185 11.8555 35.7066 11.4645 35.7066 10.9821C35.7066 10.4996 35.3185 10.1086 34.8397 10.1086H32.7902C28.2971 10.1086 24.6416 13.7917 24.6416 18.3188V25.3936C24.6416 29.2195 27.2198 32.505 30.9111 33.3832C31.045 33.4152 31.1385 33.5268 31.1385 33.6548V37.7184C31.1385 38.262 31.4607 38.7477 31.9591 38.9558C32.452 39.1625 33.0249 39.052 33.4076 38.6655L38.1774 33.8597C38.3411 33.6947 38.5589 33.6037 38.7903 33.6037H54.2511C58.7442 33.6037 62.3997 29.9206 62.3997 25.3936V18.3188C62.3997 13.7917 58.7442 10.1086 54.2511 10.1086V10.1086Z" fill="black"/>
<path d="M45.2411 26.576C45.5857 26.576 45.9117 26.3675 46.0468 26.0252L49.3052 17.771C49.4821 17.3228 49.2651 16.8149 48.8201 16.6366C48.3757 16.4582 47.8713 16.677 47.6942 17.1254L44.4359 25.3797C44.2017 25.9374 44.6443 26.5871 45.2411 26.576V26.576Z" fill="#F5890A"/>
<path d="M52.8845 26.6624C53.3124 26.855 53.834 26.6604 54.027 26.2144L57.6282 17.9601C57.8885 17.4079 57.4411 16.7174 56.8346 16.7352H52.3278C51.849 16.7352 51.4609 17.1262 51.4609 17.6086C51.4609 18.091 51.849 18.482 52.3278 18.482H55.5066L52.4397 25.5113C52.2471 25.9528 52.4462 26.4683 52.8845 26.6624V26.6624Z" fill="#F5890A"/>
<path d="M36.5942 24.1396H39.8184C39.8143 24.6903 39.8102 25.2192 39.806 25.6948C39.802 26.1771 40.1867 26.5715 40.6654 26.5757H40.673C41.1484 26.5757 41.5356 26.1896 41.5398 25.7098C41.5423 25.4191 41.547 24.8472 41.5522 24.1396C42.0895 24.2077 42.6107 23.8356 42.6056 23.2662C42.6103 22.7029 42.0977 22.327 41.5638 22.3927C41.5754 20.398 41.5817 18.2431 41.5573 17.9478C41.5047 17.3128 41.1277 16.7954 40.5967 16.6297C40.0705 16.4654 39.5095 16.6726 39.0955 17.1843C38.6327 17.7564 36.483 21.6611 35.8351 22.8443C35.5091 23.3987 35.9547 24.1593 36.5942 24.1396V24.1396ZM39.8406 19.2575C39.8411 20.0705 39.8365 21.2103 39.8297 22.3927H38.0671C38.7322 21.1929 39.383 20.0402 39.8406 19.2575Z" fill="#F5890A"/>
<path d="M32.7384 21.2903C31.44 23.1595 30.6652 24.1817 30.2488 24.7309C29.7338 25.4103 29.5205 25.6916 29.6698 26.1798C29.757 26.4651 29.9717 26.684 30.2583 26.7801C30.374 26.819 30.4921 26.8588 32.079 26.8588C32.7024 26.8588 33.5527 26.8527 34.7182 26.8379C35.1969 26.8319 35.5801 26.436 35.574 25.9536C35.5681 25.475 35.1811 25.0912 34.7075 25.0912C34.7038 25.0912 34.7 25.0912 34.6964 25.0913C33.8205 25.1023 32.8888 25.1094 32.1393 25.1102C32.5986 24.4935 33.254 23.5946 34.1589 22.292C34.7927 21.3418 35.1625 20.6259 35.2271 19.68C35.2271 18.0338 33.8978 16.6946 32.2639 16.6946C30.8512 16.6946 29.6285 17.707 29.3563 19.1022C29.2639 19.5756 29.5699 20.0346 30.0397 20.1277C30.5092 20.2202 30.9651 19.9125 31.0575 19.4392C31.1703 18.8611 31.6775 18.4415 32.2638 18.4415C32.9257 18.4415 33.4671 18.9712 33.4922 19.6318C33.4273 20.1978 33.1662 20.6458 32.7384 21.2903Z" fill="#F5890A"/>
</svg>
