<?xml version="1.0" encoding="utf-8"?><svg width="64" height="64" fill="none" xmlns="http://www.w3.org/2000/svg" viewBox="0 0 64 64"><g clip-path="url(#aclip0_354_2328)"><path fill-rule="evenodd" clip-rule="evenodd" d="M24.082 46.186h15.835c0-8.314 11.877-8.05 11.877-25.072C51.794 10.182 42.931 1.32 32 1.32s-19.794 8.862-19.794 19.794c0 17.022 11.876 16.758 11.876 25.072z" fill="#F5890A"/><path fill-rule="evenodd" clip-rule="evenodd" d="M39.917 46.185H24.082a2.978 2.978 0 00-2.969 2.97 2.978 2.978 0 002.97 2.969h15.834a2.978 2.978 0 002.97-2.97 2.978 2.978 0 00-2.97-2.969z" fill="#6D91AC"/><path fill-rule="evenodd" clip-rule="evenodd" d="M24.082 52.124h15.835v5.279H24.082v-5.279z" fill="#A7BDCD"/><path fill-rule="evenodd" clip-rule="evenodd" d="M39.917 57.402H24.082v2.64a2.647 2.647 0 002.64 2.639h10.556a2.647 2.647 0 002.64-2.64v-2.639z" fill="#A7BDCD"/><path fill-rule="evenodd" clip-rule="evenodd" d="M32 32.121a2.64 2.64 0 002.639-2.639c0-.462.19-.946.581-1.534.56-.842 1.507-1.863 2.82-3.176a8.71 8.71 0 001.875-2.802 8.55 8.55 0 00-1.85-9.352A8.55 8.55 0 0032 10.104a8.55 8.55 0 00-6.065 2.512 8.55 8.55 0 00-2.513 6.065 2.639 2.639 0 105.279 0c0-.91.369-1.736.966-2.333A3.289 3.289 0 0132 15.383c.911 0 1.736.37 2.333.966.596.597.966 1.422.966 2.333 0 .456-.09.883-.25 1.267a3.413 3.413 0 01-.742 1.091c-1.519 1.52-2.66 2.77-3.478 4.001-.988 1.485-1.469 2.874-1.469 4.441a2.64 2.64 0 002.64 2.64z" fill="#fff"/><path fill-rule="evenodd" clip-rule="evenodd" d="M34.639 34.76a2.64 2.64 0 00-5.279 0v.002a2.639 2.639 0 105.279 0v-.001z" fill="#fff"/><path d="M32 0c-1.885 0-3.758.25-5.568.744a1.32 1.32 0 10.695 2.546A18.522 18.522 0 0132 2.64c10.187 0 18.474 8.287 18.474 18.473 0 9.465-3.774 13.162-7.104 16.424-2.169 2.124-4.23 4.145-4.68 7.329H25.31c-.45-3.184-2.511-5.205-4.68-7.329-3.33-3.262-7.104-6.959-7.104-16.424A18.48 18.48 0 0117.89 9.19a1.32 1.32 0 00-2.014-1.705 21.122 21.122 0 00-4.99 13.628c0 10.575 4.38 14.863 7.898 18.31 2.003 1.962 3.523 3.452 3.892 5.681a4.296 4.296 0 00-2.882 4.05 4.296 4.296 0 002.969 4.08v2.849h-.33a1.32 1.32 0 000 2.639h.33v1.32A3.963 3.963 0 0026.722 64h10.556a3.963 3.963 0 003.96-3.959v-1.32h.329a1.32 1.32 0 000-2.638h-.33v-2.848a4.296 4.296 0 002.97-4.08 4.296 4.296 0 00-2.883-4.05c.37-2.23 1.89-3.72 3.893-5.682 3.518-3.446 7.896-7.735 7.896-18.31C53.113 9.471 43.642 0 32 0zm6.598 60.041c0 .728-.592 1.32-1.32 1.32H26.722c-.728 0-1.32-.592-1.32-1.32v-1.32h13.196v1.32zm-13.196-3.958v-2.64h13.196v2.64H25.402zm14.515-5.279H24.082c-.909 0-1.649-.74-1.649-1.65 0-.909.74-1.649 1.65-1.649h15.834c.91 0 1.65.74 1.65 1.65 0 .91-.74 1.649-1.65 1.649zM5.608 22.433a1.32 1.32 0 000-2.64H2.573a1.32 1.32 0 000 2.64h3.035zM8.484 33.166l-5.257 3.035a1.32 1.32 0 101.32 2.286l5.257-3.035a1.32 1.32 0 10-1.32-2.286zM60.772 36.201l-5.256-3.035a1.32 1.32 0 10-1.32 2.286l5.257 3.035a1.32 1.32 0 101.32-2.285zM61.427 19.794h-3.035a1.32 1.32 0 000 2.64h3.035a1.32 1.32 0 000-2.64zM54.857 9.237c.224 0 .451-.057.659-.177l5.256-3.035a1.32 1.32 0 10-1.32-2.286l-5.256 3.036a1.32 1.32 0 00.661 2.462zM9.804 6.775L4.547 3.74a1.32 1.32 0 10-1.32 2.285L8.484 9.06a1.319 1.319 0 101.32-2.286z" fill="#000"/><path d="M36.32 28.679c.562-.845 1.656-1.977 2.653-2.974a9.981 9.981 0 002.16-3.227 9.801 9.801 0 00.764-3.796 9.832 9.832 0 00-2.9-6.998A9.832 9.832 0 0032 8.785a9.832 9.832 0 00-6.998 2.899 9.832 9.832 0 00-2.899 6.998 3.963 3.963 0 003.959 3.959 3.963 3.963 0 003.958-3.959c0-.529.206-1.026.58-1.4.374-.373.871-.58 1.4-.58.529 0 1.026.206 1.4.58.373.374.58.871.58 1.4 0 .269-.05.524-.148.758-.1.239-.254.463-.458.667-1.799 1.8-2.855 3.017-3.643 4.203-1.153 1.732-1.69 3.375-1.69 5.172 0 1.013.383 1.938 1.011 2.64a3.944 3.944 0 00-1.01 2.64A3.963 3.963 0 0032 38.72a3.963 3.963 0 003.959-3.959 3.942 3.942 0 00-1.012-2.64 3.943 3.943 0 001.012-2.64c0-.118.063-.354.36-.802zm-4.392-2.907c.686-1.031 1.646-2.131 3.313-3.799a4.58 4.58 0 001.377-3.29c0-1.235-.48-2.395-1.352-3.267A4.588 4.588 0 0032 14.064c-1.234 0-2.394.48-3.266 1.352a4.588 4.588 0 00-1.353 3.266 1.321 1.321 0 01-2.64 0 7.21 7.21 0 012.127-5.132A7.21 7.21 0 0132 11.424a7.21 7.21 0 015.132 2.126 7.21 7.21 0 012.126 5.132c0 .955-.189 1.89-.56 2.779a7.357 7.357 0 01-1.592 2.378c-1.563 1.563-2.427 2.542-2.984 3.378-.547.823-.803 1.543-.803 2.265 0 .728-.592 1.32-1.32 1.32-.727 0-1.319-.592-1.319-1.32 0-1.27.385-2.414 1.248-3.71zm1.392 8.99c0 .727-.592 1.319-1.32 1.319-.728 0-1.32-.592-1.32-1.32 0-.728.592-1.32 1.32-1.32.728 0 1.32.592 1.32 1.32zM21.35 5.745a1.32 1.32 0 000-2.639 1.32 1.32 0 100 2.64z" fill="#000"/></g><defs><clipPath id="aclip0_354_2328"><path fill="#fff" d="M0 0h64v64H0z"/></clipPath></defs></svg>