<?xml version="1.0" encoding="utf-8"?><svg width="40" height="40" fill="none" xmlns="http://www.w3.org/2000/svg" viewBox="0 0 40 40"><g clip-path="url(#bclip0_372_7043)"><path d="M16 17.333v.68c0 .36-.293.653-.653.654A2.664 2.664 0 0012.78 20.6l-.027.093s-1.293.734-1.42-.026c-.113-.679-.777-5.5-.666-6 .56-2.573 6-2.667 6-2.667v1.334c-2 1.333-.667 4-.667 4z" fill="#9CA0A2"/><path d="M35.333 6.667V8a.669.669 0 01-.667.667h-3.333V6h3.333a.669.669 0 01.667.667z" fill="#E6E6E6"/><path d="M32.667 6.053v2.56a.745.745 0 01-.534.747l-2.8.64H28V4.667h1.333l2.8.64a.746.746 0 01.534.746z" fill="#E6E6E6"/><path d="M29.334 4.667V10A1.337 1.337 0 0128 11.333h-5.333v-8H28a1.337 1.337 0 011.334 1.334z" fill="#9CA0A2"/><path d="M24 4v6.667A1.337 1.337 0 0122.667 12h-2a.668.668 0 01-.667-.667L18.667 12V2.667L20 3.333a.66.66 0 01.667-.666h2A1.337 1.337 0 0124 4z" fill="#9CA0A2"/><path d="M20.194 2.86a.676.676 0 00-.194.473V12a1.337 1.337 0 01-1.333 1.333h-3.334s-3.02.334-3.58 2.907c-.233 1.06-.053 2.487.914 4.427l.087.026-2.02 7.074A1.755 1.755 0 0012.42 30l2.913.667-12 .666V30l.94-.94c.251-.25.393-.591.393-.947v-2.78c.07-3.057.561-6.09 1.46-9.013a1.993 1.993 0 00-1.107-2.387l-3.166-1.406A1.997 1.997 0 01.667 10.7V4a1.997 1.997 0 012-2h4.507a2.01 2.01 0 001.413-.587l.16-.16A2.01 2.01 0 0110.16.667h5.954c.362 0 .717.1 1.026.286L20 2.667l.194.193z" fill="#DB7A09"/><path d="M22.667 35.093v2.194a1.32 1.32 0 01-.593 1.106L21 39.107a1.31 1.31 0 01-.74.226H5.334a2.666 2.666 0 01-2.667-2.666V31.22c0-.355.142-.696.393-.947L3.334 30h13.6c1.506 0 2.92.727 3.793 1.953l1.693 2.367c.16.226.247.496.247.773z" fill="#000"/><path d="M22.667 35.093V36h-20v-4.78c0-.355.142-.696.393-.947L3.334 30h13.6c1.506 0 2.92.727 3.793 1.953l1.693 2.367c.16.226.247.496.247.773z" fill="#DB7A09"/><path d="M18.194 2.86a.677.677 0 00-.194.473V12a1.337 1.337 0 01-1.333 1.333h-3.334s-3.02.334-3.58 2.907c-.233 1.06-.053 2.487.914 4.427l.087.026-2.02 7.074A1.755 1.755 0 0010.42 30l2.913.667-10 .553V30l.94-.94c.251-.25.393-.591.393-.947v-2.78c.07-3.057.561-6.09 1.46-9.013a1.993 1.993 0 00-1.107-2.387l-3.166-1.406A1.997 1.997 0 01.667 10.7V4a1.997 1.997 0 012-2h4.507a2.01 2.01 0 001.413-.587l.16-.16A2.01 2.01 0 0110.16.667h3.954c.362 0 .717.1 1.026.286L18 2.667l.194.193z" fill="#F5890A"/><path d="M20.667 36v1.287c.008.432-.19.843-.534 1.106l-.966.714a1.098 1.098 0 01-.666.226H5.067a2.543 2.543 0 01-2.4-2.666V36h18z" fill="#000"/><path d="M2.667 36v-4.78a1.416 1.416 0 01.354-.947L3.267 30h12.24a4.077 4.077 0 013.414 1.953l1.524 2.367c.146.231.223.5.222.773V36h-18z" fill="#F5890A"/><path d="M6 4.667H4a.667.667 0 00-.666.666v3.549c0 .273.166.518.419.619l2 .8a.666.666 0 00.914-.619V5.333a.667.667 0 00-.666-.666z" fill="#8F5006"/><path d="M28 12h-4a.667.667 0 01-.667-.667v-8c0-.368.299-.666.667-.666h4a2.002 2.002 0 012 2V10a2.002 2.002 0 01-2 2zm-3.334-1.333H28a.668.668 0 00.666-.667V4.667A.668.668 0 0028 4h-3.334v6.667z" fill="#000"/><path d="M29.334 10.667a.667.667 0 01-.667-.667V4.667a.667.667 0 01.815-.65l2.798.639a1.416 1.416 0 011.054 1.397v2.56a1.416 1.416 0 01-1.054 1.397l-2.798.64a.663.663 0 01-.148.017zM30 5.502v3.662l1.983-.453A.41.41 0 0032 8.614V6.053a.144.144 0 00-.034-.104L30 5.502z" fill="#000"/><path d="M34.667 9.333h-2A.667.667 0 0132 8.667V6c0-.368.298-.667.667-.667h2c.736.001 1.332.598 1.333 1.334V8c0 .736-.597 1.333-1.333 1.333zM33.333 8h1.335l-.001-1.333h-1.334V8zM22.666 12.667h-2a1.335 1.335 0 01-1.333-1.334v-8c0-.736.597-1.332 1.333-1.333h2a2.002 2.002 0 012 2v6.667a2.002 2.002 0 01-2 2zm-2-9.334v8h2a.668.668 0 00.667-.666V4a.668.668 0 00-.667-.667h-2z" fill="#000"/><path d="M21.333 6H20a.667.667 0 110-1.333h1.333a.667.667 0 010 1.333zM21.333 10H20a.667.667 0 110-1.333h1.333a.667.667 0 010 1.333z" fill="#000"/><path d="M20.263 40H5.333A3.337 3.337 0 012 36.666V31.22c-.001-.53.21-1.04.586-1.414l1.219-1.22a.663.663 0 00.195-.47v-2.782c.073-3.12.574-6.215 1.486-9.2a1.331 1.331 0 00-.738-1.59l-3.164-1.406A2.669 2.669 0 010 10.7V4a2.67 2.67 0 012.667-2.667H7.17c.354.001.694-.14.944-.39L8.276.78A2.649 2.649 0 0110.162 0h5.95c.484 0 .958.131 1.373.38l2.858 1.715a.667.667 0 01-.686 1.143l-2.858-1.715a1.333 1.333 0 00-.686-.19h-5.951c-.354 0-.694.14-.943.39l-.162.162a2.649 2.649 0 01-1.886.782H2.667c-.736 0-1.333.597-1.334 1.333v6.7c0 .527.31 1.004.792 1.219l3.164 1.406a2.667 2.667 0 011.475 3.188 32.85 32.85 0 00-1.43 8.82v2.781c0 .531-.21 1.04-.587 1.415L3.53 30.747a.663.663 0 00-.196.472v5.448a2.002 2.002 0 002 2h14.93c.131 0 .26-.04.37-.112l1.07-.714a.666.666 0 00.297-.555v-2.192a.663.663 0 00-.124-.388l-1.69-2.365a4.009 4.009 0 00-3.254-1.675H12.42a2.421 2.421 0 01-2.327-3.085l2.047-7.164A3.348 3.348 0 0115.345 18l-.01-.511c-.522-1.16-.927-3.452.962-4.71a.667.667 0 01.37-.113h2a.667.667 0 00.666-.666v-2a.667.667 0 111.334 0v2a2.002 2.002 0 01-2 2h-1.782c-1.268 1.034-.3 3.015-.289 3.035.046.093.07.195.07.298v.68c0 .729-.59 1.32-1.32 1.32a2.01 2.01 0 00-1.925 1.45l-2.046 7.164a1.088 1.088 0 001.045 1.386h4.512a5.343 5.343 0 014.34 2.234l1.689 2.364c.243.34.373.746.372 1.163v2.192c.001.67-.333 1.294-.89 1.664l-1.07.714c-.329.22-.715.336-1.11.336z" fill="#000"/><path d="M6 11.016c-.17 0-.337-.033-.495-.096l-2-.8a1.327 1.327 0 01-.838-1.238V5.333C2.667 4.597 3.264 4.001 4 4h2c.736 0 1.333.597 1.334 1.333v4.349c0 .736-.597 1.333-1.334 1.334zM4 5.333v3.549l2 .8V5.333H4zM39.334 8h-4a.667.667 0 010-1.333h4a.667.667 0 010 1.333zM12.668 21.333a.666.666 0 01-.597-.368c-1.209-2.417-1.404-4.41-.58-5.925 1.117-2.052 3.661-2.357 3.77-2.37a.643.643 0 01.073-.003h1.333a.667.667 0 010 1.333h-1.289c-.248.037-1.995.341-2.72 1.684-.598 1.109-.395 2.685.605 4.684a.667.667 0 01-.595.965zM13.334 30.667h-10a.667.667 0 010-1.334h10a.667.667 0 110 1.334zM22.667 36.667h-20a.667.667 0 010-1.334h20a.667.667 0 110 1.334zM26.666 6.667H24a.667.667 0 110-1.334h2.666a.667.667 0 010 1.334zM16.666 5.333H10A.667.667 0 0110 4h6.666a.667.667 0 010 1.333zM16.666 8H10a.667.667 0 010-1.333h6.666a.667.667 0 010 1.333zM16.666 10.667H10a.667.667 0 010-1.334h6.666a.667.667 0 010 1.334z" fill="#000"/></g><defs><clipPath id="bclip0_372_7043"><path fill="#fff" d="M0 0h40v40H0z"/></clipPath></defs></svg>