<?xml version="1.0" encoding="utf-8"?><svg width="40" height="40" fill="none" xmlns="http://www.w3.org/2000/svg" viewBox="0 0 40 40"><g clip-path="url(#mclip0_372_6984)"><path d="M32.676 3.448l-10.88 10.88 1.89 1.89 10.88-10.88-1.89-1.89zM4.853 30.209L3.42 31.641a1.491 1.491 0 000 2.11h.001c.28.28.659.437 1.055.437h8.331l-7.954-3.979z" fill="#CFD8DC"/><path d="M33.847 6.06l1.89-.945 1.418-1.418a.668.668 0 000-.945l-1.89-1.89a.668.668 0 00-.945 0L32.902 2.28l-.945 1.89 1.89 1.89z" fill="#CFD8DC"/><path d="M24.866 15.04l-1.887 3.78-4.864 4.864-3.78-3.78 4.864-4.864 3.78-1.894 1.887 1.894z" fill="#607D8B"/><path d="M20.623 21.18l2.361-2.361-3.78-3.78-2.362 2.361 3.78 3.78z" fill="#CFD8DC"/><path d="M27.229 27.796l1.89-1.89-4.723-4.724-1.89 1.89 4.723 4.724z" fill="#607D8B"/><path d="M21.966 33.807l-3.546 3.806-.64-.366-.194-.1-12.68-6.587a.663.663 0 01-.166-1.06l8.893-8.887 1.313-1.32 3.78 3.78 2.834 10.394.407.34z" fill="#C26C08"/><path d="M20.047 34.52l-2.46 2.627-12.68-6.587a.663.663 0 01-.167-1.06l8.893-8.887L16.8 23.78l2.84 10.393.407.347z" fill="#F5890A"/><path d="M18.254 32.995l.195-.195a.668.668 0 00.17-.656l-1.47-5.145a.668.668 0 00-1.116-.29l-2.032 2.033a.668.668 0 000 .945l3.308 3.308a.668.668 0 00.945 0z" fill="#F5D50A"/><path d="M25.816 33.94l-5.2 5.2a.667.667 0 01-.944 0l-1.89-1.892 5.67-5.671c.261-.26.683-.26.944 0l1.42 1.42c.26.26.26.682 0 .942z" fill="#CFD8DC"/><path d="M24.424 35.224l-4.015 4.015a.667.667 0 01-.943 0l-1.89-1.892 4.485-4.485c.26-.26.682-.26.943 0l1.42 1.42c.26.26.26.682 0 .942z" fill="#F4F4F4"/><path d="M33.848 6.727a.665.665 0 01-.472-.195l-1.89-1.891a.666.666 0 01-.125-.77l.945-1.89a.676.676 0 01.125-.173L33.85.391a1.335 1.335 0 011.888 0l1.89 1.89c.52.522.52 1.366 0 1.888L36.21 5.586a.663.663 0 01-.173.125l-1.89.946a.663.663 0 01-.298.07zm-1.08-2.689L33.98 5.25l1.363-.682 1.341-1.34-1.89-1.893-1.343 1.34-.682 1.364z" fill="#000"/><path d="M24.87 15.705a.665.665 0 01-.472-.195l-1.89-1.89a.666.666 0 010-.943l8.978-8.979a.667.667 0 01.943 0l1.89 1.89a.667.667 0 010 .944L25.34 15.51a.665.665 0 01-.472.195zm-.948-2.557l.947.947 8.036-8.035-.948-.948-8.035 8.036z" fill="#000"/><path d="M30.067 11.452a.667.667 0 01-.667-.666V5.115a.667.667 0 111.334 0v5.67a.667.667 0 01-.667.667zM27.232 14.287a.666.666 0 01-.667-.666V7.95a.667.667 0 011.334 0v5.67a.666.666 0 01-.667.666zM22.98 19.485a.665.665 0 01-.472-.195l-3.78-3.78a.666.666 0 01.173-1.068l3.78-1.89a.665.665 0 01.77.125l1.89 1.89a.667.667 0 01.125.77l-1.89 3.78a.668.668 0 01-.597.368zm-2.655-4.264l2.472 2.471 1.261-2.522-1.21-1.21-2.523 1.261z" fill="#000"/><path d="M18.726 23.738a.667.667 0 01-.471-.195l-3.78-3.78a.666.666 0 010-.944l4.252-4.252a.666.666 0 01.943 0l3.78 3.78a.666.666 0 010 .942l-4.252 4.254a.666.666 0 01-.472.195zm-2.837-4.447l2.837 2.838 3.31-3.31L19.2 15.98l-3.31 3.31zM27.232 28.463a.664.664 0 01-.472-.195l-4.252-4.253a.666.666 0 010-.942l1.89-1.89a.686.686 0 01.942 0l4.253 4.253a.666.666 0 010 .942l-1.89 1.89a.664.664 0 01-.471.195zm-3.31-4.919l3.31 3.31.947-.947-3.31-3.31-.947.947z" fill="#000"/><path d="M22.034 24.21a.667.667 0 01-.472-1.137l2.835-2.835a.667.667 0 01.943.942l-2.835 2.835a.665.665 0 01-.471.196zM26.76 28.936a.667.667 0 01-.472-1.138l2.835-2.835a.667.667 0 01.943.942l-2.835 2.836a.665.665 0 01-.472.195zM17.781 37.914a.67.67 0 01-.307-.075L4.596 31.154a1.333 1.333 0 01-.328-2.127L14.475 18.82a.667.667 0 01.943 0l3.78 3.78a.667.667 0 01.172.296l2.835 10.396a.667.667 0 01-.172.647l-3.78 3.78a.666.666 0 01-.472.195zm-2.835-17.68L5.21 29.97l12.445 6.46 3.162-3.16-2.687-9.852-3.184-3.184z" fill="#000"/><path d="M23.451 22.793a.664.664 0 01-.471-.195l-1.89-1.89a.666.666 0 11.942-.943l1.89 1.89a.667.667 0 01-.47 1.138zM17.781 33.857c-.354.001-.694-.14-.944-.39l-3.307-3.309a1.334 1.334 0 010-1.888l2.032-2.032a1.334 1.334 0 012.227.578l1.47 5.145c.133.466.003.967-.339 1.31l-.194.194v.001c-.25.251-.59.392-.945.391zm-1.274-6.675l-2.035 2.031 3.782 3.782-.472-.471.195-.195-1.47-5.148zM13.528 26.1a.665.665 0 01-.472-.195l-.472-.472a.667.667 0 01.943-.943l.473.473a.667.667 0 01-.472 1.138zM15.418 24.21a.664.664 0 01-.47-.195l-.473-.472a.667.667 0 01.942-.943l.473.473a.667.667 0 01-.472 1.138zM11.638 27.99a.664.664 0 01-.471-.195l-.473-.472a.666.666 0 11.943-.943l.473.473a.667.667 0 01-.472 1.138zM20.617 21.848a.664.664 0 01-.472-.195l-3.78-3.78a.666.666 0 11.943-.944l3.78 3.781a.667.667 0 01-.471 1.138zM12.474 35.188H4.142a2.16 2.16 0 01-1.527-3.685l1.433-1.432a.667.667 0 01.943.943l-1.433 1.432a.825.825 0 00.584 1.409h8.332a.667.667 0 110 1.333zM20.144 40c-.354 0-.693-.14-.943-.39l-1.891-1.891a.666.666 0 010-.943l5.671-5.671a1.335 1.335 0 011.885 0l1.42 1.42a1.333 1.333 0 010 1.885l-5.2 5.2c-.25.25-.589.39-.942.39zm-1.42-2.753l1.42 1.42 5.2-5.2-1.42-1.42-5.2 5.2z" fill="#000"/></g><defs><clipPath id="mclip0_372_6984"><path fill="#fff" d="M0 0h40v40H0z"/></clipPath></defs></svg>