<?xml version="1.0" encoding="utf-8"?><svg width="64" height="64" fill="none" xmlns="http://www.w3.org/2000/svg" viewBox="0 0 64 64"><path d="M63.92 30.664a4 4 0 00-.84-1.769l-7.921-9.568a3.974 3.974 0 00-3.072-1.445H50.15a.938.938 0 000 1.875h1.937c.63 0 1.224.279 1.627.765l.747.902h-4.533c-1.334 0-2.419 1.134-2.419 2.529v5.3c0 1.396 1.085 2.53 2.419 2.53H62.12v13.905c0 .725-.59 1.315-1.315 1.315h-.678a6.786 6.786 0 00-3.502-4.916c-4.105-2.19-9.16.34-9.878 4.916h-2.81V20.267a.51.51 0 01.51-.51h1.953a.937.937 0 100-1.875h-1.953c-.175 0-.346.019-.51.055v-6.15A2.19 2.19 0 0041.751 9.6H11.19a.937.937 0 100 1.875h30.56c.172 0 .313.14.313.312V35.42H1.873V11.788c0-.173.14-.313.313-.313h5.255a.938.938 0 000-1.875H2.187A2.19 2.19 0 000 11.788v32.43c0 2.57 2.09 4.66 4.66 4.66h4.712a6.77 6.77 0 006.712 5.958 6.779 6.779 0 006.737-5.958h7.31a.936.936 0 100-1.875h-7.346c-1.19-7.545-12.188-7.606-13.38 0H4.66a2.788 2.788 0 01-2.785-2.785v-.08h2.33c.689 0 1.336-.269 1.823-.755 1.616-1.62.468-4.402-1.823-4.402h-2.33v-1.679h40.188v9.7H33.88a.938.938 0 000 1.875h12.835a6.761 6.761 0 003.536 5.163 6.778 6.778 0 009.913-5.162h.642a3.194 3.194 0 003.19-3.19c0-15.531.031-14.48-.077-15.024zm-13.992-.757c-.3 0-.544-.292-.544-.653v-5.301c0-.361.244-.654.544-.654h6.085l5.47 6.608H49.928zM20.876 47.004c.133.584.12 1.06.12 1.06a4.899 4.899 0 01-3.473 4.687c-3.149.955-6.326-1.4-6.326-4.689-.021-5.95 8.547-6.615 9.68-1.058zM4.205 40.855c.625 0 .939.76.497 1.202-.27.27-.31.206-2.827.206v-1.407h2.33zm54.135 7.209a4.9 4.9 0 01-3.474 4.686c-4.189 1.27-7.786-3.175-5.75-6.991 2.371-4.452 9.224-2.812 9.224 2.303v.002z" fill="#000"/><path d="M16.095 51.822c2.538 0 4.309-2.457 3.606-4.82-1.055-3.586-6.155-3.585-7.21 0-.708 2.38 1.084 4.82 3.604 4.82zm-1.556-4.82a1.883 1.883 0 013.114 0c.858 1.26-.06 2.945-1.558 2.945-1.504 0-2.408-1.694-1.556-2.944zM49.835 47.002c-.703 2.363 1.068 4.82 3.606 4.82a3.764 3.764 0 003.758-3.758c0-4.36-6.156-5.169-7.364-1.062zm5.303 1.875a1.883 1.883 0 01-1.697 1.07c-1.507 0-2.41-1.694-1.558-2.945a1.884 1.884 0 013.255 1.875zM51.659 35.222a.938.938 0 000-1.875h-3.107a.937.937 0 000 1.875h3.107z" fill="#F5890A"/></svg>