<?xml version="1.0" encoding="utf-8"?><svg width="40" height="40" fill="none" xmlns="http://www.w3.org/2000/svg" viewBox="0 0 40 40"><g clip-path="url(#sclip0_372_6920)"><path d="M36.666 17.66a10.343 10.343 0 11-20.687.02 10.343 10.343 0 0120.687-.02z" fill="#CFD8DC"/><path d="M35.333 16.327a10.328 10.328 0 01-16.94 7.94A10.328 10.328 0 0132.94 9.72a10.273 10.273 0 012.393 6.607z" fill="#F5F5F5"/><path d="M26.333 23.66a6 6 0 100-12 6 6 0 000 12z" fill="#CFD8DC"/><path d="M35.493 27.44a6.002 6.002 0 00-4.827 5.887h8.667V28.66c.001-.326-.12-.64-.34-.88l-3.5-.34z" fill="#607D8B"/><path d="M34.379 27.44c-2.118.547-3.713 2.973-3.713 5.887h6.667V28.66a1.529 1.529 0 00-.262-.88l-2.692-.34z" fill="#CFD8DC"/><path d="M2 35.327h2.667v3.333a.667.667 0 01-.667.667H2.667A.667.667 0 012 38.66v-3.333zM35.333 35.327H38v3.333a.667.667 0 01-.667.667H36a.667.667 0 01-.667-.667v-3.333zM3.333 29.327H16c.736 0 1.333.597 1.333 1.333v4H2v-4c0-.736.597-1.333 1.333-1.333z" fill="#607D8B"/><path d="M3.333 29.327H14c.736 0 1.333.597 1.333 1.333v4H2v-4c0-.736.597-1.333 1.333-1.333z" fill="#CFD8DC"/><path d="M1.334 33.327h37.999v2a.667.667 0 01-.667.666H1.334a.667.667 0 01-.667-.666v-1.334c0-.368.298-.666.667-.666z" fill="#CFD8DC"/><path d="M1.334 33.326h35.999v2a.667.667 0 01-.667.667H1.334a.667.667 0 01-.667-.667v-1.333c0-.368.298-.667.667-.667z" fill="#F5F5F5"/><path d="M35.333 26.66l-.02-.02.02.02z" fill="#F3D55B"/><path d="M17.314 3.309L12.424.733a.659.659 0 00-.76.15l-.583.582a.63.63 0 00-.056.886L15.172 6.5l2.211-2.212a.607.607 0 00-.07-.978z" fill="#FF5722"/><path d="M37.287 24.66l-1.974 1.98L18 9.327l-.86-.86L15.174 6.5l1.886-1.886.84.84 1.32 1.32a13.008 13.008 0 0115.573 1.02c.254.213.494.433.734.673a13.011 13.011 0 011.76 16.193z" fill="#C26C08"/><path d="M35.96 23.347l-1.967 1.973L18 9.327l-.86-.86L15.174 6.5l1.88-1.88.84.84c.002 0 .003 0 .005-.002a.006.006 0 00.001-.004l1.32 1.32a13.008 13.008 0 0115.573 1.02 13.009 13.009 0 011.167 15.553z" fill="#F5890A"/><path d="M37.333 28.66a2 2 0 100-4 2 2 0 000 4z" fill="#607D8B"/><path d="M38.666 36.66H1.333A1.335 1.335 0 010 35.327v-1.334c0-.736.597-1.332 1.333-1.333h38c.368 0 .666.298.666.667v2c0 .736-.597 1.332-1.333 1.333zM1.333 33.993v1.334h37.334v-1.334H1.332z" fill="#000"/><path d="M4 39.993H2.666a1.335 1.335 0 01-1.333-1.333v-2.667c0-.368.299-.666.667-.666h2.666c.368 0 .667.298.667.666v2.667c0 .736-.597 1.333-1.333 1.333zM2.666 36.66v2h1.335l-.001-2H2.666zM37.333 39.993h-1.334a1.335 1.335 0 01-1.333-1.333v-2.667c0-.368.298-.666.667-.666h2.666c.368 0 .667.298.667.666v2.667c0 .736-.597 1.333-1.333 1.333zm-1.334-3.333v2h1.335l-.001-2h-1.334zM39.332 33.993h-8.666a.667.667 0 110-1.333h8v-4a.627.627 0 00-.165-.43.666.666 0 11.983-.9c.332.364.516.838.515 1.33v4.667a.667.667 0 01-.667.666z" fill="#000"/><path d="M30.666 33.993a.667.667 0 01-.667-.666 6.682 6.682 0 015.363-6.541.667.667 0 11.26 1.308 5.345 5.345 0 00-4.29 5.233.667.667 0 01-.666.666z" fill="#000"/><path d="M35.332 27.327a.664.664 0 01-.471-.196L16.668 8.938a.666.666 0 010-.943 13.666 13.666 0 0121.18 17.024.667.667 0 01-1.124-.718A12.333 12.333 0 0018.094 8.48l17.71 17.709a.667.667 0 01-.472 1.138z" fill="#000"/><path d="M26.333 28.66a11 11 0 01-7.779-18.777.667.667 0 11.945.94 9.666 9.666 0 1013.67 13.671.666.666 0 11.94.945 10.951 10.951 0 01-7.776 3.22z" fill="#000"/><path d="M26.333 24.327a6.663 6.663 0 01-4.711-11.378.667.667 0 01.942.943 5.33 5.33 0 107.537 7.537.667.667 0 01.943.943 6.62 6.62 0 01-4.711 1.955zM15.172 7.165a.664.664 0 01-.472-.195l-4.147-4.147a1.297 1.297 0 01.056-1.829l.584-.583a1.331 1.331 0 011.543-.267l4.889 2.575c.337.177.57.506.623.883a1.36 1.36 0 01-.394 1.157l-2.21 2.21a.665.665 0 01-.472.196zm-3.62-5.228l3.62 3.619 1.717-1.717-4.775-2.516-.562.614z" fill="#000"/><path d="M18 9.994a.664.664 0 01-.472-.196l-2.827-2.826a.666.666 0 010-.943l1.887-1.886a.666.666 0 01.942 0l2.16 2.16a.667.667 0 01-.942.942l-1.689-1.688-.944.943 2.356 2.356a.667.667 0 01-.472 1.138zM17.333 33.993H2a.667.667 0 01-.667-.666V30.66a2.002 2.002 0 012-2h12.666a2.002 2.002 0 012 2v2.667a.667.667 0 01-.666.666zM2.666 32.66h14v-2a.668.668 0 00-.667-.667H3.333a.668.668 0 00-.667.667v2zM37.333 29.327a2.667 2.667 0 110-5.334 2.667 2.667 0 010 5.334zm0-4a1.333 1.333 0 100 2.666 1.333 1.333 0 000-2.666z" fill="#000"/></g><defs><clipPath id="sclip0_372_6920"><path fill="#fff" d="M0 0h40v40H0z"/></clipPath></defs></svg>