<?xml version="1.0" encoding="utf-8"?><svg width="64" height="64" fill="none" xmlns="http://www.w3.org/2000/svg" viewBox="0 0 64 64"><path d="M18.596 46.532v1.285c0 .466.38.844.85.844s.85-.378.85-.844v-1.285a.847.847 0 00-.85-.844c-.47 0-.85.378-.85.844zm34.766-10.92H31.98c-.47 0-.85.377-.85.843 0 .467.38.844.85.844h21.382c.47 0 .85-.377.85-.843a.847.847 0 00-.85-.844zm-36.266 15.23a1.86 1.86 0 01-1.772 0 .853.853 0 00-1.154.334.84.84 0 00.336 1.145c.51.278 1.086.428 1.666.434a3.675 3.675 0 001.74-.434.84.84 0 00.337-1.145.853.853 0 00-1.153-.334zm-4.123-5.154c-.469 0-.85.378-.85.844v1.285c0 .466.381.844.85.844.47 0 .85-.378.85-.844v-1.285a.847.847 0 00-.85-.844zm47.36 3.098a.846.846 0 00-.899-.791.846.846 0 00-.797.893l.459 7.54a2.496 2.496 0 01-.69 1.888 2.534 2.534 0 01-1.856.796H7.45c-.71 0-1.37-.282-1.856-.796a2.496 2.496 0 01-.69-1.887L6.34 32.844H16.56c.47 0 .85-.378.85-.844a.847.847 0 00-.85-.844H6.339L4.905 7.571a2.496 2.496 0 01.689-1.887 2.534 2.534 0 011.856-.797h49.1c.71 0 1.37.283 1.857.797.487.513.731 1.183.688 1.887l-1.434 23.585H20.526c-.47 0-.85.378-.85.844 0 .466.38.844.85.844h37.135l.736 12.096a.847.847 0 00.9.792.846.846 0 00.797-.893L59.313 32l1.48-24.327a4.16 4.16 0 00-1.149-3.146A4.224 4.224 0 0056.55 3.2H7.45a4.224 4.224 0 00-3.094 1.327 4.16 4.16 0 00-1.148 3.146L4.688 32l-1.48 24.327a4.16 4.16 0 001.148 3.146A4.224 4.224 0 007.45 60.8h49.1a4.224 4.224 0 003.094-1.327 4.16 4.16 0 001.148-3.146l-.458-7.54zm-6.971-8.112H31.98c-.47 0-.85.378-.85.844 0 .466.38.844.85.844h21.382c.47 0 .85-.378.85-.844a.847.847 0 00-.85-.844zm.85 5.907a.847.847 0 00-.85-.844H31.98c-.47 0-.85.377-.85.843 0 .467.38.844.85.844h21.382c.47 0 .85-.377.85-.843zm-45.56-7.248v9.509c0 4.137 3.39 7.502 7.558 7.502 4.167 0 7.557-3.365 7.557-7.502v-9.508c0-2.053-1.681-3.722-3.749-3.722h-7.617c-2.067 0-3.749 1.67-3.749 3.721zm13.416 9.509c0 3.206-2.628 5.815-5.858 5.815-3.23 0-5.858-2.609-5.858-5.815v-4.024l6.574-1.516a3.885 3.885 0 012.396.216l2.746 1.184v4.14zm0-9.508v3.528l-2.07-.892a5.607 5.607 0 00-3.457-.312l-6.189 1.428v-3.752c0-1.122.92-2.035 2.05-2.035h7.617c1.13 0 2.049.913 2.049 2.035z" fill="#000"/><path fill-rule="evenodd" clip-rule="evenodd" d="M33.92 55.518a.85.85 0 00.868.826c1.182-.025 2.75-.252 4.172-1.089.586.291 1.214.523 1.82.691 1.022.285 1.915.404 2.68.404 1.533 0 2.551-.48 3.059-1.07.33-.383.486-.821.586-1.2.14.199.317.478.532.868a.853.853 0 001.153.336.84.84 0 00.339-1.145c-.662-1.203-1.482-2.4-2.548-2.16-.775.176-.944.915-1.056 1.404-.07.304-.141.619-.299.801-.425.495-2.033.682-3.987.138a8.962 8.962 0 01-.782-.259c.579-.58 1.302-1.477 1.07-2.595-.143-.683-.603-1.307-1.263-1.712-.626-.385-1.343-.511-1.97-.348-1.092.286-2.142 1.63-1.903 3.102.1.624.454 1.178.957 1.657-.907.362-1.846.474-2.596.49a.847.847 0 00-.832.861zm5.449-4.328c-.208-.127-.433-.204-.641-.15-.375.098-.733.75-.66 1.202.055.336.36.68.8.998.407-.365 1.088-.98.994-1.43-.047-.224-.236-.461-.493-.62z" fill="#F5890A"/><path d="M21.116 19.283c.282.31.728.493 1.194.493.44 0 .69-.256.722-.43.035-.198-.28-.388-.561-.49-1.04-.381-1.395-.506-1.693-.699a1.838 1.838 0 01-.829-1.825c.111-.77.675-1.396 1.471-1.634 1.222-.365 2.36.214 2.84.615.358.3.405.832.103 1.188a.854.854 0 01-1.192.108c-.022-.017-.628-.484-1.26-.295-.19.057-.382.246-.238.403.21.09.778.332 1.386.555 1.434.525 1.79 1.569 1.646 2.37-.19 1.056-1.197 1.822-2.395 1.822-.952 0-1.846-.382-2.453-1.047a.84.84 0 01.059-1.192.854.854 0 011.2.058zM27.365 19.283c.282.309.728.493 1.194.493.44 0 .69-.256.722-.43.035-.198-.28-.388-.561-.491-1.04-.38-1.394-.505-1.693-.698a1.839 1.839 0 01-.83-1.825c.112-.77.676-1.396 1.472-1.634 1.222-.365 2.36.214 2.839.614.36.3.406.833.104 1.19a.854.854 0 01-1.192.107c-.024-.019-.63-.484-1.26-.295-.19.057-.383.246-.238.403.21.09.778.332 1.386.555 1.433.525 1.79 1.569 1.646 2.37-.19 1.056-1.197 1.822-2.395 1.822-.952 0-1.846-.382-2.454-1.047a.84.84 0 01.06-1.192.855.855 0 011.2.058zM54.619 20.62c0 .466-.38.844-.85.844a.847.847 0 01-.85-.844v-4.352h-.59a.847.847 0 01-.85-.844c0-.466.38-.843.85-.843h2.891c.47 0 .85.377.85.843 0 .466-.38.844-.85.844h-.601v4.352z" fill="#F5890A"/><path fill-rule="evenodd" clip-rule="evenodd" d="M44.836 18.022c0-1.897-1.555-3.441-3.467-3.441-1.912 0-3.467 1.544-3.467 3.441 0 1.898 1.555 3.442 3.467 3.442 1.912 0 3.467-1.544 3.467-3.442zm-3.467-1.754c-.974 0-1.767.787-1.767 1.754 0 .968.793 1.754 1.767 1.754.974 0 1.767-.787 1.767-1.754s-.793-1.754-1.767-1.754zM33.786 20.62v-1.417c.232-.002.461-.002.607-.002 1.3 0 2.356-1.037 2.356-2.31 0-1.274-1.057-2.31-2.356-2.31h-1.457c-.419-.01-.867.367-.85.843v5.196c0 .466.38.844.85.844s.85-.378.85-.844zm1.263-3.73c0-.337-.3-.622-.656-.622h-.605v.36l.003.887.602-.002c.356 0 .656-.285.656-.622zM50.604 16.775c0-1.21-1.026-2.194-2.287-2.194h-1.393c-.47 0-.85.377-.85.843v5.196c0 .466.38.844.85.844s.85-.378.85-.844v-.956l1.342 1.514a.85.85 0 001.2.076.84.84 0 00.076-1.191l-1.141-1.287c.796-.344 1.353-1.11 1.353-2.001zm-2.823.508l.536-.002c.313 0 .587-.236.587-.506s-.274-.507-.587-.507h-.538l.002 1.015zM18.676 20.322L16.73 15.2l-.01-.022a.965.965 0 00-.895-.596.965.965 0 00-.896.597l-.002.003-.006.016-1.966 5.123a.842.842 0 00.492 1.089.855.855 0 001.097-.488l.281-.733h1.985l.277.73a.852.852 0 001.095.492.842.842 0 00.495-1.088zm-2.855-2.732l-.35.91h.696l-.346-.91zM8.78 14.58c-.418-.01-.867.37-.85.844v5.196c0 .466.38.844.85.844s.85-.378.85-.844v-1.417c.233-.002.462-.002.607-.002 1.3 0 2.356-1.037 2.356-2.31 0-1.274-1.056-2.31-2.355-2.31H8.78zm1.458 2.933c.355 0 .655-.285.655-.622 0-.338-.3-.623-.655-.623h-.606l.001.359.003.888.602-.002z" fill="#F5890A"/></svg>