<?xml version="1.0" encoding="utf-8"?><svg width="64" height="64" fill="none" xmlns="http://www.w3.org/2000/svg" viewBox="0 0 64 64"><path d="M33 10.764A2.99 2.99 0 0135 10h16a9 9 0 019 9v3a1 1 0 01-2 0v-3a7 7 0 00-4-6.326V16a4 4 0 01-4 4h-8a4 4 0 01-4-4v-4h-3a1 1 0 00-1 1v12a1 1 0 001 1h.343c1.326 0 2.598.527 3.536 1.464l3.657 3.657a2.996 2.996 0 002.121.879H55a3 3 0 003-3v-3a1 1 0 012 0v3a5 5 0 01-3.809 4.857l2.833 14.162a5.003 5.003 0 01-4.903 5.98h-1.842a5 5 0 01-4.903-4.018L45.38 40H42a3 3 0 01-3-3v-2a3 3 0 011.825-2.761l-3.361-3.36a2.996 2.996 0 00-2.121-.88H35a3 3 0 01-3-3v-.17a2.983 2.983 0 01-1 .17h-4a3 3 0 01-3-3v-2h-2a1 1 0 01-1.707.707L19.586 20H16a1 1 0 01-1.707.707L13.586 20H7a2.996 2.996 0 01-2.121-.88 2.996 2.996 0 010-4.241A2.996 2.996 0 017 13.999h1a1 1 0 011.707-.707l.707.708H14a1 1 0 011.707-.707l.707.707H24v-1a3 3 0 013-3h4a2.99 2.99 0 012 .764zM46.22 34l3.117 15.588A3 3 0 0052.279 52h1.842a3 3 0 002.942-3.588L54.18 34h-7.96zm-2.04 0H42a1 1 0 00-1 1v2a1 1 0 001 1h2.98l-.8-4zM30 12v11h1a1 1 0 001-1v-9a1 1 0 00-1-1h-1zm-2 0h-1a1 1 0 00-1 1v9a1 1 0 001 1h1V12zm12 0v4a2 2 0 002 2h8a2 2 0 002-2v-3.93a7.027 7.027 0 00-1-.07H40zm-19.586 6H24v-2h-5.586l2 2zm-6 0h3.172l-2-2h-3.172l2 2zm-4.828-2H7a.997.997 0 00-1 1 .997.997 0 001 1h4.586l-2-2z" fill="#000"/><path d="M55 24h-4a1 1 0 000 2h4a1 1 0 000-2zM47 26a1 1 0 100-2 1 1 0 000 2z" fill="#F5890A"/></svg>