<?xml version="1.0" encoding="utf-8"?><svg width="64" height="64" fill="none" xmlns="http://www.w3.org/2000/svg" viewBox="0 0 64 64"><path d="M61.305 52.365a.863.863 0 00-1.175.35c-.317.585-.924.948-1.585.948-.58 0-1.128-.284-1.466-.76a1.141 1.141 0 00-.928-.48c-.367 0-.714.18-.928.48-.338.476-.886.76-1.466.76s-1.128-.284-1.466-.76a1.142 1.142 0 00-.928-.48c-.367 0-.714.18-.928.48-.339.476-.887.76-1.467.76-.457 0-.882-.17-1.21-.473l3.584-3.611a3.71 3.71 0 00-.367-5.549c-.397-.406-1.064-.497-1.431-.002a.878.878 0 00.162 1.224c.54.358.938.921.972 1.585.093.82-.48 1.485-1.046 1.994l-10.856-8.359.918-.925a1.817 1.817 0 012.394-.16l4.61 3.548c.38.293.924.22 1.214-.164a.878.878 0 00-.162-1.224l-4.609-3.549a3.547 3.547 0 00-4.673.314l-3.276 3.3a1.55 1.55 0 01-2.02.165l-2.303-1.67a52.488 52.488 0 01-11.907-11.998l-1.658-2.32a1.579 1.579 0 01.163-2.035l3.276-3.301a3.614 3.614 0 00.311-4.708L15.068 7.85a3.653 3.653 0 00-5.507-.37l-5.433 5.474a8.701 8.701 0 00-2.335 7.968 40.45 40.45 0 004.003 10.862c.23.423.756.579 1.176.348a.877.877 0 00.346-1.186 38.704 38.704 0 01-3.83-10.39 6.953 6.953 0 011.866-6.366l3.711-3.74 8.297 10.938-1.121 1.13a3.329 3.329 0 00-.345 4.29l1.658 2.321a54.224 54.224 0 0012.302 12.395l2.303 1.67a3.268 3.268 0 004.259-.347l1.12-1.13 10.857 8.36-3.712 3.739a6.834 6.834 0 01-6.318 1.88 37.893 37.893 0 01-14.146-6.274l-1.765-1.265a48.827 48.827 0 01-11.484-11.57c-.315-.45-1.383-1.951-1.672-2.382a.863.863 0 00-1.205-.228.878.878 0 00-.226 1.214c.295.44 1.37 1.95 1.69 2.408A50.56 50.56 0 0021.45 49.582l1.766 1.265a39.609 39.609 0 0014.787 6.557 8.557 8.557 0 007.907-2.352l.62-.625a3.536 3.536 0 002.44.983 3.53 3.53 0 002.393-.942 3.53 3.53 0 002.395.942 3.53 3.53 0 002.394-.942 3.53 3.53 0 002.394.942 3.532 3.532 0 003.107-1.86.877.877 0 00-.347-1.185zM10.302 9.205l.484-.488c.784-.827 2.235-.73 2.904.195l5.987 7.893a1.852 1.852 0 01-.16 2.413l-.918.925-8.297-10.938z" fill="#000"/><path d="M54.251 10.109H38.936a.87.87 0 00-.867.873.87.87 0 00.867.873H54.25c3.537 0 6.415 2.9 6.415 6.464v7.075c0 3.564-2.878 6.463-6.415 6.463h-15.46c-.695 0-1.348.273-1.84.767l-4.079 4.11v-3.08c0-.941-.642-1.752-1.563-1.97-2.905-.692-4.934-3.278-4.934-6.29v-7.075c0-3.564 2.878-6.463 6.415-6.463h2.05a.87.87 0 00.867-.874.87.87 0 00-.867-.873h-2.05c-4.493 0-8.148 3.683-8.148 8.21v7.075c0 3.826 2.578 7.111 6.27 7.99a.285.285 0 01.227.27v4.064c0 .544.322 1.03.82 1.238a1.319 1.319 0 001.449-.29l4.77-4.806a.858.858 0 01.612-.256h15.461c4.493 0 8.149-3.683 8.149-8.21v-7.075c0-4.527-3.656-8.21-8.149-8.21z" fill="#000"/><path d="M45.241 26.576c.345 0 .67-.209.806-.55l3.258-8.255a.876.876 0 00-.485-1.134.865.865 0 00-1.126.488l-3.258 8.255c-.234.557.208 1.207.805 1.196zM52.885 26.662a.865.865 0 001.142-.448l3.601-8.254c.26-.552-.187-1.243-.793-1.225h-4.507a.87.87 0 00-.867.874.87.87 0 00.867.873h3.179l-3.067 7.03a.876.876 0 00.445 1.15zM36.594 24.14h3.224l-.012 1.555a.87.87 0 00.86.88h.007a.87.87 0 00.867-.865l.012-1.57c.538.068 1.059-.304 1.054-.874.004-.563-.508-.939-1.042-.873.011-1.995.018-4.15-.007-4.445-.052-.635-.43-1.153-.96-1.318-.526-.165-1.087.043-1.502.554-.462.572-2.612 4.477-3.26 5.66-.326.555.12 1.315.76 1.296zm3.247-4.883c0 .813-.005 1.953-.011 3.136h-1.763c.665-1.2 1.316-2.353 1.774-3.136zM32.738 21.29a93.502 93.502 0 01-2.49 3.44c-.514.68-.728.962-.578 1.45a.909.909 0 00.588.6c.116.039.234.079 1.821.079.623 0 1.474-.006 2.64-.021a.87.87 0 00.855-.884.87.87 0 00-.866-.863h-.012c-.875.011-1.807.018-2.557.02.46-.617 1.115-1.516 2.02-2.819.634-.95 1.004-1.666 1.068-2.612 0-1.646-1.33-2.985-2.963-2.985a2.974 2.974 0 00-2.908 2.407.873.873 0 00.684 1.026.868.868 0 001.018-.689c.112-.578.62-.997 1.206-.997.662 0 1.203.53 1.228 1.19-.065.566-.326 1.014-.754 1.658z" fill="#F5890A"/></svg>