<?xml version="1.0" encoding="utf-8"?><svg width="18" height="18" fill="none" xmlns="http://www.w3.org/2000/svg" viewBox="0 0 18 18"><g clip-path="url(#vclip0_373_7326)"><path d="M17.905 13.14a1.236 1.236 0 00-.061-.117c-.313-.563-.91-1.253-1.79-2.072l-.019-.018-.01-.01-.009-.009h-.01c-.4-.381-.652-.637-.758-.768-.194-.25-.238-.503-.132-.76.075-.193.357-.602.844-1.227.256-.331.459-.597.609-.797 1.08-1.437 1.55-2.355 1.406-2.755l-.056-.094c-.038-.056-.134-.107-.29-.154-.157-.047-.357-.055-.6-.024l-2.7.019a.35.35 0 00-.187.005l-.122.028-.047.023-.037.029a.417.417 0 00-.103.098.645.645 0 00-.094.164 15.293 15.293 0 01-1.003 2.109c-.23.387-.443.723-.637 1.007a4.845 4.845 0 01-.487.628c-.132.134-.25.242-.357.323-.106.081-.187.116-.243.103a6.83 6.83 0 01-.16-.037.623.623 0 01-.21-.23 1.028 1.028 0 01-.108-.365 4.06 4.06 0 01-.028-.83c.006-.194.01-.325.01-.393 0-.238.004-.496.013-.774.01-.278.017-.498.024-.66.006-.163.009-.335.009-.516s-.011-.323-.033-.426a1.46 1.46 0 00-.098-.3.505.505 0 00-.192-.225 1.082 1.082 0 00-.314-.127c-.331-.075-.753-.115-1.265-.121-1.162-.013-1.91.062-2.24.225-.131.068-.25.162-.356.28-.113.138-.128.213-.047.226.375.056.64.19.796.402l.057.113c.043.081.087.225.13.431.045.206.073.434.085.684.031.456.031.847 0 1.172-.031.325-.06.578-.089.759a1.52 1.52 0 01-.239.646.161.161 0 01-.047.047.702.702 0 01-.253.047c-.087 0-.193-.044-.318-.131a2.248 2.248 0 01-.39-.36 4.822 4.822 0 01-.454-.643c-.169-.275-.343-.6-.525-.975l-.15-.271c-.093-.175-.221-.43-.384-.764a14.726 14.726 0 01-.43-.97.618.618 0 00-.226-.3l-.047-.028a.641.641 0 00-.15-.08.995.995 0 00-.215-.06L.6 4.334c-.262 0-.44.06-.534.178l-.038.056A.303.303 0 000 4.72c0 .069.019.153.056.253.375.881.783 1.73 1.223 2.55.44.818.823 1.477 1.148 1.977.325.5.656.971.994 1.415.337.443.56.728.67.853.11.125.195.218.257.28l.235.226c.15.15.37.33.66.539.291.209.613.415.966.618s.764.369 1.232.497c.469.128.925.18 1.369.155h1.077c.219-.02.385-.088.497-.207l.037-.047a.621.621 0 00.07-.173.953.953 0 00.033-.257 3.09 3.09 0 01.061-.727c.047-.215.1-.378.16-.487a1.2 1.2 0 01.36-.412.614.614 0 01.075-.033c.15-.05.327-.002.53.145s.394.328.572.544c.178.215.392.457.642.726.25.269.468.469.656.6l.187.112c.125.075.288.144.488.207.2.062.374.078.524.046l2.4-.037c.237 0 .421-.04.552-.117.132-.078.21-.164.235-.258a.725.725 0 00.005-.319 1.173 1.173 0 00-.066-.248z" fill="#fff"/></g><defs><clipPath id="vclip0_373_7326"><path fill="#fff" d="M0 0h18v18H0z"/></clipPath></defs></svg>