<?xml version="1.0" encoding="utf-8"?><svg width="18" height="20" fill="none" xmlns="http://www.w3.org/2000/svg" viewBox="0 0 18 20"><path d="M11 0H7C3.14 0 0 3.14 0 7v3a7.003 7.003 0 004 6.328v3.342c0 .29.362.44.567.235l2.905-2.902H11c3.86 0 7-3.14 7-7.003V7c0-3.86-3.14-7-7-7zm2.62 13.12l-1.012.99c-1.066 1.043-3.846-.147-6.296-2.65C3.862 8.955 2.788 6.15 3.8 5.108l1.013-.99c.372-.365 1.005-.358 1.422.015l1.46 1.492c.52.533.3 1.425-.388 1.63-.475.153-.797.675-.645 1.15.253 1.11 1.66 2.498 2.71 2.773.473.11 1.003-.148 1.168-.62.218-.683 1.115-.885 1.638-.35l1.457 1.49c.365.372.36 1.005-.015 1.422zM9.91 4.75c-.1 0-.2.005-.297.018a.334.334 0 01-.073-.663 3.336 3.336 0 013.683 3.683.337.337 0 01-.368.295.337.337 0 01-.295-.368A2.672 2.672 0 009.91 4.75zm2 2.668a.336.336 0 01-.335.332.336.336 0 01-.332-.332c0-.735-.598-1.333-1.333-1.333a.334.334 0 110-.668c1.102 0 2 .898 2 2zm2.543 1.077a.34.34 0 01-.413.245.339.339 0 01-.237-.4A4.005 4.005 0 009.6 3.43a.334.334 0 01-.05-.665 4.674 4.674 0 014.902 5.73z" fill="#665CAC"/></svg>