<?xml version="1.0" encoding="utf-8"?><svg width="18" height="18" fill="none" xmlns="http://www.w3.org/2000/svg" viewBox="0 0 18 18"><g clip-path="url(#wclip0_373_7335)"><path d="M17.63 4.672a2.255 2.255 0 00-1.587-1.586C14.634 2.7 9 2.7 9 2.7s-5.634 0-7.043.371A2.301 2.301 0 00.371 4.672C0 6.081 0 9.002 0 9.002s0 2.935.37 4.33c.208.77.816 1.378 1.587 1.586 1.423.385 7.043.385 7.043.385s5.634 0 7.043-.37a2.255 2.255 0 001.586-1.587c.37-1.409.37-4.33.37-4.33s.016-2.935-.37-4.344z" fill="#fff"/><path d="M7.206 11.7l4.685-2.698-4.685-2.699V11.7z" fill="#F5890A"/></g><defs><clipPath id="wclip0_373_7335"><path fill="#fff" d="M0 0h18v18H0z"/></clipPath></defs></svg>