<?xml version="1.0" encoding="utf-8"?><svg viewBox="0 0 64 64" xmlns="http://www.w3.org/2000/svg" xmlns:xlink="http://www.w3.org/1999/xlink"><style>:root>svg{display:none}:root>svg:target{display:block}</style><svg fill="none" viewBox="0 0 64 64" id="ic_bulb" xmlns="http://www.w3.org/2000/svg"><g clip-path="url(#aclip0_354_2328)"><path fill-rule="evenodd" clip-rule="evenodd" d="M24.082 46.186h15.835c0-8.314 11.877-8.05 11.877-25.072C51.794 10.182 42.931 1.32 32 1.32s-19.794 8.862-19.794 19.794c0 17.022 11.876 16.758 11.876 25.072z" fill="#F5890A"/><path fill-rule="evenodd" clip-rule="evenodd" d="M39.917 46.185H24.082a2.978 2.978 0 00-2.969 2.97 2.978 2.978 0 002.97 2.969h15.834a2.978 2.978 0 002.97-2.97 2.978 2.978 0 00-2.97-2.969z" fill="#6D91AC"/><path fill-rule="evenodd" clip-rule="evenodd" d="M24.082 52.124h15.835v5.279H24.082v-5.279z" fill="#A7BDCD"/><path fill-rule="evenodd" clip-rule="evenodd" d="M39.917 57.402H24.082v2.64a2.647 2.647 0 002.64 2.639h10.556a2.647 2.647 0 002.64-2.64v-2.639z" fill="#A7BDCD"/><path fill-rule="evenodd" clip-rule="evenodd" d="M32 32.121a2.64 2.64 0 002.639-2.639c0-.462.19-.946.581-1.534.56-.842 1.507-1.863 2.82-3.176a8.71 8.71 0 001.875-2.802 8.55 8.55 0 00-1.85-9.352A8.55 8.55 0 0032 10.104a8.55 8.55 0 00-6.065 2.512 8.55 8.55 0 00-2.513 6.065 2.639 2.639 0 105.279 0c0-.91.369-1.736.966-2.333A3.289 3.289 0 0132 15.383c.911 0 1.736.37 2.333.966.596.597.966 1.422.966 2.333 0 .456-.09.883-.25 1.267a3.413 3.413 0 01-.742 1.091c-1.519 1.52-2.66 2.77-3.478 4.001-.988 1.485-1.469 2.874-1.469 4.441a2.64 2.64 0 002.64 2.64z" fill="#fff"/><path fill-rule="evenodd" clip-rule="evenodd" d="M34.639 34.76a2.64 2.64 0 00-5.279 0v.002a2.639 2.639 0 105.279 0v-.001z" fill="#fff"/><path d="M32 0c-1.885 0-3.758.25-5.568.744a1.32 1.32 0 10.695 2.546A18.522 18.522 0 0132 2.64c10.187 0 18.474 8.287 18.474 18.473 0 9.465-3.774 13.162-7.104 16.424-2.169 2.124-4.23 4.145-4.68 7.329H25.31c-.45-3.184-2.511-5.205-4.68-7.329-3.33-3.262-7.104-6.959-7.104-16.424A18.48 18.48 0 0117.89 9.19a1.32 1.32 0 00-2.014-1.705 21.122 21.122 0 00-4.99 13.628c0 10.575 4.38 14.863 7.898 18.31 2.003 1.962 3.523 3.452 3.892 5.681a4.296 4.296 0 00-2.882 4.05 4.296 4.296 0 002.969 4.08v2.849h-.33a1.32 1.32 0 000 2.639h.33v1.32A3.963 3.963 0 0026.722 64h10.556a3.963 3.963 0 003.96-3.959v-1.32h.329a1.32 1.32 0 000-2.638h-.33v-2.848a4.296 4.296 0 002.97-4.08 4.296 4.296 0 00-2.883-4.05c.37-2.23 1.89-3.72 3.893-5.682 3.518-3.446 7.896-7.735 7.896-18.31C53.113 9.471 43.642 0 32 0zm6.598 60.041c0 .728-.592 1.32-1.32 1.32H26.722c-.728 0-1.32-.592-1.32-1.32v-1.32h13.196v1.32zm-13.196-3.958v-2.64h13.196v2.64H25.402zm14.515-5.279H24.082c-.909 0-1.649-.74-1.649-1.65 0-.909.74-1.649 1.65-1.649h15.834c.91 0 1.65.74 1.65 1.65 0 .91-.74 1.649-1.65 1.649zM5.608 22.433a1.32 1.32 0 000-2.64H2.573a1.32 1.32 0 000 2.64h3.035zM8.484 33.166l-5.257 3.035a1.32 1.32 0 101.32 2.286l5.257-3.035a1.32 1.32 0 10-1.32-2.286zM60.772 36.201l-5.256-3.035a1.32 1.32 0 10-1.32 2.286l5.257 3.035a1.32 1.32 0 101.32-2.285zM61.427 19.794h-3.035a1.32 1.32 0 000 2.64h3.035a1.32 1.32 0 000-2.64zM54.857 9.237c.224 0 .451-.057.659-.177l5.256-3.035a1.32 1.32 0 10-1.32-2.286l-5.256 3.036a1.32 1.32 0 00.661 2.462zM9.804 6.775L4.547 3.74a1.32 1.32 0 10-1.32 2.285L8.484 9.06a1.319 1.319 0 101.32-2.286z" fill="#000"/><path d="M36.32 28.679c.562-.845 1.656-1.977 2.653-2.974a9.981 9.981 0 002.16-3.227 9.801 9.801 0 00.764-3.796 9.832 9.832 0 00-2.9-6.998A9.832 9.832 0 0032 8.785a9.832 9.832 0 00-6.998 2.899 9.832 9.832 0 00-2.899 6.998 3.963 3.963 0 003.959 3.959 3.963 3.963 0 003.958-3.959c0-.529.206-1.026.58-1.4.374-.373.871-.58 1.4-.58.529 0 1.026.206 1.4.58.373.374.58.871.58 1.4 0 .269-.05.524-.148.758-.1.239-.254.463-.458.667-1.799 1.8-2.855 3.017-3.643 4.203-1.153 1.732-1.69 3.375-1.69 5.172 0 1.013.383 1.938 1.011 2.64a3.944 3.944 0 00-1.01 2.64A3.963 3.963 0 0032 38.72a3.963 3.963 0 003.959-3.959 3.942 3.942 0 00-1.012-2.64 3.943 3.943 0 001.012-2.64c0-.118.063-.354.36-.802zm-4.392-2.907c.686-1.031 1.646-2.131 3.313-3.799a4.58 4.58 0 001.377-3.29c0-1.235-.48-2.395-1.352-3.267A4.588 4.588 0 0032 14.064c-1.234 0-2.394.48-3.266 1.352a4.588 4.588 0 00-1.353 3.266 1.321 1.321 0 01-2.64 0 7.21 7.21 0 012.127-5.132A7.21 7.21 0 0132 11.424a7.21 7.21 0 015.132 2.126 7.21 7.21 0 012.126 5.132c0 .955-.189 1.89-.56 2.779a7.357 7.357 0 01-1.592 2.378c-1.563 1.563-2.427 2.542-2.984 3.378-.547.823-.803 1.543-.803 2.265 0 .728-.592 1.32-1.32 1.32-.727 0-1.319-.592-1.319-1.32 0-1.27.385-2.414 1.248-3.71zm1.392 8.99c0 .727-.592 1.319-1.32 1.319-.728 0-1.32-.592-1.32-1.32 0-.728.592-1.32 1.32-1.32.728 0 1.32.592 1.32 1.32zM21.35 5.745a1.32 1.32 0 000-2.639 1.32 1.32 0 100 2.64z" fill="#000"/></g><defs><clipPath id="aclip0_354_2328"><path fill="#fff" d="M0 0h64v64H0z"/></clipPath></defs></svg><svg fill="none" viewBox="0 0 40 40" id="ic_cat" xmlns="http://www.w3.org/2000/svg"><g clip-path="url(#bclip0_372_7043)"><path d="M16 17.333v.68c0 .36-.293.653-.653.654A2.664 2.664 0 0012.78 20.6l-.027.093s-1.293.734-1.42-.026c-.113-.679-.777-5.5-.666-6 .56-2.573 6-2.667 6-2.667v1.334c-2 1.333-.667 4-.667 4z" fill="#9CA0A2"/><path d="M35.333 6.667V8a.669.669 0 01-.667.667h-3.333V6h3.333a.669.669 0 01.667.667z" fill="#E6E6E6"/><path d="M32.667 6.053v2.56a.745.745 0 01-.534.747l-2.8.64H28V4.667h1.333l2.8.64a.746.746 0 01.534.746z" fill="#E6E6E6"/><path d="M29.334 4.667V10A1.337 1.337 0 0128 11.333h-5.333v-8H28a1.337 1.337 0 011.334 1.334z" fill="#9CA0A2"/><path d="M24 4v6.667A1.337 1.337 0 0122.667 12h-2a.668.668 0 01-.667-.667L18.667 12V2.667L20 3.333a.66.66 0 01.667-.666h2A1.337 1.337 0 0124 4z" fill="#9CA0A2"/><path d="M20.194 2.86a.676.676 0 00-.194.473V12a1.337 1.337 0 01-1.333 1.333h-3.334s-3.02.334-3.58 2.907c-.233 1.06-.053 2.487.914 4.427l.087.026-2.02 7.074A1.755 1.755 0 0012.42 30l2.913.667-12 .666V30l.94-.94c.251-.25.393-.591.393-.947v-2.78c.07-3.057.561-6.09 1.46-9.013a1.993 1.993 0 00-1.107-2.387l-3.166-1.406A1.997 1.997 0 01.667 10.7V4a1.997 1.997 0 012-2h4.507a2.01 2.01 0 001.413-.587l.16-.16A2.01 2.01 0 0110.16.667h5.954c.362 0 .717.1 1.026.286L20 2.667l.194.193z" fill="#DB7A09"/><path d="M22.667 35.093v2.194a1.32 1.32 0 01-.593 1.106L21 39.107a1.31 1.31 0 01-.74.226H5.334a2.666 2.666 0 01-2.667-2.666V31.22c0-.355.142-.696.393-.947L3.334 30h13.6c1.506 0 2.92.727 3.793 1.953l1.693 2.367c.16.226.247.496.247.773z" fill="#000"/><path d="M22.667 35.093V36h-20v-4.78c0-.355.142-.696.393-.947L3.334 30h13.6c1.506 0 2.92.727 3.793 1.953l1.693 2.367c.16.226.247.496.247.773z" fill="#DB7A09"/><path d="M18.194 2.86a.677.677 0 00-.194.473V12a1.337 1.337 0 01-1.333 1.333h-3.334s-3.02.334-3.58 2.907c-.233 1.06-.053 2.487.914 4.427l.087.026-2.02 7.074A1.755 1.755 0 0010.42 30l2.913.667-10 .553V30l.94-.94c.251-.25.393-.591.393-.947v-2.78c.07-3.057.561-6.09 1.46-9.013a1.993 1.993 0 00-1.107-2.387l-3.166-1.406A1.997 1.997 0 01.667 10.7V4a1.997 1.997 0 012-2h4.507a2.01 2.01 0 001.413-.587l.16-.16A2.01 2.01 0 0110.16.667h3.954c.362 0 .717.1 1.026.286L18 2.667l.194.193z" fill="#F5890A"/><path d="M20.667 36v1.287c.008.432-.19.843-.534 1.106l-.966.714a1.098 1.098 0 01-.666.226H5.067a2.543 2.543 0 01-2.4-2.666V36h18z" fill="#000"/><path d="M2.667 36v-4.78a1.416 1.416 0 01.354-.947L3.267 30h12.24a4.077 4.077 0 013.414 1.953l1.524 2.367c.146.231.223.5.222.773V36h-18z" fill="#F5890A"/><path d="M6 4.667H4a.667.667 0 00-.666.666v3.549c0 .273.166.518.419.619l2 .8a.666.666 0 00.914-.619V5.333a.667.667 0 00-.666-.666z" fill="#8F5006"/><path d="M28 12h-4a.667.667 0 01-.667-.667v-8c0-.368.299-.666.667-.666h4a2.002 2.002 0 012 2V10a2.002 2.002 0 01-2 2zm-3.334-1.333H28a.668.668 0 00.666-.667V4.667A.668.668 0 0028 4h-3.334v6.667z" fill="#000"/><path d="M29.334 10.667a.667.667 0 01-.667-.667V4.667a.667.667 0 01.815-.65l2.798.639a1.416 1.416 0 011.054 1.397v2.56a1.416 1.416 0 01-1.054 1.397l-2.798.64a.663.663 0 01-.148.017zM30 5.502v3.662l1.983-.453A.41.41 0 0032 8.614V6.053a.144.144 0 00-.034-.104L30 5.502z" fill="#000"/><path d="M34.667 9.333h-2A.667.667 0 0132 8.667V6c0-.368.298-.667.667-.667h2c.736.001 1.332.598 1.333 1.334V8c0 .736-.597 1.333-1.333 1.333zM33.333 8h1.335l-.001-1.333h-1.334V8zM22.666 12.667h-2a1.335 1.335 0 01-1.333-1.334v-8c0-.736.597-1.332 1.333-1.333h2a2.002 2.002 0 012 2v6.667a2.002 2.002 0 01-2 2zm-2-9.334v8h2a.668.668 0 00.667-.666V4a.668.668 0 00-.667-.667h-2z" fill="#000"/><path d="M21.333 6H20a.667.667 0 110-1.333h1.333a.667.667 0 010 1.333zM21.333 10H20a.667.667 0 110-1.333h1.333a.667.667 0 010 1.333z" fill="#000"/><path d="M20.263 40H5.333A3.337 3.337 0 012 36.666V31.22c-.001-.53.21-1.04.586-1.414l1.219-1.22a.663.663 0 00.195-.47v-2.782c.073-3.12.574-6.215 1.486-9.2a1.331 1.331 0 00-.738-1.59l-3.164-1.406A2.669 2.669 0 010 10.7V4a2.67 2.67 0 012.667-2.667H7.17c.354.001.694-.14.944-.39L8.276.78A2.649 2.649 0 0110.162 0h5.95c.484 0 .958.131 1.373.38l2.858 1.715a.667.667 0 01-.686 1.143l-2.858-1.715a1.333 1.333 0 00-.686-.19h-5.951c-.354 0-.694.14-.943.39l-.162.162a2.649 2.649 0 01-1.886.782H2.667c-.736 0-1.333.597-1.334 1.333v6.7c0 .527.31 1.004.792 1.219l3.164 1.406a2.667 2.667 0 011.475 3.188 32.85 32.85 0 00-1.43 8.82v2.781c0 .531-.21 1.04-.587 1.415L3.53 30.747a.663.663 0 00-.196.472v5.448a2.002 2.002 0 002 2h14.93c.131 0 .26-.04.37-.112l1.07-.714a.666.666 0 00.297-.555v-2.192a.663.663 0 00-.124-.388l-1.69-2.365a4.009 4.009 0 00-3.254-1.675H12.42a2.421 2.421 0 01-2.327-3.085l2.047-7.164A3.348 3.348 0 0115.345 18l-.01-.511c-.522-1.16-.927-3.452.962-4.71a.667.667 0 01.37-.113h2a.667.667 0 00.666-.666v-2a.667.667 0 111.334 0v2a2.002 2.002 0 01-2 2h-1.782c-1.268 1.034-.3 3.015-.289 3.035.046.093.07.195.07.298v.68c0 .729-.59 1.32-1.32 1.32a2.01 2.01 0 00-1.925 1.45l-2.046 7.164a1.088 1.088 0 001.045 1.386h4.512a5.343 5.343 0 014.34 2.234l1.689 2.364c.243.34.373.746.372 1.163v2.192c.001.67-.333 1.294-.89 1.664l-1.07.714c-.329.22-.715.336-1.11.336z" fill="#000"/><path d="M6 11.016c-.17 0-.337-.033-.495-.096l-2-.8a1.327 1.327 0 01-.838-1.238V5.333C2.667 4.597 3.264 4.001 4 4h2c.736 0 1.333.597 1.334 1.333v4.349c0 .736-.597 1.333-1.334 1.334zM4 5.333v3.549l2 .8V5.333H4zM39.334 8h-4a.667.667 0 010-1.333h4a.667.667 0 010 1.333zM12.668 21.333a.666.666 0 01-.597-.368c-1.209-2.417-1.404-4.41-.58-5.925 1.117-2.052 3.661-2.357 3.77-2.37a.643.643 0 01.073-.003h1.333a.667.667 0 010 1.333h-1.289c-.248.037-1.995.341-2.72 1.684-.598 1.109-.395 2.685.605 4.684a.667.667 0 01-.595.965zM13.334 30.667h-10a.667.667 0 010-1.334h10a.667.667 0 110 1.334zM22.667 36.667h-20a.667.667 0 010-1.334h20a.667.667 0 110 1.334zM26.666 6.667H24a.667.667 0 110-1.334h2.666a.667.667 0 010 1.334zM16.666 5.333H10A.667.667 0 0110 4h6.666a.667.667 0 010 1.333zM16.666 8H10a.667.667 0 010-1.333h6.666a.667.667 0 010 1.333zM16.666 10.667H10a.667.667 0 010-1.334h6.666a.667.667 0 010 1.334z" fill="#000"/></g><defs><clipPath id="bclip0_372_7043"><path fill="#fff" d="M0 0h40v40H0z"/></clipPath></defs></svg><svg fill="none" viewBox="0 0 24 24" id="ic_catalog" xmlns="http://www.w3.org/2000/svg"><path d="M4 12h16M4 6h16M4 18h16" stroke="#fff" stroke-width="2" stroke-linecap="round" stroke-linejoin="round"/></svg><svg fill="none" viewBox="0 0 24 24" id="ic_catalog-close" xmlns="http://www.w3.org/2000/svg"><path d="M18 6L6 18M6 6l12 12" stroke="#fff" stroke-width="2" stroke-linecap="round" stroke-linejoin="round"/></svg><svg fill="none" viewBox="0 0 24 24" id="ic_chevron" xmlns="http://www.w3.org/2000/svg"><path d="M6.707 8.293a1 1 0 00-1.414 1.414l1.414-1.414zM12 15l-.707.707a1 1 0 001.414 0L12 15zm6.707-5.293a1 1 0 00-1.414-1.414l1.414 1.414zm-13.414 0l6 6 1.414-1.414-6-6-1.414 1.414zm7.414 6l6-6-1.414-1.414-6 6 1.414 1.414z" fill="#000"/></svg><svg fill="none" viewBox="0 0 16 20" id="ic_chevron-down" xmlns="http://www.w3.org/2000/svg"><path d="M4.707 7.293a1 1 0 00-1.414 1.414l1.414-1.414zM8 12l-.707.707a1 1 0 001.414 0L8 12zm4.707-3.293a1 1 0 00-1.414-1.414l1.414 1.414zm-9.414 0l4 4 1.414-1.414-4-4-1.414 1.414zm5.414 4l4-4-1.414-1.414-4 4 1.414 1.414z" fill="#F5890A"/></svg><svg viewBox="0 0 24 24" id="ic_close" xmlns="http://www.w3.org/2000/svg"><path d="M0 0h24v24H0V0z" fill="none"/><path d="M19 6.41L17.59 5 12 10.59 6.41 5 5 6.41 10.59 12 5 17.59 6.41 19 12 13.41 17.59 19 19 17.59 13.41 12 19 6.41z"/></svg><svg fill="none" viewBox="0 0 36 36" id="ic_close-popup" xmlns="http://www.w3.org/2000/svg"><path d="M26 10L10 26M10 10l16 16" stroke="#888" stroke-width="2" stroke-linecap="round" stroke-linejoin="round"/></svg><svg viewBox="0 0 24 24" id="ic_expand" xmlns="http://www.w3.org/2000/svg"><path d="M24 24H0V0h24v24z" fill="none" opacity=".87"/><path d="M16.59 8.59L12 13.17 7.41 8.59 6 10l6 6 6-6-1.41-1.41z"/></svg><svg fill="none" viewBox="0 0 24 24" id="ic_fav" xmlns="http://www.w3.org/2000/svg"><path d="M12 2l3.09 6.26L22 9.27l-5 4.87 1.18 6.88L12 17.77l-6.18 3.25L7 14.14 2 9.27l6.91-1.01L12 2z" stroke="#fff" stroke-width="2" stroke-linecap="round" stroke-linejoin="round"/></svg><svg fill="none" viewBox="0 0 60 38" id="ic_logo" xmlns="http://www.w3.org/2000/svg"><path d="M0 14.514V38h18.028V13H22v10h16v-9.806L20 0 0 14.514z" fill="#000"/><path d="M22 27v11h38V14.514L40 0l-6.573 4.838L42 11.212V34h-4v-7H22z" fill="#F5890A"/></svg><svg viewBox="0 0 24 24" id="ic_person" xmlns="http://www.w3.org/2000/svg"><path d="M0 0h24v24H0V0z" fill="none"/><path d="M12 2C6.48 2 2 6.48 2 12s4.48 10 10 10 10-4.48 10-10S17.52 2 12 2zM7.07 18.28c.43-.9 3.05-1.78 4.93-1.78s4.51.88 4.93 1.78C15.57 19.36 13.86 20 12 20s-3.57-.64-4.93-1.72zm11.29-1.45c-1.43-1.74-4.9-2.33-6.36-2.33s-4.93.59-6.36 2.33A7.95 7.95 0 014 12c0-4.41 3.59-8 8-8s8 3.59 8 8c0 1.82-.62 3.49-1.64 4.83zM12 6c-1.94 0-3.5 1.56-3.5 3.5S10.06 13 12 13s3.5-1.56 3.5-3.5S13.94 6 12 6zm0 5c-.83 0-1.5-.67-1.5-1.5S11.17 8 12 8s1.5.67 1.5 1.5S12.83 11 12 11z"/></svg><svg fill="none" viewBox="0 0 40 40" id="ic_rent" xmlns="http://www.w3.org/2000/svg"><g clip-path="url(#mclip0_372_6984)"><path d="M32.676 3.448l-10.88 10.88 1.89 1.89 10.88-10.88-1.89-1.89zM4.853 30.209L3.42 31.641a1.491 1.491 0 000 2.11h.001c.28.28.659.437 1.055.437h8.331l-7.954-3.979z" fill="#CFD8DC"/><path d="M33.847 6.06l1.89-.945 1.418-1.418a.668.668 0 000-.945l-1.89-1.89a.668.668 0 00-.945 0L32.902 2.28l-.945 1.89 1.89 1.89z" fill="#CFD8DC"/><path d="M24.866 15.04l-1.887 3.78-4.864 4.864-3.78-3.78 4.864-4.864 3.78-1.894 1.887 1.894z" fill="#607D8B"/><path d="M20.623 21.18l2.361-2.361-3.78-3.78-2.362 2.361 3.78 3.78z" fill="#CFD8DC"/><path d="M27.229 27.796l1.89-1.89-4.723-4.724-1.89 1.89 4.723 4.724z" fill="#607D8B"/><path d="M21.966 33.807l-3.546 3.806-.64-.366-.194-.1-12.68-6.587a.663.663 0 01-.166-1.06l8.893-8.887 1.313-1.32 3.78 3.78 2.834 10.394.407.34z" fill="#C26C08"/><path d="M20.047 34.52l-2.46 2.627-12.68-6.587a.663.663 0 01-.167-1.06l8.893-8.887L16.8 23.78l2.84 10.393.407.347z" fill="#F5890A"/><path d="M18.254 32.995l.195-.195a.668.668 0 00.17-.656l-1.47-5.145a.668.668 0 00-1.116-.29l-2.032 2.033a.668.668 0 000 .945l3.308 3.308a.668.668 0 00.945 0z" fill="#F5D50A"/><path d="M25.816 33.94l-5.2 5.2a.667.667 0 01-.944 0l-1.89-1.892 5.67-5.671c.261-.26.683-.26.944 0l1.42 1.42c.26.26.26.682 0 .942z" fill="#CFD8DC"/><path d="M24.424 35.224l-4.015 4.015a.667.667 0 01-.943 0l-1.89-1.892 4.485-4.485c.26-.26.682-.26.943 0l1.42 1.42c.26.26.26.682 0 .942z" fill="#F4F4F4"/><path d="M33.848 6.727a.665.665 0 01-.472-.195l-1.89-1.891a.666.666 0 01-.125-.77l.945-1.89a.676.676 0 01.125-.173L33.85.391a1.335 1.335 0 011.888 0l1.89 1.89c.52.522.52 1.366 0 1.888L36.21 5.586a.663.663 0 01-.173.125l-1.89.946a.663.663 0 01-.298.07zm-1.08-2.689L33.98 5.25l1.363-.682 1.341-1.34-1.89-1.893-1.343 1.34-.682 1.364z" fill="#000"/><path d="M24.87 15.705a.665.665 0 01-.472-.195l-1.89-1.89a.666.666 0 010-.943l8.978-8.979a.667.667 0 01.943 0l1.89 1.89a.667.667 0 010 .944L25.34 15.51a.665.665 0 01-.472.195zm-.948-2.557l.947.947 8.036-8.035-.948-.948-8.035 8.036z" fill="#000"/><path d="M30.067 11.452a.667.667 0 01-.667-.666V5.115a.667.667 0 111.334 0v5.67a.667.667 0 01-.667.667zM27.232 14.287a.666.666 0 01-.667-.666V7.95a.667.667 0 011.334 0v5.67a.666.666 0 01-.667.666zM22.98 19.485a.665.665 0 01-.472-.195l-3.78-3.78a.666.666 0 01.173-1.068l3.78-1.89a.665.665 0 01.77.125l1.89 1.89a.667.667 0 01.125.77l-1.89 3.78a.668.668 0 01-.597.368zm-2.655-4.264l2.472 2.471 1.261-2.522-1.21-1.21-2.523 1.261z" fill="#000"/><path d="M18.726 23.738a.667.667 0 01-.471-.195l-3.78-3.78a.666.666 0 010-.944l4.252-4.252a.666.666 0 01.943 0l3.78 3.78a.666.666 0 010 .942l-4.252 4.254a.666.666 0 01-.472.195zm-2.837-4.447l2.837 2.838 3.31-3.31L19.2 15.98l-3.31 3.31zM27.232 28.463a.664.664 0 01-.472-.195l-4.252-4.253a.666.666 0 010-.942l1.89-1.89a.686.686 0 01.942 0l4.253 4.253a.666.666 0 010 .942l-1.89 1.89a.664.664 0 01-.471.195zm-3.31-4.919l3.31 3.31.947-.947-3.31-3.31-.947.947z" fill="#000"/><path d="M22.034 24.21a.667.667 0 01-.472-1.137l2.835-2.835a.667.667 0 01.943.942l-2.835 2.835a.665.665 0 01-.471.196zM26.76 28.936a.667.667 0 01-.472-1.138l2.835-2.835a.667.667 0 01.943.942l-2.835 2.836a.665.665 0 01-.472.195zM17.781 37.914a.67.67 0 01-.307-.075L4.596 31.154a1.333 1.333 0 01-.328-2.127L14.475 18.82a.667.667 0 01.943 0l3.78 3.78a.667.667 0 01.172.296l2.835 10.396a.667.667 0 01-.172.647l-3.78 3.78a.666.666 0 01-.472.195zm-2.835-17.68L5.21 29.97l12.445 6.46 3.162-3.16-2.687-9.852-3.184-3.184z" fill="#000"/><path d="M23.451 22.793a.664.664 0 01-.471-.195l-1.89-1.89a.666.666 0 11.942-.943l1.89 1.89a.667.667 0 01-.47 1.138zM17.781 33.857c-.354.001-.694-.14-.944-.39l-3.307-3.309a1.334 1.334 0 010-1.888l2.032-2.032a1.334 1.334 0 012.227.578l1.47 5.145c.133.466.003.967-.339 1.31l-.194.194v.001c-.25.251-.59.392-.945.391zm-1.274-6.675l-2.035 2.031 3.782 3.782-.472-.471.195-.195-1.47-5.148zM13.528 26.1a.665.665 0 01-.472-.195l-.472-.472a.667.667 0 01.943-.943l.473.473a.667.667 0 01-.472 1.138zM15.418 24.21a.664.664 0 01-.47-.195l-.473-.472a.667.667 0 01.942-.943l.473.473a.667.667 0 01-.472 1.138zM11.638 27.99a.664.664 0 01-.471-.195l-.473-.472a.666.666 0 11.943-.943l.473.473a.667.667 0 01-.472 1.138zM20.617 21.848a.664.664 0 01-.472-.195l-3.78-3.78a.666.666 0 11.943-.944l3.78 3.781a.667.667 0 01-.471 1.138zM12.474 35.188H4.142a2.16 2.16 0 01-1.527-3.685l1.433-1.432a.667.667 0 01.943.943l-1.433 1.432a.825.825 0 00.584 1.409h8.332a.667.667 0 110 1.333zM20.144 40c-.354 0-.693-.14-.943-.39l-1.891-1.891a.666.666 0 010-.943l5.671-5.671a1.335 1.335 0 011.885 0l1.42 1.42a1.333 1.333 0 010 1.885l-5.2 5.2c-.25.25-.589.39-.942.39zm-1.42-2.753l1.42 1.42 5.2-5.2-1.42-1.42-5.2 5.2z" fill="#000"/></g><defs><clipPath id="mclip0_372_6984"><path fill="#fff" d="M0 0h40v40H0z"/></clipPath></defs></svg><svg fill="none" viewBox="0 0 24 24" id="ic_search" xmlns="http://www.w3.org/2000/svg"><path d="M11 19a8 8 0 100-16 8 8 0 000 16zM21 21l-4.35-4.35" stroke="#fff" stroke-width="2" stroke-linecap="round" stroke-linejoin="round"/></svg><svg fill="none" viewBox="0 0 64 64" id="ic_step-1" xmlns="http://www.w3.org/2000/svg"><path d="M61.305 52.365a.863.863 0 00-1.175.35c-.317.585-.924.948-1.585.948-.58 0-1.128-.284-1.466-.76a1.141 1.141 0 00-.928-.48c-.367 0-.714.18-.928.48-.338.476-.886.76-1.466.76s-1.128-.284-1.466-.76a1.142 1.142 0 00-.928-.48c-.367 0-.714.18-.928.48-.339.476-.887.76-1.467.76-.457 0-.882-.17-1.21-.473l3.584-3.611a3.71 3.71 0 00-.367-5.549c-.397-.406-1.064-.497-1.431-.002a.878.878 0 00.162 1.224c.54.358.938.921.972 1.585.093.82-.48 1.485-1.046 1.994l-10.856-8.359.918-.925a1.817 1.817 0 012.394-.16l4.61 3.548c.38.293.924.22 1.214-.164a.878.878 0 00-.162-1.224l-4.609-3.549a3.547 3.547 0 00-4.673.314l-3.276 3.3a1.55 1.55 0 01-2.02.165l-2.303-1.67a52.488 52.488 0 01-11.907-11.998l-1.658-2.32a1.579 1.579 0 01.163-2.035l3.276-3.301a3.614 3.614 0 00.311-4.708L15.068 7.85a3.653 3.653 0 00-5.507-.37l-5.433 5.474a8.701 8.701 0 00-2.335 7.968 40.45 40.45 0 004.003 10.862c.23.423.756.579 1.176.348a.877.877 0 00.346-1.186 38.704 38.704 0 01-3.83-10.39 6.953 6.953 0 011.866-6.366l3.711-3.74 8.297 10.938-1.121 1.13a3.329 3.329 0 00-.345 4.29l1.658 2.321a54.224 54.224 0 0012.302 12.395l2.303 1.67a3.268 3.268 0 004.259-.347l1.12-1.13 10.857 8.36-3.712 3.739a6.834 6.834 0 01-6.318 1.88 37.893 37.893 0 01-14.146-6.274l-1.765-1.265a48.827 48.827 0 01-11.484-11.57c-.315-.45-1.383-1.951-1.672-2.382a.863.863 0 00-1.205-.228.878.878 0 00-.226 1.214c.295.44 1.37 1.95 1.69 2.408A50.56 50.56 0 0021.45 49.582l1.766 1.265a39.609 39.609 0 0014.787 6.557 8.557 8.557 0 007.907-2.352l.62-.625a3.536 3.536 0 002.44.983 3.53 3.53 0 002.393-.942 3.53 3.53 0 002.395.942 3.53 3.53 0 002.394-.942 3.53 3.53 0 002.394.942 3.532 3.532 0 003.107-1.86.877.877 0 00-.347-1.185zM10.302 9.205l.484-.488c.784-.827 2.235-.73 2.904.195l5.987 7.893a1.852 1.852 0 01-.16 2.413l-.918.925-8.297-10.938z" fill="#000"/><path d="M54.251 10.109H38.936a.87.87 0 00-.867.873.87.87 0 00.867.873H54.25c3.537 0 6.415 2.9 6.415 6.464v7.075c0 3.564-2.878 6.463-6.415 6.463h-15.46c-.695 0-1.348.273-1.84.767l-4.079 4.11v-3.08c0-.941-.642-1.752-1.563-1.97-2.905-.692-4.934-3.278-4.934-6.29v-7.075c0-3.564 2.878-6.463 6.415-6.463h2.05a.87.87 0 00.867-.874.87.87 0 00-.867-.873h-2.05c-4.493 0-8.148 3.683-8.148 8.21v7.075c0 3.826 2.578 7.111 6.27 7.99a.285.285 0 01.227.27v4.064c0 .544.322 1.03.82 1.238a1.319 1.319 0 001.449-.29l4.77-4.806a.858.858 0 01.612-.256h15.461c4.493 0 8.149-3.683 8.149-8.21v-7.075c0-4.527-3.656-8.21-8.149-8.21z" fill="#000"/><path d="M45.241 26.576c.345 0 .67-.209.806-.55l3.258-8.255a.876.876 0 00-.485-1.134.865.865 0 00-1.126.488l-3.258 8.255c-.234.557.208 1.207.805 1.196zM52.885 26.662a.865.865 0 001.142-.448l3.601-8.254c.26-.552-.187-1.243-.793-1.225h-4.507a.87.87 0 00-.867.874.87.87 0 00.867.873h3.179l-3.067 7.03a.876.876 0 00.445 1.15zM36.594 24.14h3.224l-.012 1.555a.87.87 0 00.86.88h.007a.87.87 0 00.867-.865l.012-1.57c.538.068 1.059-.304 1.054-.874.004-.563-.508-.939-1.042-.873.011-1.995.018-4.15-.007-4.445-.052-.635-.43-1.153-.96-1.318-.526-.165-1.087.043-1.502.554-.462.572-2.612 4.477-3.26 5.66-.326.555.12 1.315.76 1.296zm3.247-4.883c0 .813-.005 1.953-.011 3.136h-1.763c.665-1.2 1.316-2.353 1.774-3.136zM32.738 21.29a93.502 93.502 0 01-2.49 3.44c-.514.68-.728.962-.578 1.45a.909.909 0 00.588.6c.116.039.234.079 1.821.079.623 0 1.474-.006 2.64-.021a.87.87 0 00.855-.884.87.87 0 00-.866-.863h-.012c-.875.011-1.807.018-2.557.02.46-.617 1.115-1.516 2.02-2.819.634-.95 1.004-1.666 1.068-2.612 0-1.646-1.33-2.985-2.963-2.985a2.974 2.974 0 00-2.908 2.407.873.873 0 00.684 1.026.868.868 0 001.018-.689c.112-.578.62-.997 1.206-.997.662 0 1.203.53 1.228 1.19-.065.566-.326 1.014-.754 1.658z" fill="#F5890A"/></svg><svg fill="none" viewBox="0 0 64 64" id="ic_step-2" xmlns="http://www.w3.org/2000/svg"><path d="M63.92 30.664a4 4 0 00-.84-1.769l-7.921-9.568a3.974 3.974 0 00-3.072-1.445H50.15a.938.938 0 000 1.875h1.937c.63 0 1.224.279 1.627.765l.747.902h-4.533c-1.334 0-2.419 1.134-2.419 2.529v5.3c0 1.396 1.085 2.53 2.419 2.53H62.12v13.905c0 .725-.59 1.315-1.315 1.315h-.678a6.786 6.786 0 00-3.502-4.916c-4.105-2.19-9.16.34-9.878 4.916h-2.81V20.267a.51.51 0 01.51-.51h1.953a.937.937 0 100-1.875h-1.953c-.175 0-.346.019-.51.055v-6.15A2.19 2.19 0 0041.751 9.6H11.19a.937.937 0 100 1.875h30.56c.172 0 .313.14.313.312V35.42H1.873V11.788c0-.173.14-.313.313-.313h5.255a.938.938 0 000-1.875H2.187A2.19 2.19 0 000 11.788v32.43c0 2.57 2.09 4.66 4.66 4.66h4.712a6.77 6.77 0 006.712 5.958 6.779 6.779 0 006.737-5.958h7.31a.936.936 0 100-1.875h-7.346c-1.19-7.545-12.188-7.606-13.38 0H4.66a2.788 2.788 0 01-2.785-2.785v-.08h2.33c.689 0 1.336-.269 1.823-.755 1.616-1.62.468-4.402-1.823-4.402h-2.33v-1.679h40.188v9.7H33.88a.938.938 0 000 1.875h12.835a6.761 6.761 0 003.536 5.163 6.778 6.778 0 009.913-5.162h.642a3.194 3.194 0 003.19-3.19c0-15.531.031-14.48-.077-15.024zm-13.992-.757c-.3 0-.544-.292-.544-.653v-5.301c0-.361.244-.654.544-.654h6.085l5.47 6.608H49.928zM20.876 47.004c.133.584.12 1.06.12 1.06a4.899 4.899 0 01-3.473 4.687c-3.149.955-6.326-1.4-6.326-4.689-.021-5.95 8.547-6.615 9.68-1.058zM4.205 40.855c.625 0 .939.76.497 1.202-.27.27-.31.206-2.827.206v-1.407h2.33zm54.135 7.209a4.9 4.9 0 01-3.474 4.686c-4.189 1.27-7.786-3.175-5.75-6.991 2.371-4.452 9.224-2.812 9.224 2.303v.002z" fill="#000"/><path d="M16.095 51.822c2.538 0 4.309-2.457 3.606-4.82-1.055-3.586-6.155-3.585-7.21 0-.708 2.38 1.084 4.82 3.604 4.82zm-1.556-4.82a1.883 1.883 0 013.114 0c.858 1.26-.06 2.945-1.558 2.945-1.504 0-2.408-1.694-1.556-2.944zM49.835 47.002c-.703 2.363 1.068 4.82 3.606 4.82a3.764 3.764 0 003.758-3.758c0-4.36-6.156-5.169-7.364-1.062zm5.303 1.875a1.883 1.883 0 01-1.697 1.07c-1.507 0-2.41-1.694-1.558-2.945a1.884 1.884 0 013.255 1.875zM51.659 35.222a.938.938 0 000-1.875h-3.107a.937.937 0 000 1.875h3.107z" fill="#F5890A"/></svg><svg fill="none" viewBox="0 0 64 64" id="ic_step-3" xmlns="http://www.w3.org/2000/svg"><path d="M18.596 46.532v1.285c0 .466.38.844.85.844s.85-.378.85-.844v-1.285a.847.847 0 00-.85-.844c-.47 0-.85.378-.85.844zm34.766-10.92H31.98c-.47 0-.85.377-.85.843 0 .467.38.844.85.844h21.382c.47 0 .85-.377.85-.843a.847.847 0 00-.85-.844zm-36.266 15.23a1.86 1.86 0 01-1.772 0 .853.853 0 00-1.154.334.84.84 0 00.336 1.145c.51.278 1.086.428 1.666.434a3.675 3.675 0 001.74-.434.84.84 0 00.337-1.145.853.853 0 00-1.153-.334zm-4.123-5.154c-.469 0-.85.378-.85.844v1.285c0 .466.381.844.85.844.47 0 .85-.378.85-.844v-1.285a.847.847 0 00-.85-.844zm47.36 3.098a.846.846 0 00-.899-.791.846.846 0 00-.797.893l.459 7.54a2.496 2.496 0 01-.69 1.888 2.534 2.534 0 01-1.856.796H7.45c-.71 0-1.37-.282-1.856-.796a2.496 2.496 0 01-.69-1.887L6.34 32.844H16.56c.47 0 .85-.378.85-.844a.847.847 0 00-.85-.844H6.339L4.905 7.571a2.496 2.496 0 01.689-1.887 2.534 2.534 0 011.856-.797h49.1c.71 0 1.37.283 1.857.797.487.513.731 1.183.688 1.887l-1.434 23.585H20.526c-.47 0-.85.378-.85.844 0 .466.38.844.85.844h37.135l.736 12.096a.847.847 0 00.9.792.846.846 0 00.797-.893L59.313 32l1.48-24.327a4.16 4.16 0 00-1.149-3.146A4.224 4.224 0 0056.55 3.2H7.45a4.224 4.224 0 00-3.094 1.327 4.16 4.16 0 00-1.148 3.146L4.688 32l-1.48 24.327a4.16 4.16 0 001.148 3.146A4.224 4.224 0 007.45 60.8h49.1a4.224 4.224 0 003.094-1.327 4.16 4.16 0 001.148-3.146l-.458-7.54zm-6.971-8.112H31.98c-.47 0-.85.378-.85.844 0 .466.38.844.85.844h21.382c.47 0 .85-.378.85-.844a.847.847 0 00-.85-.844zm.85 5.907a.847.847 0 00-.85-.844H31.98c-.47 0-.85.377-.85.843 0 .467.38.844.85.844h21.382c.47 0 .85-.377.85-.843zm-45.56-7.248v9.509c0 4.137 3.39 7.502 7.558 7.502 4.167 0 7.557-3.365 7.557-7.502v-9.508c0-2.053-1.681-3.722-3.749-3.722h-7.617c-2.067 0-3.749 1.67-3.749 3.721zm13.416 9.509c0 3.206-2.628 5.815-5.858 5.815-3.23 0-5.858-2.609-5.858-5.815v-4.024l6.574-1.516a3.885 3.885 0 012.396.216l2.746 1.184v4.14zm0-9.508v3.528l-2.07-.892a5.607 5.607 0 00-3.457-.312l-6.189 1.428v-3.752c0-1.122.92-2.035 2.05-2.035h7.617c1.13 0 2.049.913 2.049 2.035z" fill="#000"/><path fill-rule="evenodd" clip-rule="evenodd" d="M33.92 55.518a.85.85 0 00.868.826c1.182-.025 2.75-.252 4.172-1.089.586.291 1.214.523 1.82.691 1.022.285 1.915.404 2.68.404 1.533 0 2.551-.48 3.059-1.07.33-.383.486-.821.586-1.2.14.199.317.478.532.868a.853.853 0 001.153.336.84.84 0 00.339-1.145c-.662-1.203-1.482-2.4-2.548-2.16-.775.176-.944.915-1.056 1.404-.07.304-.141.619-.299.801-.425.495-2.033.682-3.987.138a8.962 8.962 0 01-.782-.259c.579-.58 1.302-1.477 1.07-2.595-.143-.683-.603-1.307-1.263-1.712-.626-.385-1.343-.511-1.97-.348-1.092.286-2.142 1.63-1.903 3.102.1.624.454 1.178.957 1.657-.907.362-1.846.474-2.596.49a.847.847 0 00-.832.861zm5.449-4.328c-.208-.127-.433-.204-.641-.15-.375.098-.733.75-.66 1.202.055.336.36.68.8.998.407-.365 1.088-.98.994-1.43-.047-.224-.236-.461-.493-.62z" fill="#F5890A"/><path d="M21.116 19.283c.282.31.728.493 1.194.493.44 0 .69-.256.722-.43.035-.198-.28-.388-.561-.49-1.04-.381-1.395-.506-1.693-.699a1.838 1.838 0 01-.829-1.825c.111-.77.675-1.396 1.471-1.634 1.222-.365 2.36.214 2.84.615.358.3.405.832.103 1.188a.854.854 0 01-1.192.108c-.022-.017-.628-.484-1.26-.295-.19.057-.382.246-.238.403.21.09.778.332 1.386.555 1.434.525 1.79 1.569 1.646 2.37-.19 1.056-1.197 1.822-2.395 1.822-.952 0-1.846-.382-2.453-1.047a.84.84 0 01.059-1.192.854.854 0 011.2.058zM27.365 19.283c.282.309.728.493 1.194.493.44 0 .69-.256.722-.43.035-.198-.28-.388-.561-.491-1.04-.38-1.394-.505-1.693-.698a1.839 1.839 0 01-.83-1.825c.112-.77.676-1.396 1.472-1.634 1.222-.365 2.36.214 2.839.614.36.3.406.833.104 1.19a.854.854 0 01-1.192.107c-.024-.019-.63-.484-1.26-.295-.19.057-.383.246-.238.403.21.09.778.332 1.386.555 1.433.525 1.79 1.569 1.646 2.37-.19 1.056-1.197 1.822-2.395 1.822-.952 0-1.846-.382-2.454-1.047a.84.84 0 01.06-1.192.855.855 0 011.2.058zM54.619 20.62c0 .466-.38.844-.85.844a.847.847 0 01-.85-.844v-4.352h-.59a.847.847 0 01-.85-.844c0-.466.38-.843.85-.843h2.891c.47 0 .85.377.85.843 0 .466-.38.844-.85.844h-.601v4.352z" fill="#F5890A"/><path fill-rule="evenodd" clip-rule="evenodd" d="M44.836 18.022c0-1.897-1.555-3.441-3.467-3.441-1.912 0-3.467 1.544-3.467 3.441 0 1.898 1.555 3.442 3.467 3.442 1.912 0 3.467-1.544 3.467-3.442zm-3.467-1.754c-.974 0-1.767.787-1.767 1.754 0 .968.793 1.754 1.767 1.754.974 0 1.767-.787 1.767-1.754s-.793-1.754-1.767-1.754zM33.786 20.62v-1.417c.232-.002.461-.002.607-.002 1.3 0 2.356-1.037 2.356-2.31 0-1.274-1.057-2.31-2.356-2.31h-1.457c-.419-.01-.867.367-.85.843v5.196c0 .466.38.844.85.844s.85-.378.85-.844zm1.263-3.73c0-.337-.3-.622-.656-.622h-.605v.36l.003.887.602-.002c.356 0 .656-.285.656-.622zM50.604 16.775c0-1.21-1.026-2.194-2.287-2.194h-1.393c-.47 0-.85.377-.85.843v5.196c0 .466.38.844.85.844s.85-.378.85-.844v-.956l1.342 1.514a.85.85 0 001.2.076.84.84 0 00.076-1.191l-1.141-1.287c.796-.344 1.353-1.11 1.353-2.001zm-2.823.508l.536-.002c.313 0 .587-.236.587-.506s-.274-.507-.587-.507h-.538l.002 1.015zM18.676 20.322L16.73 15.2l-.01-.022a.965.965 0 00-.895-.596.965.965 0 00-.896.597l-.002.003-.006.016-1.966 5.123a.842.842 0 00.492 1.089.855.855 0 001.097-.488l.281-.733h1.985l.277.73a.852.852 0 001.095.492.842.842 0 00.495-1.088zm-2.855-2.732l-.35.91h.696l-.346-.91zM8.78 14.58c-.418-.01-.867.37-.85.844v5.196c0 .466.38.844.85.844s.85-.378.85-.844v-1.417c.233-.002.462-.002.607-.002 1.3 0 2.356-1.037 2.356-2.31 0-1.274-1.056-2.31-2.355-2.31H8.78zm1.458 2.933c.355 0 .655-.285.655-.622 0-.338-.3-.623-.655-.623h-.606l.001.359.003.888.602-.002z" fill="#F5890A"/></svg><svg fill="none" viewBox="0 0 64 64" id="ic_step-4" xmlns="http://www.w3.org/2000/svg"><path d="M33 10.764A2.99 2.99 0 0135 10h16a9 9 0 019 9v3a1 1 0 01-2 0v-3a7 7 0 00-4-6.326V16a4 4 0 01-4 4h-8a4 4 0 01-4-4v-4h-3a1 1 0 00-1 1v12a1 1 0 001 1h.343c1.326 0 2.598.527 3.536 1.464l3.657 3.657a2.996 2.996 0 002.121.879H55a3 3 0 003-3v-3a1 1 0 012 0v3a5 5 0 01-3.809 4.857l2.833 14.162a5.003 5.003 0 01-4.903 5.98h-1.842a5 5 0 01-4.903-4.018L45.38 40H42a3 3 0 01-3-3v-2a3 3 0 011.825-2.761l-3.361-3.36a2.996 2.996 0 00-2.121-.88H35a3 3 0 01-3-3v-.17a2.983 2.983 0 01-1 .17h-4a3 3 0 01-3-3v-2h-2a1 1 0 01-1.707.707L19.586 20H16a1 1 0 01-1.707.707L13.586 20H7a2.996 2.996 0 01-2.121-.88 2.996 2.996 0 010-4.241A2.996 2.996 0 017 13.999h1a1 1 0 011.707-.707l.707.708H14a1 1 0 011.707-.707l.707.707H24v-1a3 3 0 013-3h4a2.99 2.99 0 012 .764zM46.22 34l3.117 15.588A3 3 0 0052.279 52h1.842a3 3 0 002.942-3.588L54.18 34h-7.96zm-2.04 0H42a1 1 0 00-1 1v2a1 1 0 001 1h2.98l-.8-4zM30 12v11h1a1 1 0 001-1v-9a1 1 0 00-1-1h-1zm-2 0h-1a1 1 0 00-1 1v9a1 1 0 001 1h1V12zm12 0v4a2 2 0 002 2h8a2 2 0 002-2v-3.93a7.027 7.027 0 00-1-.07H40zm-19.586 6H24v-2h-5.586l2 2zm-6 0h3.172l-2-2h-3.172l2 2zm-4.828-2H7a.997.997 0 00-1 1 .997.997 0 001 1h4.586l-2-2z" fill="#000"/><path d="M55 24h-4a1 1 0 000 2h4a1 1 0 000-2zM47 26a1 1 0 100-2 1 1 0 000 2z" fill="#F5890A"/></svg><svg fill="none" viewBox="0 0 40 40" id="ic_steps" xmlns="http://www.w3.org/2000/svg"><g clip-path="url(#sclip0_372_6920)"><path d="M36.666 17.66a10.343 10.343 0 11-20.687.02 10.343 10.343 0 0120.687-.02z" fill="#CFD8DC"/><path d="M35.333 16.327a10.328 10.328 0 01-16.94 7.94A10.328 10.328 0 0132.94 9.72a10.273 10.273 0 012.393 6.607z" fill="#F5F5F5"/><path d="M26.333 23.66a6 6 0 100-12 6 6 0 000 12z" fill="#CFD8DC"/><path d="M35.493 27.44a6.002 6.002 0 00-4.827 5.887h8.667V28.66c.001-.326-.12-.64-.34-.88l-3.5-.34z" fill="#607D8B"/><path d="M34.379 27.44c-2.118.547-3.713 2.973-3.713 5.887h6.667V28.66a1.529 1.529 0 00-.262-.88l-2.692-.34z" fill="#CFD8DC"/><path d="M2 35.327h2.667v3.333a.667.667 0 01-.667.667H2.667A.667.667 0 012 38.66v-3.333zM35.333 35.327H38v3.333a.667.667 0 01-.667.667H36a.667.667 0 01-.667-.667v-3.333zM3.333 29.327H16c.736 0 1.333.597 1.333 1.333v4H2v-4c0-.736.597-1.333 1.333-1.333z" fill="#607D8B"/><path d="M3.333 29.327H14c.736 0 1.333.597 1.333 1.333v4H2v-4c0-.736.597-1.333 1.333-1.333z" fill="#CFD8DC"/><path d="M1.334 33.327h37.999v2a.667.667 0 01-.667.666H1.334a.667.667 0 01-.667-.666v-1.334c0-.368.298-.666.667-.666z" fill="#CFD8DC"/><path d="M1.334 33.326h35.999v2a.667.667 0 01-.667.667H1.334a.667.667 0 01-.667-.667v-1.333c0-.368.298-.667.667-.667z" fill="#F5F5F5"/><path d="M35.333 26.66l-.02-.02.02.02z" fill="#F3D55B"/><path d="M17.314 3.309L12.424.733a.659.659 0 00-.76.15l-.583.582a.63.63 0 00-.056.886L15.172 6.5l2.211-2.212a.607.607 0 00-.07-.978z" fill="#FF5722"/><path d="M37.287 24.66l-1.974 1.98L18 9.327l-.86-.86L15.174 6.5l1.886-1.886.84.84 1.32 1.32a13.008 13.008 0 0115.573 1.02c.254.213.494.433.734.673a13.011 13.011 0 011.76 16.193z" fill="#C26C08"/><path d="M35.96 23.347l-1.967 1.973L18 9.327l-.86-.86L15.174 6.5l1.88-1.88.84.84c.002 0 .003 0 .005-.002a.006.006 0 00.001-.004l1.32 1.32a13.008 13.008 0 0115.573 1.02 13.009 13.009 0 011.167 15.553z" fill="#F5890A"/><path d="M37.333 28.66a2 2 0 100-4 2 2 0 000 4z" fill="#607D8B"/><path d="M38.666 36.66H1.333A1.335 1.335 0 010 35.327v-1.334c0-.736.597-1.332 1.333-1.333h38c.368 0 .666.298.666.667v2c0 .736-.597 1.332-1.333 1.333zM1.333 33.993v1.334h37.334v-1.334H1.332z" fill="#000"/><path d="M4 39.993H2.666a1.335 1.335 0 01-1.333-1.333v-2.667c0-.368.299-.666.667-.666h2.666c.368 0 .667.298.667.666v2.667c0 .736-.597 1.333-1.333 1.333zM2.666 36.66v2h1.335l-.001-2H2.666zM37.333 39.993h-1.334a1.335 1.335 0 01-1.333-1.333v-2.667c0-.368.298-.666.667-.666h2.666c.368 0 .667.298.667.666v2.667c0 .736-.597 1.333-1.333 1.333zm-1.334-3.333v2h1.335l-.001-2h-1.334zM39.332 33.993h-8.666a.667.667 0 110-1.333h8v-4a.627.627 0 00-.165-.43.666.666 0 11.983-.9c.332.364.516.838.515 1.33v4.667a.667.667 0 01-.667.666z" fill="#000"/><path d="M30.666 33.993a.667.667 0 01-.667-.666 6.682 6.682 0 015.363-6.541.667.667 0 11.26 1.308 5.345 5.345 0 00-4.29 5.233.667.667 0 01-.666.666z" fill="#000"/><path d="M35.332 27.327a.664.664 0 01-.471-.196L16.668 8.938a.666.666 0 010-.943 13.666 13.666 0 0121.18 17.024.667.667 0 01-1.124-.718A12.333 12.333 0 0018.094 8.48l17.71 17.709a.667.667 0 01-.472 1.138z" fill="#000"/><path d="M26.333 28.66a11 11 0 01-7.779-18.777.667.667 0 11.945.94 9.666 9.666 0 1013.67 13.671.666.666 0 11.94.945 10.951 10.951 0 01-7.776 3.22z" fill="#000"/><path d="M26.333 24.327a6.663 6.663 0 01-4.711-11.378.667.667 0 01.942.943 5.33 5.33 0 107.537 7.537.667.667 0 01.943.943 6.62 6.62 0 01-4.711 1.955zM15.172 7.165a.664.664 0 01-.472-.195l-4.147-4.147a1.297 1.297 0 01.056-1.829l.584-.583a1.331 1.331 0 011.543-.267l4.889 2.575c.337.177.57.506.623.883a1.36 1.36 0 01-.394 1.157l-2.21 2.21a.665.665 0 01-.472.196zm-3.62-5.228l3.62 3.619 1.717-1.717-4.775-2.516-.562.614z" fill="#000"/><path d="M18 9.994a.664.664 0 01-.472-.196l-2.827-2.826a.666.666 0 010-.943l1.887-1.886a.666.666 0 01.942 0l2.16 2.16a.667.667 0 01-.942.942l-1.689-1.688-.944.943 2.356 2.356a.667.667 0 01-.472 1.138zM17.333 33.993H2a.667.667 0 01-.667-.666V30.66a2.002 2.002 0 012-2h12.666a2.002 2.002 0 012 2v2.667a.667.667 0 01-.666.666zM2.666 32.66h14v-2a.668.668 0 00-.667-.667H3.333a.668.668 0 00-.667.667v2zM37.333 29.327a2.667 2.667 0 110-5.334 2.667 2.667 0 010 5.334zm0-4a1.333 1.333 0 100 2.666 1.333 1.333 0 000-2.666z" fill="#000"/></g><defs><clipPath id="sclip0_372_6920"><path fill="#fff" d="M0 0h40v40H0z"/></clipPath></defs></svg><svg fill="none" viewBox="0 0 18 18" id="ic_tg" xmlns="http://www.w3.org/2000/svg"><g clip-path="url(#tclip0_373_7331)"><path d="M7.063 11.386l-.298 4.188c.426 0 .61-.183.832-.403l1.997-1.909 4.139 3.03c.759.424 1.293.201 1.498-.697l2.717-12.73c.241-1.122-.405-1.56-1.145-1.286L.836 7.693c-1.09.423-1.074 1.03-.186 1.305l4.083 1.27 9.482-5.933c.446-.296.852-.132.518.163l-7.67 6.888z" fill="#fff"/></g><defs><clipPath id="tclip0_373_7331"><path fill="#fff" d="M0 0h18v18H0z"/></clipPath></defs></svg><svg viewBox="0 0 24 24" id="ic_up" xmlns="http://www.w3.org/2000/svg"><path d="M0 0h24v24H0V0z" fill="none"/><path d="M4 12l1.41 1.41L11 7.83V20h2V7.83l5.58 5.59L20 12l-8-8-8 8z"/></svg><svg fill="none" viewBox="0 0 18 20" id="ic_viber" xmlns="http://www.w3.org/2000/svg"><path d="M11 0H7C3.14 0 0 3.14 0 7v3a7.003 7.003 0 004 6.328v3.342c0 .29.362.44.567.235l2.905-2.902H11c3.86 0 7-3.14 7-7.003V7c0-3.86-3.14-7-7-7zm2.62 13.12l-1.012.99c-1.066 1.043-3.846-.147-6.296-2.65C3.862 8.955 2.788 6.15 3.8 5.108l1.013-.99c.372-.365 1.005-.358 1.422.015l1.46 1.492c.52.533.3 1.425-.388 1.63-.475.153-.797.675-.645 1.15.253 1.11 1.66 2.498 2.71 2.773.473.11 1.003-.148 1.168-.62.218-.683 1.115-.885 1.638-.35l1.457 1.49c.365.372.36 1.005-.015 1.422zM9.91 4.75c-.1 0-.2.005-.297.018a.334.334 0 01-.073-.663 3.336 3.336 0 013.683 3.683.337.337 0 01-.368.295.337.337 0 01-.295-.368A2.672 2.672 0 009.91 4.75zm2 2.668a.336.336 0 01-.335.332.336.336 0 01-.332-.332c0-.735-.598-1.333-1.333-1.333a.334.334 0 110-.668c1.102 0 2 .898 2 2zm2.543 1.077a.34.34 0 01-.413.245.339.339 0 01-.237-.4A4.005 4.005 0 009.6 3.43a.334.334 0 01-.05-.665 4.674 4.674 0 014.902 5.73z" fill="#665CAC"/></svg><svg fill="none" viewBox="0 0 18 18" id="ic_vk" xmlns="http://www.w3.org/2000/svg"><g clip-path="url(#wclip0_373_7326)"><path d="M17.905 13.14a1.236 1.236 0 00-.061-.117c-.313-.563-.91-1.253-1.79-2.072l-.019-.018-.01-.01-.009-.009h-.01c-.4-.381-.652-.637-.758-.768-.194-.25-.238-.503-.132-.76.075-.193.357-.602.844-1.227.256-.331.459-.597.609-.797 1.08-1.437 1.55-2.355 1.406-2.755l-.056-.094c-.038-.056-.134-.107-.29-.154-.157-.047-.357-.055-.6-.024l-2.7.019a.35.35 0 00-.187.005l-.122.028-.047.023-.037.029a.417.417 0 00-.103.098.645.645 0 00-.094.164 15.293 15.293 0 01-1.003 2.109c-.23.387-.443.723-.637 1.007a4.845 4.845 0 01-.487.628c-.132.134-.25.242-.357.323-.106.081-.187.116-.243.103a6.83 6.83 0 01-.16-.037.623.623 0 01-.21-.23 1.028 1.028 0 01-.108-.365 4.06 4.06 0 01-.028-.83c.006-.194.01-.325.01-.393 0-.238.004-.496.013-.774.01-.278.017-.498.024-.66.006-.163.009-.335.009-.516s-.011-.323-.033-.426a1.46 1.46 0 00-.098-.3.505.505 0 00-.192-.225 1.082 1.082 0 00-.314-.127c-.331-.075-.753-.115-1.265-.121-1.162-.013-1.91.062-2.24.225-.131.068-.25.162-.356.28-.113.138-.128.213-.047.226.375.056.64.19.796.402l.057.113c.043.081.087.225.13.431.045.206.073.434.085.684.031.456.031.847 0 1.172-.031.325-.06.578-.089.759a1.52 1.52 0 01-.239.646.161.161 0 01-.047.047.702.702 0 01-.253.047c-.087 0-.193-.044-.318-.131a2.248 2.248 0 01-.39-.36 4.822 4.822 0 01-.454-.643c-.169-.275-.343-.6-.525-.975l-.15-.271c-.093-.175-.221-.43-.384-.764a14.726 14.726 0 01-.43-.97.618.618 0 00-.226-.3l-.047-.028a.641.641 0 00-.15-.08.995.995 0 00-.215-.06L.6 4.334c-.262 0-.44.06-.534.178l-.038.056A.303.303 0 000 4.72c0 .069.019.153.056.253.375.881.783 1.73 1.223 2.55.44.818.823 1.477 1.148 1.977.325.5.656.971.994 1.415.337.443.56.728.67.853.11.125.195.218.257.28l.235.226c.15.15.37.33.66.539.291.209.613.415.966.618s.764.369 1.232.497c.469.128.925.18 1.369.155h1.077c.219-.02.385-.088.497-.207l.037-.047a.621.621 0 00.07-.173.953.953 0 00.033-.257 3.09 3.09 0 01.061-.727c.047-.215.1-.378.16-.487a1.2 1.2 0 01.36-.412.614.614 0 01.075-.033c.15-.05.327-.002.53.145s.394.328.572.544c.178.215.392.457.642.726.25.269.468.469.656.6l.187.112c.125.075.288.144.488.207.2.062.374.078.524.046l2.4-.037c.237 0 .421-.04.552-.117.132-.078.21-.164.235-.258a.725.725 0 00.005-.319 1.173 1.173 0 00-.066-.248z" fill="#fff"/></g><defs><clipPath id="wclip0_373_7326"><path fill="#fff" d="M0 0h18v18H0z"/></clipPath></defs></svg><svg fill="none" viewBox="0 0 18 18" id="ic_yt" xmlns="http://www.w3.org/2000/svg"><g clip-path="url(#xclip0_373_7335)"><path d="M17.63 4.672a2.255 2.255 0 00-1.587-1.586C14.634 2.7 9 2.7 9 2.7s-5.634 0-7.043.371A2.301 2.301 0 00.371 4.672C0 6.081 0 9.002 0 9.002s0 2.935.37 4.33c.208.77.816 1.378 1.587 1.586 1.423.385 7.043.385 7.043.385s5.634 0 7.043-.37a2.255 2.255 0 001.586-1.587c.37-1.409.37-4.33.37-4.33s.016-2.935-.37-4.344z" fill="#fff"/><path d="M7.206 11.7l4.685-2.698-4.685-2.699V11.7z" fill="#F5890A"/></g><defs><clipPath id="xclip0_373_7335"><path fill="#fff" d="M0 0h18v18H0z"/></clipPath></defs></svg></svg>