<svg width="64" height="64" viewBox="0 0 64 64" fill="none" xmlns="http://www.w3.org/2000/svg">
<path d="M11.7328 8C6.44219 8 2.13281 12.3094 2.13281 17.6C2.13281 22.8906 6.44219 27.2 11.7328 27.2C17.0234 27.2 21.3328 22.8906 21.3328 17.6C21.3328 12.3094 17.0234 8 11.7328 8ZM15.9994 18.6666H11.7328C11.1462 18.6666 10.6662 18.1866 10.6662 17.6V11.2C10.6662 10.6134 11.1462 10.1334 11.7328 10.1334C12.3194 10.1334 12.7994 10.6134 12.7994 11.2V16.5334H15.9994C16.5861 16.5334 17.0661 17.0134 17.0661 17.6C17.0661 18.1866 16.5861 18.6666 15.9994 18.6666Z" fill="white"/>
<path d="M17.0659 17.6C17.0659 18.1866 16.5859 18.6666 15.9993 18.6666H11.7326C11.146 18.6666 10.666 18.1866 10.666 17.6V11.2C10.666 10.6134 11.146 10.1334 11.7326 10.1334C12.3193 10.1334 12.7993 10.6134 12.7993 11.2V16.5334H15.9993C16.5859 16.5334 17.0659 17.0134 17.0659 17.6Z" fill="black"/>
<path d="M50.1324 45.3334C46.6018 45.3334 43.7324 48.2028 43.7324 51.7334C43.7324 55.264 46.6018 58.1334 50.1324 58.1334C53.663 58.1334 56.5324 55.264 56.5324 51.7334C56.5324 48.2026 53.663 45.3334 50.1324 45.3334ZM50.1324 56C47.775 56 45.8658 54.0906 45.8658 51.7334C45.8658 49.376 47.7752 47.4668 50.1324 47.4668C52.4898 47.4668 54.399 49.3761 54.399 51.7334C54.399 54.0906 52.4897 56 50.1324 56Z" fill="black"/>
<path d="M50.1338 56C52.4902 56 54.4004 54.0898 54.4004 51.7334C54.4004 49.377 52.4902 47.4667 50.1338 47.4667C47.7774 47.4667 45.8672 49.377 45.8672 51.7334C45.8672 54.0898 47.7774 56 50.1338 56Z" fill="white"/>
<path d="M13.8668 45.3334C10.3362 45.3334 7.4668 48.2028 7.4668 51.7334C7.4668 55.264 10.3362 58.1334 13.8668 58.1334C17.3974 58.1334 20.2668 55.264 20.2668 51.7334C20.2668 48.2026 17.3975 45.3334 13.8668 45.3334ZM13.8668 56C11.5095 56 9.60017 54.0906 9.60017 51.7334C9.60017 49.376 11.5095 47.4668 13.8668 47.4668C16.224 47.4668 18.1334 49.3761 18.1334 51.7334C18.1335 54.0906 16.2242 56 13.8668 56Z" fill="black"/>
<path d="M13.8662 56C16.2226 56 18.1329 54.0898 18.1329 51.7334C18.1329 49.377 16.2226 47.4667 13.8662 47.4667C11.5098 47.4667 9.59961 49.377 9.59961 51.7334C9.59961 54.0898 11.5098 56 13.8662 56Z" fill="white"/>
<path d="M63.8614 36.2774L58.528 26.6774C58.3466 26.3468 57.984 26.1334 57.6 26.1334H44.8C44.2134 26.1334 43.7334 26.6134 43.7334 27.2V43.2H41.6C41.6 35.1466 41.6 20.8 41.6 20.8C41.6 18.4426 39.6906 16.5334 37.3334 16.5334H23.4134C22.8694 10.56 17.8454 5.86676 11.7334 5.86676C5.25862 5.86664 0 11.1254 0 17.6C0 19.3386 0.384 20.9814 1.06662 22.464V42.1334C0.48 42.1334 0 42.6134 0 43.2V48.5334C0 48.8214 0.117375 49.088 0.309375 49.2908C0.629375 49.6001 0.629375 49.6001 4.82137 49.6001C5.26937 49.6001 5.67475 49.3121 5.824 48.8855C7.01862 45.4829 10.2614 43.2001 13.8666 43.2001C17.4826 43.2001 20.7146 45.4828 21.9093 48.8855C22.0693 49.3121 22.4639 49.6001 22.9226 49.6001H40.5332C41.1199 49.6001 41.5999 49.1201 41.5999 48.5335V45.3335H44.0959C44.3413 45.3335 44.5759 45.2481 44.7679 45.0989C46.3039 43.8509 48.1599 43.2003 50.1333 43.2003C53.7493 43.2003 56.9813 45.4829 58.1759 48.8856C58.3359 49.3123 58.7305 49.6003 59.1893 49.6003H62.9333C63.5199 49.6003 63.9999 49.1203 63.9999 48.5336V36.8C64 36.6186 63.9574 36.4374 63.8614 36.2774ZM11.7334 8.00001C17.024 8.00001 21.3334 12.3094 21.3334 17.6C21.3334 22.8906 17.024 27.2 11.7334 27.2C6.44275 27.2 2.13337 22.8906 2.13337 17.6C2.13337 12.3094 6.44262 8.00001 11.7334 8.00001ZM23.648 47.4666C21.9626 43.6053 18.1226 41.0666 13.8666 41.0666C9.61062 41.0666 5.77063 43.6053 4.08525 47.4666H2.13337V44.2666C2.72 44.2666 3.2 43.7866 3.2 43.2V40H4.26662C4.85325 40 5.33325 39.52 5.33325 38.9334C5.33325 38.3468 4.85325 37.8668 4.26662 37.8668H3.2V25.6321C5.344 27.9041 8.37337 29.3335 11.7334 29.3335C17.8454 29.3335 22.8694 24.6401 23.4134 18.6669H37.3334C38.5067 18.6669 39.4668 19.6269 39.4668 20.8003V44.2029C39.4668 45.6429 39.4668 46.6883 39.4881 47.4669L23.648 47.4666ZM50.1334 28.2666H56.9707L61.1201 35.7333H50.1335V28.2666H50.1334ZM61.8666 40H60.8C60.2134 40 59.7334 40.48 59.7334 41.0666C59.7334 41.6533 60.2134 42.1333 60.8 42.1333H61.8666V47.4666H59.9146C58.2292 43.6053 54.3893 41.0666 50.1333 41.0666C48.6613 41.0666 47.1999 41.376 45.8666 41.9626V28.2666H48V36.8C48 37.3866 48.48 37.8666 49.0666 37.8666H61.8666V40Z" fill="black"/>
<path d="M61.1194 35.7334H50.1328V28.2667H56.9701L61.1194 35.7334Z" fill="white"/>
<path d="M59.7339 41.0667C59.7339 41.6533 60.2139 42.1333 60.8006 42.1333H61.8672V47.4667H59.9152C58.2298 43.6053 54.3898 41.0667 50.1338 41.0667C48.6618 41.0667 47.2004 41.376 45.8672 41.9627V28.2667H48.0006V36.8C48.0006 37.3867 48.4806 37.8667 49.0672 37.8667H61.8672V40H60.8006C60.2139 40 59.7339 40.48 59.7339 41.0667Z" fill="#717272"/>
<path d="M39.4874 47.4666H23.6474C21.9621 43.6052 18.1221 41.0666 13.8661 41.0666C9.61006 41.0666 5.77006 43.6052 4.08469 47.4666H2.13281V44.2666C2.71944 44.2666 3.19944 43.7866 3.19944 43.2V40H4.26606C4.85269 40 5.33269 39.52 5.33269 38.9334C5.33269 38.3467 4.85269 37.8667 4.26606 37.8667H3.19944V25.6321C5.34344 27.9041 8.37281 29.3335 11.7328 29.3335C17.8448 29.3335 22.8688 24.6401 23.4128 18.6669H37.3328C38.5062 18.6669 39.4662 19.6269 39.4662 20.8002V44.2029C39.4661 45.6426 39.4661 46.688 39.4874 47.4666Z" fill="#F5890A"/>
<path d="M56.9701 28.2667H54.9552L57.9194 33.6H50.1328V35.7334H61.1194L56.9701 28.2667Z" fill="#F4F4F4"/>
<path d="M52.5676 48.2336C53.0488 48.9249 53.3345 49.7611 53.3345 50.6668C53.3345 53.0241 51.4251 54.9334 49.0679 54.9334C48.1623 54.9334 47.326 54.6475 46.6348 54.1665C47.406 55.2726 48.6828 56.0001 50.1345 56.0001C52.4919 56.0001 54.4011 54.0908 54.4011 51.7335C54.4013 50.2816 53.6738 49.0048 52.5676 48.2336Z" fill="#F4F4F4"/>
<path d="M16.3001 48.2336C16.7812 48.9249 17.0669 49.7611 17.0669 50.6668C17.0669 53.0241 15.1576 54.9334 12.8003 54.9334C11.8947 54.9334 11.0584 54.6475 10.3672 54.1665C11.1384 55.2725 12.4152 56 13.8669 56C16.2243 56 18.1336 54.0906 18.1336 51.7334C18.1337 50.2816 17.4062 49.0048 16.3001 48.2336Z" fill="#F4F4F4"/>
<path d="M39.4656 44.2026V20.8C39.4656 19.6266 38.5056 18.6666 37.3323 18.6666V42.0693C37.3323 43.5093 37.3323 44.5546 37.3536 45.3333H22.3691C22.8651 45.9904 23.3099 46.6933 23.647 47.4666H39.487C39.4656 46.688 39.4656 45.6426 39.4656 44.2026Z" fill="#C26C08"/>
<path d="M2.13281 45.3334V47.4668H4.08481C4.42194 46.6934 4.86669 45.9905 5.36269 45.3334H2.13281Z" fill="#004D40"/>
<path d="M58.6367 45.3334C59.1327 45.9905 59.5775 46.6934 59.9146 47.4668H61.8666V42.1334H60.8C60.2133 42.1334 59.7333 41.6534 59.7333 41.0668V45.3334H58.6367Z" fill="#555656"/>
<path d="M60.7992 40H61.8658V37.8666H59.7324V41.0666C59.7325 40.48 60.2125 40 60.7992 40Z" fill="#555656"/>
<path d="M17.3593 9.84003C18.5113 11.424 19.1993 13.3643 19.1993 15.4667C19.1993 20.7573 14.8899 25.0667 9.59928 25.0667C7.49691 25.0667 5.55666 24.3787 3.97266 23.2267C5.71978 25.6288 8.54441 27.2 11.7327 27.2C17.0233 27.2 21.3327 22.8907 21.3327 17.6C21.3327 14.4118 19.7614 11.5873 17.3593 9.84003Z" fill="#F4F4F4"/>
</svg>
