<svg width="64" height="64" viewBox="0 0 64 64" fill="none" xmlns="http://www.w3.org/2000/svg">
<g clip-path="url(#clip0_423_5032)">
<path d="M55.4671 28.8002H46.9338C46.3472 28.8002 45.8672 29.2802 45.8672 29.8668V55.4666C45.8672 56.0532 46.3472 56.5332 46.9338 56.5332H55.4671C56.0537 56.5332 56.5337 56.0532 56.5337 55.4666V29.8668C56.5337 29.2802 56.0537 28.8002 55.4671 28.8002ZM54.4004 54.4H48.0004V30.9335H54.4004V54.4Z" fill="black"/>
<path d="M42.7096 19.2963H34.1763C33.611 19.2963 33.1523 19.7443 33.1523 20.3096V55.5094C33.1523 56.0747 33.611 56.5333 34.1763 56.5333H42.7096C43.275 56.5333 43.7336 56.0747 43.7336 55.5094V20.3096C43.7336 19.7443 43.2749 19.2963 42.7096 19.2963ZM41.6857 54.496H35.2003V21.3336H41.6857V54.496Z" fill="black"/>
<path d="M29.8675 24.5336H21.3342C20.7476 24.5336 20.2676 25.0136 20.2676 25.6002V55.4666C20.2676 56.0532 20.7476 56.5332 21.3342 56.5332H29.8675C30.4541 56.5332 30.9341 56.0532 30.9341 55.4666V25.6002C30.9342 25.0136 30.4542 24.5336 29.8675 24.5336ZM28.8009 54.4H22.4009V26.6669H28.8009V54.4Z" fill="black"/>
<path d="M17.0666 13.8671H8.53341C7.94679 13.8671 7.4668 14.3471 7.4668 14.9337V55.4667C7.4668 56.0534 7.94679 56.5334 8.53341 56.5334H17.0667C17.6533 56.5334 18.1333 56.0534 18.1333 55.4667V14.9337C18.1333 14.3471 17.6533 13.8671 17.0666 13.8671ZM16 54.4H9.60003V16.0003H16V54.4Z" fill="black"/>
<path d="M16.0013 3.20038C16.2232 3.20038 16.4482 3.26975 16.6402 3.41375L28.9526 12.6478L41.1893 7.54922C41.554 7.3956 41.9711 7.4586 42.2751 7.70709L53.3332 16.7545V13.867C53.3332 13.2772 53.811 12.8004 54.3998 12.8004C54.9885 12.8004 55.4664 13.2772 55.4664 13.867V19.2004C55.4664 19.7902 54.9885 20.267 54.3998 20.267H47.9998C47.4111 20.267 46.9332 19.7902 46.9332 19.2004C46.9332 18.6105 47.4111 18.1338 47.9998 18.1338H51.6478L41.4198 9.76358L29.2107 14.8515C28.862 14.9967 28.462 14.9464 28.1601 14.7203L15.3602 5.12036C14.8887 4.76724 14.7938 4.0985 15.1468 3.62812C15.356 3.34763 15.6771 3.20038 16.0013 3.20038Z" fill="black"/>
<path d="M63.6873 58.9792L60.4874 55.7792C60.0702 55.3621 59.3961 55.3621 58.9791 55.7792C58.5621 56.1963 58.562 56.8705 58.9791 57.2875L60.3584 58.6667H5.33368V3.642L6.71279 5.02124C6.92079 5.22924 7.19391 5.33373 7.46691 5.33373C7.74003 5.33373 8.01303 5.22924 8.22103 5.02124C8.63815 4.60412 8.63815 3.93 8.22103 3.513L5.02105 0.313024C4.60393 -0.104097 3.92981 -0.104097 3.51282 0.313024L0.312841 3.513C-0.10428 3.93012 -0.10428 4.60424 0.312841 5.02124C0.729963 5.43823 1.40408 5.43836 1.82108 5.02124L3.20032 3.642V59.7333C3.20032 60.3232 3.67819 60.7999 4.26694 60.7999H60.3582L58.979 62.1792C58.5619 62.5963 58.5619 63.2704 58.979 63.6874C59.187 63.8954 59.4601 63.9999 59.7331 63.9999C60.0061 63.9999 60.2792 63.8954 60.4872 63.6874L63.6872 60.4874C64.1043 60.0703 64.1043 59.3962 63.6873 58.9792Z" fill="black"/>
<path d="M54.3999 30.9335H48V54.4H54.3999V30.9335Z" fill="#D81B60"/>
<path d="M41.6845 21.3336H35.1992V54.4854H41.6845V21.3336Z" fill="#F5890A"/>
<path d="M28.8003 26.6669H22.4004V54.4001H28.8003V26.6669Z" fill="#5E35B1"/>
<path d="M15.9996 16.0003H9.59961V54.4H15.9996V16.0003Z" fill="#00796B"/>
<path d="M52.2666 30.9335V52.2667H48V54.4H54.3999V30.9335H52.2666Z" fill="#AD1457"/>
<path d="M39.5512 21.339V52.3574H35.1992V54.4907H41.6845V21.339H39.5512Z" fill="#C26C08"/>
<path d="M26.667 26.6669V52.2667H22.4004V54.4H28.8003V26.6669H26.667Z" fill="#311B92"/>
<path d="M13.8662 16.0003V52.2668H9.59961V54.4H15.9996V16.0003H13.8662Z" fill="#004D40"/>
</g>
<defs>
<clipPath id="clip0_423_5032">
<rect width="64" height="64" fill="white"/>
</clipPath>
</defs>
</svg>
