<svg width="64" height="64" viewBox="0 0 64 64" fill="none" xmlns="http://www.w3.org/2000/svg">
<g clip-path="url(#clip0_423_5050)">
<path d="M63 44V63H51L63 44Z" fill="#FEBD55"/>
<path d="M54.68 44.68L57 41L63 44L51 63L45 60L46.94 56.94L54.68 44.68Z" fill="#EDF4FA"/>
<path d="M13.5898 29.59C13.7731 29.402 13.9925 29.2528 14.2347 29.1515C14.477 29.0501 14.7372 28.9986 14.9998 29C16.3065 28.9984 17.5866 29.3696 18.6898 30.07L27.9998 36H23.4998C22.7869 35.9971 22.0911 36.2174 21.5098 36.63L13.1698 31C13.1198 30.96 13.0598 30.93 13.0098 30.89C13.031 30.3987 13.2384 29.9339 13.5898 29.59Z" fill="#FEB589"/>
<path d="M22 43C22 43 13.05 35.84 8.97 32.58C8.66349 32.3362 8.33926 32.1156 8 31.92V31.73C8.00825 31.4942 8.06294 31.2623 8.16094 31.0476C8.25894 30.833 8.39831 30.6398 8.57109 30.4791C8.74387 30.3184 8.94665 30.1934 9.16782 30.1111C9.38899 30.0289 9.62421 29.9911 9.86 30H10C11.0689 29.995 12.1157 30.3045 13.01 30.89C13.06 30.93 13.12 30.96 13.17 31L21.51 36.63C21.3388 36.7493 21.1782 36.8831 21.03 37.03C20.7029 37.3527 20.4434 37.7373 20.2665 38.1614C20.0897 38.5854 19.9991 39.0405 20 39.5C20 40.4282 20.3687 41.3185 21.0251 41.9748C21.6815 42.6312 22.5717 43 23.5 43H22Z" fill="#FEB589"/>
<path d="M8.97 32.58C13.05 35.84 22 43 22 43H23.5C22.5717 43 21.6815 42.6312 21.0251 41.9748C20.3687 41.3184 20 40.4282 20 39.5C19.9991 39.0405 20.0897 38.5854 20.2665 38.1613C20.4434 37.7373 20.7029 37.3526 21.03 37.03C21.1782 36.8831 21.3388 36.7493 21.51 36.63C22.0913 36.2173 22.7872 35.997 23.5 36H42C44.5612 36.0037 47.0168 37.0212 48.83 38.83L54.68 44.68L46.94 56.94L46 56H28.69C25.6663 56.002 22.7437 54.9117 20.46 52.93L2.13 37.03C1.77459 36.7048 1.49062 36.3093 1.2961 35.8686C1.10158 35.428 1.00075 34.9517 1 34.47V34.38C0.999476 33.9359 1.08654 33.4962 1.25622 33.0859C1.42589 32.6755 1.67484 32.3027 1.98881 31.9888C2.30277 31.6748 2.67559 31.4258 3.08591 31.2562C3.49623 31.0865 3.93599 30.9994 4.38 31H4.45C5.69262 30.9974 6.91505 31.3142 8 31.92C8.33926 32.1156 8.66349 32.3362 8.97 32.58Z" fill="#FFD6BD"/>
<path d="M39 40H24C23.2648 39.9982 22.5445 39.793 21.9186 39.4072C21.2928 39.0214 20.7859 38.47 20.454 37.814C20.1605 38.3277 20.0041 38.9083 20 39.5C20 40.4282 20.3687 41.3185 21.0251 41.9748C21.6815 42.6312 22.5717 43 23.5 43H42C42 42.2043 41.6839 41.4413 41.1213 40.8786C40.5587 40.316 39.7956 40 39 40Z" fill="#FEC09B"/>
<path d="M52.222 42.222L49.537 46.443C48.4531 48.146 46.9571 49.5481 45.1875 50.5195C43.4178 51.4908 41.4317 52 39.413 52H27.1C25.741 52.0003 24.4222 51.5387 23.36 50.691L4.648 35.773C3.96329 35.252 3.46478 34.5242 3.22646 33.6976C2.98813 32.8709 3.02269 31.9894 3.325 31.184C2.64981 31.4032 2.06129 31.8305 1.64367 32.4045C1.22605 32.9786 1.00074 33.6701 1 34.38V34.47C1.00074 34.9517 1.10157 35.428 1.2961 35.8687C1.49062 36.3093 1.77459 36.7048 2.13 37.03L20.46 52.93C22.7437 54.9118 25.6663 56.002 28.69 56H46L46.94 56.94L54.68 44.68L52.222 42.222Z" fill="#FEC09B"/>
<path d="M20 39.5C19.9991 39.0405 20.0897 38.5854 20.2665 38.1614C20.4434 37.7373 20.7029 37.3527 21.03 37.03C21.1782 36.8831 21.3388 36.7493 21.51 36.63L20.783 36.139C20.1347 36.6096 19.3599 36.8744 18.5592 36.899C17.7585 36.9236 16.9689 36.7069 16.293 36.277L9.052 31.669C8.84204 31.5333 8.69174 31.3226 8.63172 31.08C8.5717 30.8373 8.60649 30.5809 8.729 30.363C8.50676 30.5157 8.32451 30.7196 8.19763 30.9575C8.07075 31.1954 8.00297 31.4604 8 31.73V31.92C8.33926 32.1156 8.66349 32.3362 8.97 32.58C13.05 35.84 22 43 22 43H23.5C22.5717 43 21.6815 42.6312 21.0251 41.9748C20.3687 41.3185 20 40.4282 20 39.5Z" fill="#EDA377"/>
<path d="M23.6058 35C22.5529 35.0011 21.5183 34.7252 20.6058 34.2L15.4788 31.243C15.0938 31.0489 14.7824 30.7349 14.5916 30.3483C14.4007 29.9618 14.3408 29.5236 14.4208 29.1C14.0284 29.2175 13.6821 29.4536 13.4294 29.7759C13.1768 30.0982 13.0302 30.4909 13.0098 30.9C13.0598 30.94 13.1198 30.97 13.1698 31.01L21.5098 36.64C22.0899 36.2238 22.7858 36 23.4998 36H27.9998L26.4298 35H23.6058Z" fill="#EDA377"/>
<path d="M60.446 58C60.0958 57.9999 59.7517 57.9078 59.4482 57.733C59.1447 57.5581 58.8925 57.3066 58.7167 57.0037C58.541 56.7008 58.4478 56.357 58.4467 56.0068C58.4455 55.6565 58.5363 55.3121 58.71 55.008L63 47.5V44L51 63H63V58H60.446Z" fill="#F5890A"/>
<path d="M60.022 42.511L51.833 55.167C51.3371 55.9313 50.5946 56.503 49.7288 56.7869C48.8631 57.0709 47.9263 57.0501 47.074 56.728L46.94 56.94L45 60L51 63L63 44L60.022 42.511Z" fill="#D6E0EB"/>
<path d="M47 16C47 17.089 44.686 17.9 44.46 18.915C44.227 19.966 45.96 21.72 45.517 22.669C45.074 23.618 42.636 23.332 41.991 24.16C41.346 24.988 42.165 27.348 41.353 28.013C40.541 28.678 38.486 27.33 37.544 27.795C36.618 28.253 36.364 30.743 35.338 30.982C34.344 31.214 33.063 29.088 32 29.088C30.937 29.088 29.656 31.214 28.662 30.982C27.635 30.743 27.381 28.253 26.455 27.795C25.513 27.33 23.455 28.673 22.646 28.012C21.837 27.351 22.657 24.992 22.009 24.16C21.361 23.328 18.937 23.632 18.483 22.668C18.036 21.72 19.773 19.968 19.54 18.914C19.314 17.9 17 17.088 17 16C17 14.912 19.314 14.1 19.54 13.085C19.773 12.034 18.04 10.28 18.483 9.331C18.926 8.382 21.364 8.668 22.009 7.84C22.654 7.012 21.835 4.652 22.647 3.987C23.459 3.322 25.514 4.67 26.456 4.205C27.382 3.747 27.636 1.257 28.662 1.018C29.656 0.786 30.937 2.912 32 2.912C33.063 2.912 34.344 0.786 35.338 1.018C36.365 1.257 36.619 3.747 37.545 4.205C38.487 4.67 40.545 3.327 41.354 3.988C42.163 4.649 41.343 7.008 41.991 7.84C42.639 8.672 45.063 8.368 45.517 9.332C45.964 10.28 44.227 12.032 44.46 13.086C44.686 14.1 47 14.912 47 16Z" fill="#D62B39"/>
<path d="M44 16C44 16.871 42.149 17.517 41.968 18.332C41.781 19.173 43.168 20.576 42.813 21.332C42.458 22.088 40.513 21.863 39.993 22.525C39.473 23.187 40.132 25.076 39.482 25.607C38.832 26.138 37.189 25.061 36.436 25.433C35.683 25.805 35.491 27.792 34.67 27.983C33.87 28.168 32.85 26.468 32 26.468C31.15 26.468 30.125 28.168 29.329 27.983C28.508 27.792 28.305 25.799 27.564 25.433C26.823 25.067 25.164 26.133 24.517 25.607C23.87 25.081 24.526 23.191 24.007 22.525C23.488 21.859 21.55 22.103 21.186 21.332C20.822 20.561 22.219 19.17 22.032 18.332C21.851 17.517 20 16.871 20 16C20 15.129 21.851 14.483 22.032 13.668C22.219 12.827 20.832 11.424 21.187 10.668C21.542 9.912 23.487 10.137 24.007 9.475C24.527 8.813 23.868 6.924 24.518 6.393C25.168 5.862 26.811 6.939 27.564 6.567C28.317 6.195 28.509 4.208 29.33 4.017C30.13 3.832 31.15 5.532 32 5.532C32.85 5.532 33.875 3.832 34.671 4.017C35.492 4.208 35.695 6.201 36.436 6.567C37.177 6.933 38.836 5.867 39.483 6.393C40.13 6.919 39.474 8.809 39.993 9.475C40.512 10.141 42.45 9.897 42.814 10.668C43.178 11.439 41.781 12.83 41.968 13.668C42.149 14.483 44 15.129 44 16Z" fill="#FF5252"/>
<path d="M17.693 18.366C18.0101 18.5831 18.3016 18.8354 18.562 19.118C18.4644 19.5263 18.3052 19.9175 18.09 20.278C17.643 21.158 17.136 22.154 17.578 23.094C18.033 24.06 19.133 24.278 20.104 24.471C20.4801 24.5262 20.8489 24.6224 21.204 24.758C21.2847 25.1648 21.3059 25.5811 21.267 25.994C21.235 26.994 21.2 28.124 22.01 28.786C22.82 29.448 23.91 29.168 24.867 28.914C25.2309 28.8018 25.604 28.7222 25.982 28.676C26.2181 29.003 26.4072 29.3615 26.544 29.741C26.944 30.666 27.396 31.715 28.431 31.957C28.5596 31.9865 28.6911 32.0015 28.823 32.002C29.6763 31.8772 30.4583 31.4559 31.032 30.812C31.3176 30.5355 31.6337 30.2923 31.974 30.087C32.3365 30.2789 32.6688 30.5231 32.96 30.812C33.702 31.459 34.544 32.194 35.56 31.957C36.595 31.715 37.047 30.667 37.446 29.741C37.5842 29.3796 37.7556 29.0318 37.958 28.702C38.3543 28.7178 38.7465 28.7892 39.123 28.914C40.078 29.169 41.159 29.458 41.981 28.787C42.803 28.116 42.755 26.994 42.724 25.996C42.6907 25.5959 42.7024 25.1934 42.759 24.796C43.1188 24.6345 43.5001 24.526 43.891 24.474C44.862 24.282 45.962 24.064 46.416 23.098C46.859 22.158 46.352 21.161 45.905 20.281C45.6989 19.9276 45.5374 19.55 45.424 19.157C45.678 18.8542 45.9736 18.5889 46.302 18.369C47.1 17.76 48 17.073 48 16C48 14.927 47.1 14.24 46.307 13.634C45.9899 13.4169 45.6984 13.1646 45.438 12.882C45.5356 12.4736 45.6948 12.0825 45.91 11.722C46.357 10.842 46.864 9.84598 46.422 8.90598C45.967 7.93998 44.867 7.72198 43.896 7.52898C43.5199 7.4738 43.1511 7.37756 42.796 7.24198C42.7153 6.8352 42.6941 6.41886 42.733 6.00598C42.765 5.00598 42.8 3.87598 41.99 3.21398C41.18 2.55198 40.09 2.83098 39.133 3.08598C38.7701 3.20184 38.3966 3.28157 38.018 3.32398C37.7819 2.99691 37.5928 2.63844 37.456 2.25898C37.056 1.33398 36.604 0.284979 35.569 0.0429788C34.554 -0.191021 33.711 0.542979 32.969 1.18798C32.6834 1.46441 32.3673 1.70763 32.027 1.91298C31.6645 1.72111 31.3322 1.47681 31.041 1.18798C30.299 0.540979 29.458 -0.189021 28.441 0.0429788C27.406 0.284979 26.954 1.33298 26.555 2.25898C26.415 2.62128 26.2416 2.96978 26.037 3.29998C25.6406 3.28432 25.2485 3.21296 24.872 3.08798C23.918 2.83398 22.836 2.54398 22.014 3.21498C21.192 3.88598 21.24 5.00598 21.271 5.99998C21.3043 6.40003 21.2926 6.80255 21.236 7.19998C20.8762 7.3615 20.4949 7.46996 20.104 7.52198C19.133 7.71398 18.033 7.93198 17.579 8.89798C17.136 9.83798 17.643 10.835 18.09 11.715C18.2961 12.0684 18.4576 12.4459 18.571 12.839C18.317 13.1418 18.0214 13.4071 17.693 13.627C16.9 14.24 16 14.927 16 16C16 17.073 16.9 17.76 17.693 18.366ZM18.907 15.223C19.6522 14.7905 20.2218 14.1098 20.516 13.3C20.5943 12.4217 20.3672 11.5433 19.873 10.813C19.6883 10.4807 19.5359 10.1314 19.418 9.76998C19.7662 9.6412 20.1263 9.54707 20.493 9.48898C21.3588 9.42935 22.1746 9.06186 22.793 8.45298C23.2353 7.69476 23.4024 6.80712 23.266 5.93998C23.2418 5.55975 23.2532 5.17809 23.3 4.79998C23.6568 4.84192 24.0092 4.91554 24.353 5.01998C25.1652 5.35009 26.0687 5.37847 26.9 5.09998C27.6211 4.61252 28.1475 3.88676 28.387 3.04998C28.53 2.71998 28.759 2.18698 28.864 2.02598C29.1706 2.22211 29.4585 2.44605 29.724 2.69498C30.3148 3.35717 31.1212 3.78839 32 3.91198C32.8789 3.79042 33.6861 3.36094 34.278 2.69998C34.5376 2.45988 34.8162 2.24117 35.111 2.04598C35.3093 2.36682 35.4783 2.70485 35.616 3.05598C35.8565 3.88984 36.3816 4.61307 37.1 5.09998C37.9307 5.37677 38.8331 5.34733 39.644 5.01698C39.9886 4.91257 40.3421 4.83993 40.7 4.79998C40.7457 5.17954 40.7558 5.56255 40.73 5.94398C40.5928 6.81013 40.7588 7.69709 41.2 8.45498C41.818 9.06446 42.6341 9.43205 43.5 9.49098C43.8666 9.54984 44.2267 9.64429 44.575 9.77298C44.4573 10.1342 44.3049 10.4831 44.12 10.815C43.6258 11.5453 43.3987 12.4237 43.477 13.302C43.7716 14.1114 44.3411 14.7916 45.086 15.224C45.4096 15.4481 45.7065 15.7085 45.971 16C45.7063 16.2916 45.4094 16.5522 45.086 16.777C44.3434 17.2107 43.7765 17.8912 43.484 18.7C43.4057 19.5783 43.6328 20.4567 44.127 21.187C44.3117 21.5193 44.4641 21.8685 44.582 22.23C44.2338 22.3588 43.8737 22.4529 43.507 22.511C42.6412 22.5706 41.8254 22.9381 41.207 23.547C40.7647 24.3052 40.5976 25.1928 40.734 26.06C40.7582 26.4402 40.7468 26.8219 40.7 27.2C40.3432 27.158 39.9908 27.0844 39.647 26.98C38.8346 26.6508 37.9314 26.6225 37.1 26.9C36.3789 27.3874 35.8525 28.1132 35.613 28.95C35.47 29.28 35.241 29.813 35.136 29.974C34.8294 29.7779 34.5415 29.5539 34.276 29.305C33.6852 28.6428 32.8788 28.2116 32 28.088C31.1211 28.2095 30.3139 28.639 29.722 29.3C29.4624 29.5401 29.1838 29.7588 28.889 29.954C28.6924 29.633 28.5251 29.2949 28.389 28.944C28.1472 28.1094 27.6203 27.386 26.9 26.9C26.0692 26.6237 25.167 26.6532 24.356 26.983C24.0121 27.0883 23.6593 27.1619 23.302 27.203C23.2563 26.8234 23.2462 26.4404 23.272 26.059C23.4086 25.1922 23.2415 24.3048 22.799 23.547C22.181 22.9375 21.365 22.5699 20.499 22.511C20.1324 22.4521 19.7723 22.3577 19.424 22.229C19.5417 21.8678 19.6941 21.5188 19.879 21.187C20.3732 20.4567 20.6003 19.5783 20.522 18.7C20.2274 17.8906 19.6579 17.2104 18.913 16.778C18.5872 16.5536 18.2883 16.2925 18.022 16C18.2867 15.7084 18.5836 15.4477 18.907 15.223Z" fill="black"/>
<path d="M37.2933 9.29266L25.293 21.293L26.7072 22.7072L38.7075 10.7069L37.2933 9.29266Z" fill="black"/>
<path d="M35 18C34.4067 18 33.8266 18.1759 33.3333 18.5056C32.8399 18.8352 32.4554 19.3038 32.2284 19.8519C32.0013 20.4001 31.9419 21.0033 32.0576 21.5853C32.1734 22.1672 32.4591 22.7018 32.8787 23.1213C33.2982 23.5409 33.8328 23.8266 34.4147 23.9424C34.9967 24.0581 35.5999 23.9987 36.148 23.7716C36.6962 23.5446 37.1648 23.1601 37.4944 22.6667C37.8241 22.1734 38 21.5933 38 21C38 20.2044 37.6839 19.4413 37.1213 18.8787C36.5587 18.3161 35.7957 18 35 18ZM35 22C34.8022 22 34.6089 21.9414 34.4444 21.8315C34.28 21.7216 34.1518 21.5654 34.0761 21.3827C34.0004 21.2 33.9806 20.9989 34.0192 20.8049C34.0578 20.6109 34.153 20.4327 34.2929 20.2929C34.4327 20.153 34.6109 20.0578 34.8049 20.0192C34.9989 19.9806 35.2 20.0004 35.3827 20.0761C35.5654 20.1518 35.7216 20.28 35.8315 20.4444C35.9414 20.6089 36 20.8022 36 21C36 21.2652 35.8946 21.5196 35.7071 21.7071C35.5196 21.8946 35.2652 22 35 22Z" fill="black"/>
<path d="M29 14C29.5933 14 30.1734 13.8241 30.6667 13.4944C31.1601 13.1648 31.5446 12.6962 31.7716 12.1481C31.9987 11.5999 32.0581 10.9967 31.9424 10.4147C31.8266 9.83279 31.5409 9.29824 31.1213 8.87868C30.7018 8.45912 30.1672 8.1734 29.5853 8.05765C29.0033 7.94189 28.4001 8.0013 27.8519 8.22836C27.3038 8.45543 26.8352 8.83994 26.5056 9.33329C26.1759 9.82664 26 10.4067 26 11C26 11.7957 26.3161 12.5587 26.8787 13.1213C27.4413 13.6839 28.2044 14 29 14ZM29 10C29.1978 10 29.3911 10.0587 29.5556 10.1685C29.72 10.2784 29.8482 10.4346 29.9239 10.6173C29.9996 10.8 30.0194 11.0011 29.9808 11.1951C29.9422 11.3891 29.847 11.5673 29.7071 11.7071C29.5673 11.847 29.3891 11.9422 29.1951 11.9808C29.0011 12.0194 28.8 11.9996 28.6173 11.9239C28.4346 11.8482 28.2784 11.72 28.1685 11.5556C28.0586 11.3911 28 11.1978 28 11C28 10.7348 28.1054 10.4804 28.2929 10.2929C28.4804 10.1054 28.7348 10 29 10Z" fill="black"/>
<path d="M42 42H40V44H42V42Z" fill="black"/>
<path d="M63.4475 43.105L57.4475 40.105C57.2256 39.9941 56.9704 39.9696 56.7314 40.0363C56.4924 40.103 56.2868 40.2561 56.1545 40.466L46.7545 55.344L46.7035 55.293C46.517 55.1064 46.2643 55.0011 46.0005 55H28.6905C25.9076 55.0016 23.2177 53.9985 21.1155 52.175L2.80648 36.292C2.54457 36.0484 2.3373 35.752 2.19836 35.4225C2.05943 35.0929 1.99198 34.7376 2.00048 34.38C2.00306 34.0623 2.06871 33.7482 2.19361 33.456C2.31852 33.1639 2.5002 32.8994 2.72812 32.678C2.95603 32.4566 3.22564 32.2827 3.5213 32.1663C3.81697 32.0499 4.1328 31.9934 4.45048 32C5.51486 31.9972 6.5623 32.2664 7.49348 32.782C7.79162 32.9538 8.07672 33.1474 8.34648 33.361L21.3755 43.781C21.5529 43.9229 21.7733 44.0001 22.0005 44H38.0005V42H23.5005C22.8374 42 22.2016 41.7366 21.7327 41.2678C21.2639 40.7989 21.0005 40.163 21.0005 39.5C20.9991 39.172 21.0636 38.8471 21.19 38.5444C21.3164 38.2418 21.5022 37.9676 21.7365 37.738C21.846 37.6298 21.9648 37.5314 22.0915 37.444C22.5028 37.1515 22.9958 36.9962 23.5005 37H42.0005C44.2965 37.0036 46.4978 37.9156 48.1235 39.537L52.2945 43.708L53.7085 42.294L49.5375 38.123C47.537 36.1263 44.8269 35.0033 42.0005 35H23.5005C22.8241 34.9987 22.1563 35.1523 21.5485 35.449L14.1605 30.466C14.203 30.4018 14.2519 30.3422 14.3065 30.288C14.3967 30.1956 14.5048 30.1225 14.624 30.073C14.7433 30.0235 14.8714 29.9987 15.0005 30C16.1169 29.9983 17.2107 30.315 18.1535 30.913L24.3245 34.844L25.4005 33.157L19.2295 29.226C17.9653 28.423 16.4981 27.9977 15.0005 28C14.6063 27.9977 14.2156 28.0746 13.8518 28.2263C13.4879 28.378 13.1583 28.6013 12.8825 28.883C12.7078 29.0635 12.5563 29.265 12.4315 29.483C11.6607 29.164 10.8347 28.9999 10.0005 29H9.86048C9.33732 28.9965 8.82317 29.1362 8.3737 29.404C7.92422 29.6717 7.55655 30.0573 7.31048 30.519C6.37183 30.1754 5.38003 29.9997 4.38048 30C3.7986 30.0032 3.22314 30.1217 2.68731 30.3486C2.15149 30.5755 1.66593 30.9063 1.25868 31.322C0.851432 31.7376 0.530562 32.2298 0.314606 32.7701C0.0986492 33.3104 -0.00811465 33.8882 0.000480639 34.47C0.00278503 35.0947 0.135121 35.712 0.389066 36.2827C0.64301 36.8535 1.013 37.3651 1.47548 37.785L19.8005 53.685C22.2675 55.8252 25.4245 57.0024 28.6905 57H45.5905L45.6675 57.077L44.1585 59.466C44.0838 59.5842 44.0348 59.7168 44.0146 59.8552C43.9944 59.9936 44.0034 60.1347 44.0411 60.2693C44.0788 60.404 44.1443 60.5293 44.2334 60.637C44.3226 60.7448 44.4333 60.8327 44.5585 60.895L50.5585 63.895C50.6958 63.9634 50.847 63.9994 51.0005 64H63.0005C63.2657 64 63.5201 63.8946 63.7076 63.7071C63.8951 63.5196 64.0005 63.2652 64.0005 63V44C64.0006 43.8142 63.9489 43.632 63.8512 43.4739C63.7535 43.3158 63.6137 43.1881 63.4475 43.105ZM9.86048 31H10.0005C10.8672 30.9964 11.7163 31.2448 12.4445 31.715L12.4615 31.727L12.6105 31.827L19.9415 36.775C19.368 37.5044 19.0388 38.3959 19.0005 39.323L9.60048 31.8C9.44148 31.671 9.27448 31.548 9.09148 31.424L9.08448 31.418C9.16565 31.2862 9.28013 31.1782 9.41638 31.1048C9.55262 31.0314 9.7058 30.9953 9.86048 31ZM50.6385 61.7L46.4385 59.6L57.3625 42.3L61.5625 44.4L50.6385 61.7ZM62.0005 62H52.8145L62.0005 47.456V62Z" fill="black"/>
</g>
<defs>
<clipPath id="clip0_423_5050">
<rect width="64" height="64" fill="white"/>
</clipPath>
</defs>
</svg>
